<ttFont>
    <TTGlyph name="A" xMin="-10" yMin="0" xMax="723" yMax="714">
      <contour>
        <pt x="359" y="714" on="1"/>
        <pt x="655" y="6" on="1"/>
        <pt x="570" y="6" on="1"/>
        <pt x="339" y="619" on="1"/>
      </contour>
      <contour>
        <pt x="144" y="73" on="1"/>
        <pt x="139" y="58" on="0"/>
        <pt x="142" y="35" on="0"/>
        <pt x="154" y="18" on="0"/>
        <pt x="173" y="10" on="0"/>
        <pt x="182" y="10" on="1"/>
        <pt x="191" y="10" on="1"/>
        <pt x="191" y="0" on="1"/>
        <pt x="-10" y="0" on="1"/>
        <pt x="-10" y="10" on="1"/>
        <pt x="-1" y="10" on="1"/>
        <pt x="22" y="10" on="0"/>
        <pt x="71" y="39" on="0"/>
        <pt x="87" y="73" on="1"/>
      </contour>
      <contour>
        <pt x="359" y="714" on="1"/>
        <pt x="368" y="644" on="1"/>
        <pt x="117" y="3" on="1"/>
        <pt x="57" y="3" on="1"/>
        <pt x="313" y="611" on="1"/>
        <pt x="323" y="634" on="0"/>
        <pt x="331" y="654" on="1"/>
        <pt x="338" y="671" on="0"/>
        <pt x="350" y="706" on="0"/>
        <pt x="350" y="714" on="1"/>
      </contour>
      <contour>
        <pt x="500" y="273" on="1"/>
        <pt x="500" y="243" on="1"/>
        <pt x="187" y="243" on="1"/>
        <pt x="187" y="273" on="1"/>
      </contour>
      <contour>
        <pt x="627" y="73" on="1"/>
        <pt x="642" y="39" on="0"/>
        <pt x="692" y="10" on="0"/>
        <pt x="715" y="10" on="1"/>
        <pt x="723" y="10" on="1"/>
        <pt x="723" y="0" on="1"/>
        <pt x="498" y="0" on="1"/>
        <pt x="498" y="10" on="1"/>
        <pt x="507" y="10" on="1"/>
        <pt x="526" y="10" on="0"/>
        <pt x="555" y="43" on="0"/>
        <pt x="545" y="73" on="1"/>
      </contour>
    </TTGlyph>
    <TTGlyph name="A.001" xMin="-10" yMin="-223" xMax="945" yMax="763">
      <contour>
        <pt x="945" y="-201" on="1"/>
        <pt x="886" y="-223" on="0"/>
        <pt x="769" y="-207" on="0"/>
        <pt x="661" y="-126" on="0"/>
        <pt x="565" y="24" on="0"/>
        <pt x="527" y="137" on="1"/>
        <pt x="488" y="251" on="1"/>
        <pt x="214" y="251" on="1"/>
        <pt x="144" y="73" on="1"/>
        <pt x="139" y="58" on="0"/>
        <pt x="142" y="35" on="0"/>
        <pt x="154" y="18" on="0"/>
        <pt x="173" y="10" on="0"/>
        <pt x="182" y="10" on="1"/>
        <pt x="191" y="10" on="1"/>
        <pt x="191" y="0" on="1"/>
        <pt x="-10" y="0" on="1"/>
        <pt x="-10" y="10" on="1"/>
        <pt x="-1" y="10" on="1"/>
        <pt x="21" y="10" on="0"/>
        <pt x="68" y="37" on="0"/>
        <pt x="84" y="68" on="1"/>
        <pt x="332" y="662" on="1"/>
        <pt x="315" y="685" on="0"/>
        <pt x="275" y="721" on="0"/>
        <pt x="223" y="739" on="0"/>
        <pt x="160" y="738" on="0"/>
        <pt x="121" y="724" on="1"/>
        <pt x="118" y="734" on="1"/>
        <pt x="177" y="759" on="0"/>
        <pt x="268" y="763" on="0"/>
        <pt x="339" y="735" on="0"/>
        <pt x="391" y="680" on="0"/>
        <pt x="430" y="612" on="0"/>
        <pt x="460" y="536" on="0"/>
        <pt x="472" y="501" on="1"/>
        <pt x="594" y="155" on="1"/>
        <pt x="608" y="115" on="0"/>
        <pt x="646" y="27" on="0"/>
        <pt x="694" y="-56" on="0"/>
        <pt x="751" y="-129" on="0"/>
        <pt x="820" y="-179" on="0"/>
        <pt x="899" y="-201" on="0"/>
        <pt x="944" y="-191" on="1"/>
      </contour>
      <contour>
        <pt x="478" y="281" on="1"/>
        <pt x="399" y="514" on="1"/>
        <pt x="390" y="540" on="0"/>
        <pt x="370" y="594" on="0"/>
        <pt x="357" y="619" on="1"/>
        <pt x="225" y="281" on="1"/>
      </contour>
    </TTGlyph>
    <TTGlyph name="AE" xMin="-10" yMin="0" xMax="858" yMax="718">
      <contour>
        <pt x="153" y="67" on="1"/>
        <pt x="147" y="56" on="0"/>
        <pt x="145" y="35" on="0"/>
        <pt x="152" y="19" on="0"/>
        <pt x="168" y="9" on="0"/>
        <pt x="179" y="10" on="1"/>
        <pt x="189" y="10" on="1"/>
        <pt x="189" y="0" on="1"/>
        <pt x="-10" y="0" on="1"/>
        <pt x="-10" y="10" on="1"/>
        <pt x="-3" y="10" on="1"/>
        <pt x="22" y="10" on="0"/>
        <pt x="74" y="48" on="0"/>
        <pt x="89" y="71" on="1"/>
      </contour>
      <contour>
        <pt x="531" y="700" on="1"/>
        <pt x="531" y="0" on="1"/>
        <pt x="466" y="0" on="1"/>
        <pt x="466" y="654" on="1"/>
      </contour>
      <contour>
        <pt x="468" y="58" on="1"/>
        <pt x="468" y="0" on="1"/>
        <pt x="406" y="0" on="1"/>
        <pt x="407" y="10" on="1"/>
        <pt x="416" y="10" on="1"/>
        <pt x="436" y="10" on="0"/>
        <pt x="465" y="38" on="0"/>
        <pt x="466" y="58" on="1"/>
      </contour>
      <contour>
        <pt x="801" y="31" on="1"/>
        <pt x="801" y="0" on="1"/>
        <pt x="528" y="0" on="1"/>
        <pt x="528" y="31" on="1"/>
      </contour>
      <contour>
        <pt x="758" y="350" on="1"/>
        <pt x="758" y="320" on="1"/>
        <pt x="293" y="320" on="1"/>
        <pt x="298" y="350" on="1"/>
      </contour>
      <contour>
        <pt x="800" y="700" on="1"/>
        <pt x="800" y="669" on="1"/>
        <pt x="491" y="669" on="1"/>
        <pt x="488" y="635" on="1"/>
        <pt x="115" y="3" on="1"/>
        <pt x="46" y="3" on="1"/>
        <pt x="463" y="655" on="1"/>
        <pt x="469" y="669" on="0"/>
        <pt x="456" y="690" on="0"/>
        <pt x="442" y="690" on="1"/>
        <pt x="438" y="690" on="1"/>
        <pt x="438" y="700" on="1"/>
      </contour>
      <contour>
        <pt x="858" y="139" on="1"/>
        <pt x="802" y="0" on="1"/>
        <pt x="663" y="0" on="1"/>
        <pt x="693" y="31" on="1"/>
        <pt x="753" y="31" on="0"/>
        <pt x="828" y="91" on="0"/>
        <pt x="848" y="139" on="1"/>
      </contour>
      <contour>
        <pt x="758" y="322" on="1"/>
        <pt x="758" y="256" on="1"/>
        <pt x="748" y="256" on="1"/>
        <pt x="748" y="271" on="1"/>
        <pt x="748" y="291" on="0"/>
        <pt x="720" y="320" on="0"/>
        <pt x="700" y="320" on="1"/>
        <pt x="700" y="322" on="1"/>
      </contour>
      <contour>
        <pt x="758" y="414" on="1"/>
        <pt x="758" y="348" on="1"/>
        <pt x="700" y="348" on="1"/>
        <pt x="700" y="350" on="1"/>
        <pt x="720" y="351" on="0"/>
        <pt x="748" y="380" on="0"/>
        <pt x="748" y="400" on="1"/>
        <pt x="748" y="414" on="1"/>
      </contour>
      <contour>
        <pt x="800" y="672" on="1"/>
        <pt x="800" y="605" on="1"/>
        <pt x="790" y="605" on="1"/>
        <pt x="791" y="620" on="1"/>
        <pt x="791" y="640" on="0"/>
        <pt x="762" y="669" on="0"/>
        <pt x="742" y="669" on="1"/>
        <pt x="742" y="672" on="1"/>
      </contour>
      <contour>
        <pt x="800" y="689" on="1"/>
        <pt x="679" y="700" on="1"/>
        <pt x="695" y="700" on="0"/>
        <pt x="732" y="703" on="0"/>
        <pt x="766" y="709" on="0"/>
        <pt x="793" y="715" on="0"/>
        <pt x="800" y="718" on="1"/>
      </contour>
    </TTGlyph>
    <TTGlyph name="AE.001" xMin="-200" yMin="-99" xMax="868" yMax="718">
      <contour>
        <pt x="868" y="139" on="1"/>
        <pt x="812" y="0" on="1"/>
        <pt x="346" y="0" on="1"/>
        <pt x="347" y="10" on="1"/>
        <pt x="356" y="10" on="1"/>
        <pt x="376" y="10" on="0"/>
        <pt x="405" y="38" on="0"/>
        <pt x="406" y="58" on="1"/>
        <pt x="406" y="320" on="1"/>
        <pt x="245" y="320" on="1"/>
        <pt x="90" y="55" on="1"/>
        <pt x="61" y="4" on="0"/>
        <pt x="-14" y="-60" on="0"/>
        <pt x="-92" y="-93" on="0"/>
        <pt x="-169" y="-99" on="0"/>
        <pt x="-200" y="-91" on="1"/>
        <pt x="-199" y="-81" on="1"/>
        <pt x="-127" y="-78" on="0"/>
        <pt x="-16" y="-4" on="0"/>
        <pt x="37" y="79" on="1"/>
        <pt x="403" y="655" on="1"/>
        <pt x="409" y="669" on="0"/>
        <pt x="396" y="690" on="0"/>
        <pt x="382" y="690" on="1"/>
        <pt x="378" y="690" on="1"/>
        <pt x="378" y="700" on="1"/>
        <pt x="531" y="700" on="1"/>
        <pt x="547" y="700" on="0"/>
        <pt x="583" y="703" on="0"/>
        <pt x="616" y="709" on="0"/>
        <pt x="643" y="715" on="0"/>
        <pt x="650" y="718" on="1"/>
        <pt x="650" y="605" on="1"/>
        <pt x="640" y="605" on="1"/>
        <pt x="641" y="620" on="1"/>
        <pt x="641" y="640" on="0"/>
        <pt x="612" y="669" on="0"/>
        <pt x="592" y="669" on="1"/>
        <pt x="471" y="669" on="1"/>
        <pt x="471" y="350" on="1"/>
        <pt x="665" y="350" on="1"/>
        <pt x="685" y="351" on="0"/>
        <pt x="713" y="380" on="0"/>
        <pt x="713" y="400" on="1"/>
        <pt x="713" y="414" on="1"/>
        <pt x="723" y="414" on="1"/>
        <pt x="723" y="256" on="1"/>
        <pt x="713" y="256" on="1"/>
        <pt x="713" y="271" on="1"/>
        <pt x="713" y="291" on="0"/>
        <pt x="686" y="319" on="0"/>
        <pt x="666" y="320" on="1"/>
        <pt x="471" y="320" on="1"/>
        <pt x="471" y="31" on="1"/>
        <pt x="705" y="31" on="1"/>
        <pt x="765" y="31" on="0"/>
        <pt x="838" y="92" on="0"/>
        <pt x="858" y="139" on="1"/>
      </contour>
      <contour>
        <pt x="406" y="350" on="1"/>
        <pt x="406" y="597" on="1"/>
        <pt x="262" y="350" on="1"/>
      </contour>
    </TTGlyph>
    <TTGlyph name="Aacute" xMin="-10" yMin="0" xMax="723" yMax="902">
      <component glyphName="A" x="0" y="0" flags="0x204"/>
      <component glyphName="acute" x="148" y="18" flags="0x4"/>
    </TTGlyph>
    <TTGlyph name="Aacute.001" xMin="-10" yMin="-223" xMax="945" yMax="912">
      <contour>
        <pt x="360" y="781" on="1"/>
        <pt x="392" y="816" on="0"/>
        <pt x="455" y="881" on="0"/>
        <pt x="487" y="912" on="1"/>
        <pt x="498" y="900" on="0"/>
        <pt x="519" y="874" on="0"/>
        <pt x="527" y="859" on="1"/>
        <pt x="487" y="836" on="0"/>
        <pt x="407" y="794" on="0"/>
        <pt x="367" y="774" on="1"/>
      </contour>
      <contour>
        <pt x="945" y="-201" on="1"/>
        <pt x="886" y="-223" on="0"/>
        <pt x="769" y="-207" on="0"/>
        <pt x="661" y="-126" on="0"/>
        <pt x="565" y="24" on="0"/>
        <pt x="527" y="137" on="1"/>
        <pt x="488" y="251" on="1"/>
        <pt x="214" y="251" on="1"/>
        <pt x="144" y="73" on="1"/>
        <pt x="139" y="58" on="0"/>
        <pt x="142" y="35" on="0"/>
        <pt x="154" y="18" on="0"/>
        <pt x="173" y="10" on="0"/>
        <pt x="182" y="10" on="1"/>
        <pt x="191" y="10" on="1"/>
        <pt x="191" y="0" on="1"/>
        <pt x="-10" y="0" on="1"/>
        <pt x="-10" y="10" on="1"/>
        <pt x="-1" y="10" on="1"/>
        <pt x="21" y="10" on="0"/>
        <pt x="68" y="37" on="0"/>
        <pt x="84" y="68" on="1"/>
        <pt x="332" y="662" on="1"/>
        <pt x="315" y="685" on="0"/>
        <pt x="275" y="721" on="0"/>
        <pt x="223" y="739" on="0"/>
        <pt x="160" y="738" on="0"/>
        <pt x="121" y="724" on="1"/>
        <pt x="118" y="734" on="1"/>
        <pt x="177" y="759" on="0"/>
        <pt x="268" y="763" on="0"/>
        <pt x="339" y="735" on="0"/>
        <pt x="391" y="680" on="0"/>
        <pt x="430" y="612" on="0"/>
        <pt x="460" y="536" on="0"/>
        <pt x="472" y="501" on="1"/>
        <pt x="594" y="155" on="1"/>
        <pt x="608" y="115" on="0"/>
        <pt x="646" y="27" on="0"/>
        <pt x="694" y="-56" on="0"/>
        <pt x="751" y="-129" on="0"/>
        <pt x="820" y="-179" on="0"/>
        <pt x="899" y="-201" on="0"/>
        <pt x="944" y="-191" on="1"/>
      </contour>
      <contour>
        <pt x="478" y="281" on="1"/>
        <pt x="399" y="514" on="1"/>
        <pt x="390" y="540" on="0"/>
        <pt x="370" y="594" on="0"/>
        <pt x="357" y="619" on="1"/>
        <pt x="225" y="281" on="1"/>
      </contour>
    </TTGlyph>
    <TTGlyph name="Abreve" xMin="-10" yMin="0" xMax="723" yMax="868">
      <component glyphName="A" x="0" y="0" flags="0x204"/>
      <component glyphName="breve" x="136" y="14" flags="0x4"/>
    </TTGlyph>
    <TTGlyph name="Abreve.001" xMin="-10" yMin="-223" xMax="945" yMax="878">
      <contour>
        <pt x="470" y="878" on="1"/>
        <pt x="470" y="857" on="0"/>
        <pt x="454" y="819" on="0"/>
        <pt x="425" y="790" on="0"/>
        <pt x="388" y="774" on="0"/>
        <pt x="367" y="774" on="1"/>
        <pt x="346" y="774" on="0"/>
        <pt x="309" y="790" on="0"/>
        <pt x="280" y="819" on="0"/>
        <pt x="264" y="857" on="0"/>
        <pt x="264" y="878" on="1"/>
        <pt x="274" y="878" on="1"/>
        <pt x="282" y="858" on="0"/>
        <pt x="332" y="824" on="0"/>
        <pt x="367" y="824" on="1"/>
        <pt x="402" y="824" on="0"/>
        <pt x="452" y="858" on="0"/>
        <pt x="460" y="878" on="1"/>
      </contour>
      <contour>
        <pt x="945" y="-201" on="1"/>
        <pt x="886" y="-223" on="0"/>
        <pt x="769" y="-207" on="0"/>
        <pt x="661" y="-126" on="0"/>
        <pt x="565" y="24" on="0"/>
        <pt x="527" y="137" on="1"/>
        <pt x="488" y="251" on="1"/>
        <pt x="214" y="251" on="1"/>
        <pt x="144" y="73" on="1"/>
        <pt x="139" y="58" on="0"/>
        <pt x="142" y="35" on="0"/>
        <pt x="154" y="18" on="0"/>
        <pt x="173" y="10" on="0"/>
        <pt x="182" y="10" on="1"/>
        <pt x="191" y="10" on="1"/>
        <pt x="191" y="0" on="1"/>
        <pt x="-10" y="0" on="1"/>
        <pt x="-10" y="10" on="1"/>
        <pt x="-1" y="10" on="1"/>
        <pt x="21" y="10" on="0"/>
        <pt x="68" y="37" on="0"/>
        <pt x="84" y="68" on="1"/>
        <pt x="332" y="662" on="1"/>
        <pt x="315" y="685" on="0"/>
        <pt x="275" y="721" on="0"/>
        <pt x="223" y="739" on="0"/>
        <pt x="160" y="738" on="0"/>
        <pt x="121" y="724" on="1"/>
        <pt x="118" y="734" on="1"/>
        <pt x="177" y="759" on="0"/>
        <pt x="268" y="763" on="0"/>
        <pt x="339" y="735" on="0"/>
        <pt x="391" y="680" on="0"/>
        <pt x="430" y="612" on="0"/>
        <pt x="460" y="536" on="0"/>
        <pt x="472" y="501" on="1"/>
        <pt x="594" y="155" on="1"/>
        <pt x="608" y="115" on="0"/>
        <pt x="646" y="27" on="0"/>
        <pt x="694" y="-56" on="0"/>
        <pt x="751" y="-129" on="0"/>
        <pt x="820" y="-179" on="0"/>
        <pt x="899" y="-201" on="0"/>
        <pt x="944" y="-191" on="1"/>
      </contour>
      <contour>
        <pt x="478" y="281" on="1"/>
        <pt x="399" y="514" on="1"/>
        <pt x="390" y="540" on="0"/>
        <pt x="370" y="594" on="0"/>
        <pt x="357" y="619" on="1"/>
        <pt x="225" y="281" on="1"/>
      </contour>
    </TTGlyph>
    <TTGlyph name="Acircumflex" xMin="-10" yMin="0" xMax="723" yMax="890">
      <component glyphName="A" x="0" y="0" flags="0x204"/>
      <component glyphName="circumflex" x="79" y="34" flags="0x4"/>
    </TTGlyph>
    <TTGlyph name="Acircumflex.001" xMin="-10" yMin="-223" xMax="945" yMax="900">
      <contour>
        <pt x="361" y="900" on="1"/>
        <pt x="371" y="900" on="1"/>
        <pt x="486" y="781" on="1"/>
        <pt x="480" y="773" on="1"/>
        <pt x="366" y="839" on="1"/>
        <pt x="261" y="773" on="1"/>
        <pt x="255" y="781" on="1"/>
      </contour>
      <contour>
        <pt x="944" y="-191" on="1"/>
        <pt x="899" y="-201" on="0"/>
        <pt x="820" y="-179" on="0"/>
        <pt x="751" y="-129" on="0"/>
        <pt x="694" y="-56" on="0"/>
        <pt x="646" y="27" on="0"/>
        <pt x="608" y="115" on="0"/>
        <pt x="594" y="155" on="1"/>
        <pt x="472" y="501" on="1"/>
        <pt x="460" y="536" on="0"/>
        <pt x="430" y="612" on="0"/>
        <pt x="391" y="680" on="0"/>
        <pt x="339" y="735" on="0"/>
        <pt x="268" y="763" on="0"/>
        <pt x="177" y="759" on="0"/>
        <pt x="118" y="734" on="1"/>
        <pt x="121" y="724" on="1"/>
        <pt x="160" y="738" on="0"/>
        <pt x="223" y="739" on="0"/>
        <pt x="275" y="721" on="0"/>
        <pt x="315" y="685" on="0"/>
        <pt x="332" y="662" on="1"/>
        <pt x="84" y="68" on="1"/>
        <pt x="68" y="37" on="0"/>
        <pt x="21" y="10" on="0"/>
        <pt x="-1" y="10" on="1"/>
        <pt x="-10" y="10" on="1"/>
        <pt x="-10" y="0" on="1"/>
        <pt x="191" y="0" on="1"/>
        <pt x="191" y="10" on="1"/>
        <pt x="182" y="10" on="1"/>
        <pt x="173" y="10" on="0"/>
        <pt x="154" y="18" on="0"/>
        <pt x="142" y="35" on="0"/>
        <pt x="139" y="58" on="0"/>
        <pt x="144" y="73" on="1"/>
        <pt x="214" y="251" on="1"/>
        <pt x="488" y="251" on="1"/>
        <pt x="527" y="137" on="1"/>
        <pt x="565" y="24" on="0"/>
        <pt x="661" y="-126" on="0"/>
        <pt x="769" y="-207" on="0"/>
        <pt x="886" y="-223" on="0"/>
        <pt x="945" y="-201" on="1"/>
      </contour>
      <contour>
        <pt x="225" y="281" on="1"/>
        <pt x="357" y="619" on="1"/>
        <pt x="370" y="594" on="0"/>
        <pt x="390" y="540" on="0"/>
        <pt x="399" y="514" on="1"/>
        <pt x="478" y="281" on="1"/>
      </contour>
    </TTGlyph>
    <TTGlyph name="Adieresis" xMin="-10" yMin="0" xMax="723" yMax="842">
      <component glyphName="A" x="0" y="0" flags="0x204"/>
      <component glyphName="dieresis" x="76" y="64" flags="0x4"/>
    </TTGlyph>
    <TTGlyph name="Adieresis.001" xMin="-10" yMin="-223" xMax="945" yMax="852">
      <contour>
        <pt x="312" y="813" on="1"/>
        <pt x="312" y="797" on="0"/>
        <pt x="289" y="774" on="0"/>
        <pt x="272" y="774" on="1"/>
        <pt x="256" y="774" on="0"/>
        <pt x="233" y="797" on="0"/>
        <pt x="233" y="813" on="1"/>
        <pt x="233" y="830" on="0"/>
        <pt x="256" y="852" on="0"/>
        <pt x="272" y="852" on="1"/>
        <pt x="289" y="852" on="0"/>
        <pt x="312" y="830" on="0"/>
      </contour>
      <contour>
        <pt x="500" y="813" on="1"/>
        <pt x="500" y="797" on="0"/>
        <pt x="477" y="774" on="0"/>
        <pt x="461" y="774" on="1"/>
        <pt x="444" y="774" on="0"/>
        <pt x="422" y="797" on="0"/>
        <pt x="422" y="813" on="1"/>
        <pt x="422" y="830" on="0"/>
        <pt x="444" y="852" on="0"/>
        <pt x="461" y="852" on="1"/>
        <pt x="477" y="852" on="0"/>
        <pt x="500" y="830" on="0"/>
      </contour>
      <contour>
        <pt x="945" y="-201" on="1"/>
        <pt x="886" y="-223" on="0"/>
        <pt x="769" y="-207" on="0"/>
        <pt x="661" y="-126" on="0"/>
        <pt x="565" y="24" on="0"/>
        <pt x="527" y="137" on="1"/>
        <pt x="488" y="251" on="1"/>
        <pt x="214" y="251" on="1"/>
        <pt x="144" y="73" on="1"/>
        <pt x="139" y="58" on="0"/>
        <pt x="142" y="35" on="0"/>
        <pt x="154" y="18" on="0"/>
        <pt x="173" y="10" on="0"/>
        <pt x="182" y="10" on="1"/>
        <pt x="191" y="10" on="1"/>
        <pt x="191" y="0" on="1"/>
        <pt x="-10" y="0" on="1"/>
        <pt x="-10" y="10" on="1"/>
        <pt x="-1" y="10" on="1"/>
        <pt x="21" y="10" on="0"/>
        <pt x="68" y="37" on="0"/>
        <pt x="84" y="68" on="1"/>
        <pt x="332" y="662" on="1"/>
        <pt x="315" y="685" on="0"/>
        <pt x="275" y="721" on="0"/>
        <pt x="223" y="739" on="0"/>
        <pt x="160" y="738" on="0"/>
        <pt x="121" y="724" on="1"/>
        <pt x="118" y="734" on="1"/>
        <pt x="177" y="759" on="0"/>
        <pt x="268" y="763" on="0"/>
        <pt x="339" y="735" on="0"/>
        <pt x="391" y="680" on="0"/>
        <pt x="430" y="612" on="0"/>
        <pt x="460" y="536" on="0"/>
        <pt x="472" y="501" on="1"/>
        <pt x="594" y="155" on="1"/>
        <pt x="608" y="115" on="0"/>
        <pt x="646" y="27" on="0"/>
        <pt x="694" y="-56" on="0"/>
        <pt x="751" y="-129" on="0"/>
        <pt x="820" y="-179" on="0"/>
        <pt x="899" y="-201" on="0"/>
        <pt x="944" y="-191" on="1"/>
      </contour>
      <contour>
        <pt x="478" y="281" on="1"/>
        <pt x="399" y="514" on="1"/>
        <pt x="390" y="540" on="0"/>
        <pt x="370" y="594" on="0"/>
        <pt x="357" y="619" on="1"/>
        <pt x="225" y="281" on="1"/>
      </contour>
    </TTGlyph>
    <TTGlyph name="Agrave" xMin="-10" yMin="0" xMax="723" yMax="902">
      <component glyphName="A" x="0" y="0" flags="0x204"/>
      <component glyphName="grave" x="124" y="18" flags="0x4"/>
    </TTGlyph>
    <TTGlyph name="Agrave.001" xMin="-10" yMin="-223" xMax="945" yMax="912">
      <contour>
        <pt x="367" y="774" on="1"/>
        <pt x="326" y="793" on="0"/>
        <pt x="246" y="836" on="0"/>
        <pt x="206" y="859" on="1"/>
        <pt x="214" y="875" on="0"/>
        <pt x="235" y="901" on="0"/>
        <pt x="247" y="912" on="1"/>
        <pt x="279" y="881" on="0"/>
        <pt x="342" y="816" on="0"/>
        <pt x="374" y="781" on="1"/>
      </contour>
      <contour>
        <pt x="945" y="-201" on="1"/>
        <pt x="886" y="-223" on="0"/>
        <pt x="769" y="-207" on="0"/>
        <pt x="661" y="-126" on="0"/>
        <pt x="565" y="24" on="0"/>
        <pt x="527" y="137" on="1"/>
        <pt x="488" y="251" on="1"/>
        <pt x="214" y="251" on="1"/>
        <pt x="144" y="73" on="1"/>
        <pt x="139" y="58" on="0"/>
        <pt x="142" y="35" on="0"/>
        <pt x="154" y="18" on="0"/>
        <pt x="173" y="10" on="0"/>
        <pt x="182" y="10" on="1"/>
        <pt x="191" y="10" on="1"/>
        <pt x="191" y="0" on="1"/>
        <pt x="-10" y="0" on="1"/>
        <pt x="-10" y="10" on="1"/>
        <pt x="-1" y="10" on="1"/>
        <pt x="21" y="10" on="0"/>
        <pt x="68" y="37" on="0"/>
        <pt x="84" y="68" on="1"/>
        <pt x="332" y="662" on="1"/>
        <pt x="315" y="685" on="0"/>
        <pt x="275" y="721" on="0"/>
        <pt x="223" y="739" on="0"/>
        <pt x="160" y="738" on="0"/>
        <pt x="121" y="724" on="1"/>
        <pt x="118" y="734" on="1"/>
        <pt x="177" y="759" on="0"/>
        <pt x="268" y="763" on="0"/>
        <pt x="339" y="735" on="0"/>
        <pt x="391" y="680" on="0"/>
        <pt x="430" y="612" on="0"/>
        <pt x="460" y="536" on="0"/>
        <pt x="472" y="501" on="1"/>
        <pt x="594" y="155" on="1"/>
        <pt x="608" y="115" on="0"/>
        <pt x="646" y="27" on="0"/>
        <pt x="694" y="-56" on="0"/>
        <pt x="751" y="-129" on="0"/>
        <pt x="820" y="-179" on="0"/>
        <pt x="899" y="-201" on="0"/>
        <pt x="944" y="-191" on="1"/>
      </contour>
      <contour>
        <pt x="478" y="281" on="1"/>
        <pt x="399" y="514" on="1"/>
        <pt x="390" y="540" on="0"/>
        <pt x="370" y="594" on="0"/>
        <pt x="357" y="619" on="1"/>
        <pt x="225" y="281" on="1"/>
      </contour>
    </TTGlyph>
    <TTGlyph name="Amacron" xMin="-10" yMin="0" xMax="723" yMax="830">
      <component glyphName="A" x="0" y="0" flags="0x204"/>
      <component glyphName="macron" x="64" y="92" flags="0x4"/>
    </TTGlyph>
    <TTGlyph name="Amacron.001" xMin="-10" yMin="-223" xMax="945" yMax="840">
      <contour>
        <pt x="244" y="840" on="1"/>
        <pt x="494" y="840" on="1"/>
        <pt x="494" y="805" on="1"/>
        <pt x="244" y="805" on="1"/>
      </contour>
      <contour>
        <pt x="945" y="-201" on="1"/>
        <pt x="886" y="-223" on="0"/>
        <pt x="769" y="-207" on="0"/>
        <pt x="661" y="-126" on="0"/>
        <pt x="565" y="24" on="0"/>
        <pt x="527" y="137" on="1"/>
        <pt x="488" y="251" on="1"/>
        <pt x="214" y="251" on="1"/>
        <pt x="144" y="73" on="1"/>
        <pt x="139" y="58" on="0"/>
        <pt x="142" y="35" on="0"/>
        <pt x="154" y="18" on="0"/>
        <pt x="173" y="10" on="0"/>
        <pt x="182" y="10" on="1"/>
        <pt x="191" y="10" on="1"/>
        <pt x="191" y="0" on="1"/>
        <pt x="-10" y="0" on="1"/>
        <pt x="-10" y="10" on="1"/>
        <pt x="-1" y="10" on="1"/>
        <pt x="21" y="10" on="0"/>
        <pt x="68" y="37" on="0"/>
        <pt x="84" y="68" on="1"/>
        <pt x="332" y="662" on="1"/>
        <pt x="315" y="685" on="0"/>
        <pt x="275" y="721" on="0"/>
        <pt x="223" y="739" on="0"/>
        <pt x="160" y="738" on="0"/>
        <pt x="121" y="724" on="1"/>
        <pt x="118" y="734" on="1"/>
        <pt x="177" y="759" on="0"/>
        <pt x="268" y="763" on="0"/>
        <pt x="339" y="735" on="0"/>
        <pt x="391" y="680" on="0"/>
        <pt x="430" y="612" on="0"/>
        <pt x="460" y="536" on="0"/>
        <pt x="472" y="501" on="1"/>
        <pt x="594" y="155" on="1"/>
        <pt x="608" y="115" on="0"/>
        <pt x="646" y="27" on="0"/>
        <pt x="694" y="-56" on="0"/>
        <pt x="751" y="-129" on="0"/>
        <pt x="820" y="-179" on="0"/>
        <pt x="899" y="-201" on="0"/>
        <pt x="944" y="-191" on="1"/>
      </contour>
      <contour>
        <pt x="478" y="281" on="1"/>
        <pt x="399" y="514" on="1"/>
        <pt x="390" y="540" on="0"/>
        <pt x="370" y="594" on="0"/>
        <pt x="357" y="619" on="1"/>
        <pt x="225" y="281" on="1"/>
      </contour>
    </TTGlyph>
    <TTGlyph name="Aogonek" xMin="-10" yMin="-178" xMax="748" yMax="714">
      <contour>
        <pt x="373" y="714" on="1"/>
        <pt x="683" y="6" on="1"/>
        <pt x="598" y="2" on="1"/>
        <pt x="353" y="619" on="1"/>
      </contour>
      <contour>
        <pt x="373" y="714" on="1"/>
        <pt x="382" y="644" on="1"/>
        <pt x="116" y="3" on="1"/>
        <pt x="56" y="3" on="1"/>
        <pt x="327" y="611" on="1"/>
        <pt x="337" y="634" on="0"/>
        <pt x="345" y="654" on="1"/>
        <pt x="352" y="671" on="0"/>
        <pt x="364" y="706" on="0"/>
        <pt x="364" y="714" on="1"/>
      </contour>
      <contour>
        <pt x="513" y="273" on="1"/>
        <pt x="513" y="243" on="1"/>
        <pt x="201" y="243" on="1"/>
        <pt x="201" y="273" on="1"/>
      </contour>
      <contour>
        <pt x="144" y="73" on="1"/>
        <pt x="139" y="58" on="0"/>
        <pt x="142" y="35" on="0"/>
        <pt x="154" y="18" on="0"/>
        <pt x="173" y="10" on="0"/>
        <pt x="182" y="10" on="1"/>
        <pt x="191" y="10" on="1"/>
        <pt x="191" y="0" on="1"/>
        <pt x="-10" y="0" on="1"/>
        <pt x="-10" y="10" on="1"/>
        <pt x="-1" y="10" on="1"/>
        <pt x="22" y="10" on="0"/>
        <pt x="71" y="39" on="0"/>
        <pt x="87" y="73" on="1"/>
      </contour>
      <contour>
        <pt x="612" y="0" on="1"/>
        <pt x="580" y="-5" on="0"/>
        <pt x="550" y="-48" on="0"/>
        <pt x="550" y="-71" on="1"/>
        <pt x="550" y="-92" on="0"/>
        <pt x="575" y="-125" on="0"/>
        <pt x="612" y="-140" on="0"/>
        <pt x="655" y="-132" on="0"/>
        <pt x="674" y="-113" on="1"/>
        <pt x="680" y="-119" on="1"/>
        <pt x="672" y="-139" on="0"/>
        <pt x="640" y="-166" on="0"/>
        <pt x="601" y="-178" on="0"/>
        <pt x="560" y="-174" on="0"/>
        <pt x="525" y="-152" on="0"/>
        <pt x="503" y="-113" on="0"/>
        <pt x="503" y="-84" on="1"/>
        <pt x="502" y="-58" on="0"/>
        <pt x="533" y="-19" on="0"/>
        <pt x="552" y="-8" on="1"/>
        <pt x="574" y="4" on="0"/>
        <pt x="582" y="40" on="0"/>
        <pt x="570" y="72" on="1"/>
        <pt x="656" y="68" on="1"/>
        <pt x="670" y="37" on="0"/>
        <pt x="716" y="9" on="0"/>
        <pt x="739" y="9" on="1"/>
        <pt x="748" y="9" on="1"/>
        <pt x="748" y="0" on="1"/>
        <pt x="717" y="0" on="0"/>
        <pt x="679" y="2" on="0"/>
        <pt x="651" y="3" on="0"/>
        <pt x="628" y="3" on="0"/>
      </contour>
    </TTGlyph>
    <TTGlyph name="Aogonek.001" xMin="-10" yMin="-181" xMax="931" yMax="745">
      <contour>
        <pt x="931" y="-157" on="1"/>
        <pt x="884" y="-164" on="0"/>
        <pt x="797" y="-163" on="0"/>
        <pt x="715" y="-134" on="0"/>
        <pt x="638" y="-69" on="0"/>
        <pt x="602" y="-11" on="1"/>
        <pt x="578" y="-14" on="0"/>
        <pt x="550" y="-39" on="0"/>
        <pt x="543" y="-59" on="1"/>
        <pt x="536" y="-80" on="0"/>
        <pt x="548" y="-119" on="0"/>
        <pt x="577" y="-145" on="0"/>
        <pt x="619" y="-152" on="0"/>
        <pt x="643" y="-140" on="1"/>
        <pt x="647" y="-148" on="1"/>
        <pt x="626" y="-173" on="0"/>
        <pt x="562" y="-181" on="0"/>
        <pt x="509" y="-153" on="0"/>
        <pt x="482" y="-95" on="0"/>
        <pt x="496" y="-54" on="1"/>
        <pt x="507" y="-25" on="0"/>
        <pt x="561" y="5" on="0"/>
        <pt x="594" y="3" on="1"/>
        <pt x="578" y="31" on="0"/>
        <pt x="547" y="97" on="0"/>
        <pt x="532" y="137" on="1"/>
        <pt x="489" y="251" on="1"/>
        <pt x="214" y="251" on="1"/>
        <pt x="144" y="73" on="1"/>
        <pt x="139" y="58" on="0"/>
        <pt x="142" y="35" on="0"/>
        <pt x="154" y="18" on="0"/>
        <pt x="173" y="10" on="0"/>
        <pt x="182" y="10" on="1"/>
        <pt x="191" y="10" on="1"/>
        <pt x="191" y="0" on="1"/>
        <pt x="-10" y="0" on="1"/>
        <pt x="-10" y="10" on="1"/>
        <pt x="-1" y="10" on="1"/>
        <pt x="21" y="10" on="0"/>
        <pt x="68" y="37" on="0"/>
        <pt x="84" y="68" on="1"/>
        <pt x="322" y="638" on="1"/>
        <pt x="287" y="680" on="0"/>
        <pt x="184" y="723" on="0"/>
        <pt x="106" y="710" on="1"/>
        <pt x="103" y="720" on="1"/>
        <pt x="190" y="745" on="0"/>
        <pt x="309" y="719" on="0"/>
        <pt x="390" y="648" on="0"/>
        <pt x="441" y="548" on="0"/>
        <pt x="461" y="499" on="1"/>
        <pt x="599" y="158" on="1"/>
        <pt x="623" y="99" on="0"/>
        <pt x="681" y="-12" on="0"/>
        <pt x="759" y="-98" on="0"/>
        <pt x="862" y="-149" on="0"/>
        <pt x="930" y="-147" on="1"/>
      </contour>
      <contour>
        <pt x="478" y="281" on="1"/>
        <pt x="391" y="510" on="1"/>
        <pt x="382" y="533" on="0"/>
        <pt x="362" y="578" on="0"/>
        <pt x="349" y="599" on="1"/>
        <pt x="225" y="281" on="1"/>
      </contour>
    </TTGlyph>
    <TTGlyph name="Aring" xMin="-10" yMin="0" xMax="723" yMax="837">
      <contour>
        <pt x="359" y="714" on="1"/>
        <pt x="655" y="6" on="1"/>
        <pt x="570" y="6" on="1"/>
        <pt x="339" y="619" on="1"/>
      </contour>
      <contour>
        <pt x="144" y="73" on="1"/>
        <pt x="139" y="58" on="0"/>
        <pt x="142" y="35" on="0"/>
        <pt x="154" y="18" on="0"/>
        <pt x="173" y="10" on="0"/>
        <pt x="182" y="10" on="1"/>
        <pt x="191" y="10" on="1"/>
        <pt x="191" y="0" on="1"/>
        <pt x="-10" y="0" on="1"/>
        <pt x="-10" y="10" on="1"/>
        <pt x="-1" y="10" on="1"/>
        <pt x="22" y="10" on="0"/>
        <pt x="71" y="39" on="0"/>
        <pt x="87" y="73" on="1"/>
      </contour>
      <contour>
        <pt x="359" y="714" on="1"/>
        <pt x="368" y="644" on="1"/>
        <pt x="117" y="3" on="1"/>
        <pt x="57" y="3" on="1"/>
        <pt x="313" y="611" on="1"/>
        <pt x="323" y="634" on="0"/>
        <pt x="331" y="654" on="1"/>
        <pt x="338" y="671" on="0"/>
        <pt x="350" y="706" on="0"/>
        <pt x="350" y="714" on="1"/>
      </contour>
      <contour>
        <pt x="500" y="273" on="1"/>
        <pt x="500" y="243" on="1"/>
        <pt x="187" y="243" on="1"/>
        <pt x="187" y="273" on="1"/>
      </contour>
      <contour>
        <pt x="627" y="73" on="1"/>
        <pt x="642" y="39" on="0"/>
        <pt x="692" y="10" on="0"/>
        <pt x="715" y="10" on="1"/>
        <pt x="723" y="10" on="1"/>
        <pt x="723" y="0" on="1"/>
        <pt x="498" y="0" on="1"/>
        <pt x="498" y="10" on="1"/>
        <pt x="507" y="10" on="1"/>
        <pt x="526" y="10" on="0"/>
        <pt x="555" y="43" on="0"/>
        <pt x="545" y="73" on="1"/>
      </contour>
      <contour>
        <pt x="356" y="837" on="1"/>
        <pt x="392" y="837" on="0"/>
        <pt x="441" y="801" on="0"/>
        <pt x="441" y="769" on="1"/>
        <pt x="441" y="740" on="0"/>
        <pt x="392" y="701" on="0"/>
        <pt x="356" y="701" on="1"/>
        <pt x="319" y="701" on="0"/>
        <pt x="271" y="740" on="0"/>
        <pt x="271" y="769" on="1"/>
        <pt x="271" y="799" on="0"/>
        <pt x="319" y="837" on="0"/>
      </contour>
      <contour>
        <pt x="356" y="822" on="1"/>
        <pt x="337" y="822" on="0"/>
        <pt x="311" y="795" on="0"/>
        <pt x="311" y="769" on="1"/>
        <pt x="311" y="744" on="0"/>
        <pt x="337" y="717" on="0"/>
        <pt x="356" y="717" on="1"/>
        <pt x="375" y="717" on="0"/>
        <pt x="400" y="744" on="0"/>
        <pt x="400" y="769" on="1"/>
        <pt x="400" y="795" on="0"/>
        <pt x="375" y="822" on="0"/>
      </contour>
    </TTGlyph>
    <TTGlyph name="Aring.001" xMin="-10" yMin="-223" xMax="945" yMax="924">
      <contour>
        <pt x="273" y="849" on="1"/>
        <pt x="273" y="882" on="0"/>
        <pt x="326" y="924" on="0"/>
        <pt x="367" y="924" on="1"/>
        <pt x="407" y="924" on="0"/>
        <pt x="461" y="884" on="0"/>
        <pt x="461" y="849" on="1"/>
        <pt x="461" y="816" on="0"/>
        <pt x="407" y="774" on="0"/>
        <pt x="367" y="774" on="1"/>
        <pt x="326" y="774" on="0"/>
        <pt x="273" y="816" on="0"/>
      </contour>
      <contour>
        <pt x="416" y="849" on="1"/>
        <pt x="416" y="878" on="0"/>
        <pt x="388" y="907" on="0"/>
        <pt x="367" y="907" on="1"/>
        <pt x="346" y="907" on="0"/>
        <pt x="318" y="878" on="0"/>
        <pt x="318" y="849" on="1"/>
        <pt x="318" y="821" on="0"/>
        <pt x="346" y="792" on="0"/>
        <pt x="367" y="792" on="1"/>
        <pt x="388" y="792" on="0"/>
        <pt x="416" y="821" on="0"/>
      </contour>
      <contour>
        <pt x="945" y="-201" on="1"/>
        <pt x="886" y="-223" on="0"/>
        <pt x="769" y="-207" on="0"/>
        <pt x="661" y="-126" on="0"/>
        <pt x="565" y="24" on="0"/>
        <pt x="527" y="137" on="1"/>
        <pt x="488" y="251" on="1"/>
        <pt x="214" y="251" on="1"/>
        <pt x="144" y="73" on="1"/>
        <pt x="139" y="58" on="0"/>
        <pt x="142" y="35" on="0"/>
        <pt x="154" y="18" on="0"/>
        <pt x="173" y="10" on="0"/>
        <pt x="182" y="10" on="1"/>
        <pt x="191" y="10" on="1"/>
        <pt x="191" y="0" on="1"/>
        <pt x="-10" y="0" on="1"/>
        <pt x="-10" y="10" on="1"/>
        <pt x="-1" y="10" on="1"/>
        <pt x="21" y="10" on="0"/>
        <pt x="68" y="37" on="0"/>
        <pt x="84" y="68" on="1"/>
        <pt x="332" y="662" on="1"/>
        <pt x="315" y="685" on="0"/>
        <pt x="275" y="721" on="0"/>
        <pt x="223" y="739" on="0"/>
        <pt x="160" y="738" on="0"/>
        <pt x="121" y="724" on="1"/>
        <pt x="118" y="734" on="1"/>
        <pt x="177" y="759" on="0"/>
        <pt x="268" y="763" on="0"/>
        <pt x="339" y="735" on="0"/>
        <pt x="391" y="680" on="0"/>
        <pt x="430" y="612" on="0"/>
        <pt x="460" y="536" on="0"/>
        <pt x="472" y="501" on="1"/>
        <pt x="594" y="155" on="1"/>
        <pt x="608" y="115" on="0"/>
        <pt x="646" y="27" on="0"/>
        <pt x="694" y="-56" on="0"/>
        <pt x="751" y="-129" on="0"/>
        <pt x="820" y="-179" on="0"/>
        <pt x="899" y="-201" on="0"/>
        <pt x="944" y="-191" on="1"/>
      </contour>
      <contour>
        <pt x="478" y="281" on="1"/>
        <pt x="399" y="514" on="1"/>
        <pt x="390" y="540" on="0"/>
        <pt x="370" y="594" on="0"/>
        <pt x="357" y="619" on="1"/>
        <pt x="225" y="281" on="1"/>
      </contour>
    </TTGlyph>
    <TTGlyph name="Atilde" xMin="-10" yMin="0" xMax="723" yMax="852">
      <component glyphName="A" x="0" y="0" flags="0x204"/>
      <component glyphName="tilde" x="80" y="64" flags="0x4"/>
    </TTGlyph>
    <TTGlyph name="Atilde.001" xMin="-10" yMin="-223" xMax="945" yMax="862">
      <contour>
        <pt x="502" y="853" on="1"/>
        <pt x="498" y="816" on="0"/>
        <pt x="463" y="774" on="0"/>
        <pt x="437" y="774" on="1"/>
        <pt x="421" y="774" on="0"/>
        <pt x="388" y="788" on="0"/>
        <pt x="357" y="804" on="0"/>
        <pt x="328" y="818" on="0"/>
        <pt x="316" y="818" on="1"/>
        <pt x="278" y="818" on="0"/>
        <pt x="262" y="777" on="1"/>
        <pt x="252" y="777" on="1"/>
        <pt x="258" y="817" on="0"/>
        <pt x="292" y="862" on="0"/>
        <pt x="316" y="862" on="1"/>
        <pt x="333" y="862" on="0"/>
        <pt x="366" y="849" on="0"/>
        <pt x="396" y="832" on="0"/>
        <pt x="424" y="819" on="0"/>
        <pt x="437" y="819" on="1"/>
        <pt x="479" y="819" on="0"/>
        <pt x="492" y="853" on="1"/>
      </contour>
      <contour>
        <pt x="944" y="-191" on="1"/>
        <pt x="899" y="-201" on="0"/>
        <pt x="820" y="-179" on="0"/>
        <pt x="751" y="-129" on="0"/>
        <pt x="694" y="-56" on="0"/>
        <pt x="646" y="27" on="0"/>
        <pt x="608" y="115" on="0"/>
        <pt x="594" y="155" on="1"/>
        <pt x="472" y="501" on="1"/>
        <pt x="460" y="536" on="0"/>
        <pt x="430" y="612" on="0"/>
        <pt x="391" y="680" on="0"/>
        <pt x="339" y="735" on="0"/>
        <pt x="268" y="763" on="0"/>
        <pt x="177" y="759" on="0"/>
        <pt x="118" y="734" on="1"/>
        <pt x="121" y="724" on="1"/>
        <pt x="160" y="738" on="0"/>
        <pt x="223" y="739" on="0"/>
        <pt x="275" y="721" on="0"/>
        <pt x="315" y="685" on="0"/>
        <pt x="332" y="662" on="1"/>
        <pt x="84" y="68" on="1"/>
        <pt x="68" y="37" on="0"/>
        <pt x="21" y="10" on="0"/>
        <pt x="-1" y="10" on="1"/>
        <pt x="-10" y="10" on="1"/>
        <pt x="-10" y="0" on="1"/>
        <pt x="191" y="0" on="1"/>
        <pt x="191" y="10" on="1"/>
        <pt x="182" y="10" on="1"/>
        <pt x="173" y="10" on="0"/>
        <pt x="154" y="18" on="0"/>
        <pt x="142" y="35" on="0"/>
        <pt x="139" y="58" on="0"/>
        <pt x="144" y="73" on="1"/>
        <pt x="214" y="251" on="1"/>
        <pt x="488" y="251" on="1"/>
        <pt x="527" y="137" on="1"/>
        <pt x="565" y="24" on="0"/>
        <pt x="661" y="-126" on="0"/>
        <pt x="769" y="-207" on="0"/>
        <pt x="886" y="-223" on="0"/>
        <pt x="945" y="-201" on="1"/>
      </contour>
      <contour>
        <pt x="225" y="281" on="1"/>
        <pt x="357" y="619" on="1"/>
        <pt x="370" y="594" on="0"/>
        <pt x="390" y="540" on="0"/>
        <pt x="399" y="514" on="1"/>
        <pt x="478" y="281" on="1"/>
      </contour>
    </TTGlyph>
    <TTGlyph name="B" xMin="60" yMin="0" xMax="537" yMax="700">
      <contour>
        <pt x="259" y="700" on="1"/>
        <pt x="365" y="700" on="0"/>
        <pt x="476" y="608" on="0"/>
        <pt x="476" y="533" on="1"/>
        <pt x="476" y="501" on="0"/>
        <pt x="457" y="450" on="0"/>
        <pt x="427" y="412" on="0"/>
        <pt x="387" y="387" on="0"/>
        <pt x="366" y="381" on="1"/>
        <pt x="406" y="375" on="0"/>
        <pt x="469" y="341" on="0"/>
        <pt x="513" y="290" on="0"/>
        <pt x="537" y="225" on="0"/>
        <pt x="537" y="188" on="1"/>
        <pt x="537" y="103" on="0"/>
        <pt x="416" y="0" on="0"/>
        <pt x="304" y="0" on="1"/>
        <pt x="193" y="0" on="1"/>
        <pt x="194" y="36" on="1"/>
        <pt x="300" y="36" on="1"/>
        <pt x="378" y="36" on="0"/>
        <pt x="462" y="119" on="0"/>
        <pt x="462" y="195" on="1"/>
        <pt x="462" y="251" on="0"/>
        <pt x="419" y="320" on="0"/>
        <pt x="352" y="357" on="0"/>
        <pt x="272" y="370" on="0"/>
        <pt x="236" y="370" on="1"/>
        <pt x="236" y="379" on="1"/>
        <pt x="259" y="379" on="0"/>
        <pt x="316" y="389" on="0"/>
        <pt x="367" y="420" on="0"/>
        <pt x="401" y="478" on="0"/>
        <pt x="401" y="526" on="1"/>
        <pt x="401" y="594" on="0"/>
        <pt x="327" y="668" on="0"/>
        <pt x="255" y="668" on="1"/>
        <pt x="163" y="668" on="1"/>
        <pt x="162" y="670" on="0"/>
        <pt x="161" y="673" on="1"/>
        <pt x="160" y="676" on="0"/>
        <pt x="158" y="684" on="1"/>
        <pt x="155" y="691" on="0"/>
        <pt x="153" y="700" on="1"/>
      </contour>
      <contour>
        <pt x="202" y="700" on="1"/>
        <pt x="202" y="0" on="1"/>
        <pt x="137" y="0" on="1"/>
        <pt x="137" y="700" on="1"/>
      </contour>
      <contour>
        <pt x="140" y="73" on="1"/>
        <pt x="140" y="0" on="1"/>
        <pt x="60" y="0" on="1"/>
        <pt x="61" y="10" on="1"/>
        <pt x="73" y="10" on="1"/>
        <pt x="99" y="10" on="0"/>
        <pt x="137" y="47" on="0"/>
        <pt x="137" y="73" on="1"/>
      </contour>
      <contour>
        <pt x="140" y="627" on="1"/>
        <pt x="137" y="627" on="1"/>
        <pt x="137" y="653" on="0"/>
        <pt x="99" y="690" on="0"/>
        <pt x="73" y="690" on="1"/>
        <pt x="61" y="690" on="1"/>
        <pt x="60" y="700" on="1"/>
        <pt x="140" y="700" on="1"/>
      </contour>
    </TTGlyph>
    <TTGlyph name="B.001" xMin="-2" yMin="-14" xMax="554" yMax="700">
      <contour>
        <pt x="226" y="700" on="1"/>
        <pt x="272" y="700" on="0"/>
        <pt x="348" y="678" on="0"/>
        <pt x="403" y="636" on="0"/>
        <pt x="433" y="576" on="0"/>
        <pt x="433" y="538" on="1"/>
        <pt x="433" y="490" on="0"/>
        <pt x="389" y="422" on="0"/>
        <pt x="354" y="408" on="1"/>
        <pt x="404" y="400" on="0"/>
        <pt x="479" y="364" on="0"/>
        <pt x="529" y="310" on="0"/>
        <pt x="554" y="242" on="0"/>
        <pt x="554" y="203" on="1"/>
        <pt x="554" y="154" on="0"/>
        <pt x="513" y="74" on="0"/>
        <pt x="439" y="17" on="0"/>
        <pt x="334" y="-14" on="0"/>
        <pt x="271" y="-14" on="1"/>
        <pt x="210" y="-14" on="0"/>
        <pt x="108" y="17" on="0"/>
        <pt x="36" y="79" on="0"/>
        <pt x="-2" y="173" on="0"/>
        <pt x="0" y="236" on="1"/>
        <pt x="11" y="238" on="1"/>
        <pt x="22" y="157" on="0"/>
        <pt x="86" y="66" on="0"/>
        <pt x="135" y="46" on="1"/>
        <pt x="135" y="628" on="1"/>
        <pt x="133" y="656" on="0"/>
        <pt x="95" y="690" on="0"/>
        <pt x="70" y="690" on="1"/>
        <pt x="58" y="690" on="1"/>
        <pt x="58" y="700" on="1"/>
      </contour>
      <contour>
        <pt x="200" y="28" on="1"/>
        <pt x="234" y="22" on="0"/>
        <pt x="275" y="22" on="1"/>
        <pt x="325" y="22" on="0"/>
        <pt x="401" y="50" on="0"/>
        <pt x="453" y="100" on="0"/>
        <pt x="479" y="168" on="0"/>
        <pt x="479" y="208" on="1"/>
        <pt x="479" y="266" on="0"/>
        <pt x="429" y="337" on="0"/>
        <pt x="356" y="376" on="0"/>
        <pt x="270" y="390" on="0"/>
        <pt x="234" y="390" on="1"/>
        <pt x="233" y="399" on="1"/>
        <pt x="255" y="399" on="0"/>
        <pt x="300" y="413" on="0"/>
        <pt x="336" y="445" on="0"/>
        <pt x="358" y="498" on="0"/>
        <pt x="358" y="536" on="1"/>
        <pt x="358" y="606" on="0"/>
        <pt x="282" y="668" on="0"/>
        <pt x="213" y="668" on="1"/>
        <pt x="200" y="668" on="1"/>
      </contour>
    </TTGlyph>
    <TTGlyph name="C" xMin="60" yMin="-14" xMax="710" yMax="714">
      <contour>
        <pt x="710" y="292" on="1"/>
        <pt x="698" y="135" on="1"/>
        <pt x="658" y="70" on="0"/>
        <pt x="521" y="-14" on="0"/>
        <pt x="417" y="-14" on="1"/>
        <pt x="339" y="-14" on="0"/>
        <pt x="207" y="38" on="0"/>
        <pt x="113" y="134" on="0"/>
        <pt x="60" y="268" on="0"/>
        <pt x="60" y="351" on="1"/>
        <pt x="60" y="432" on="0"/>
        <pt x="112" y="566" on="0"/>
        <pt x="206" y="662" on="0"/>
        <pt x="340" y="714" on="0"/>
        <pt x="423" y="714" on="1"/>
        <pt x="497" y="714" on="0"/>
        <pt x="615" y="675" on="0"/>
        <pt x="660" y="646" on="1"/>
        <pt x="680" y="505" on="1"/>
        <pt x="671" y="505" on="1"/>
        <pt x="648" y="593" on="0"/>
        <pt x="514" y="684" on="0"/>
        <pt x="423" y="684" on="1"/>
        <pt x="357" y="684" on="0"/>
        <pt x="250" y="636" on="0"/>
        <pt x="175" y="549" on="0"/>
        <pt x="135" y="427" on="0"/>
        <pt x="135" y="352" on="1"/>
        <pt x="135" y="277" on="0"/>
        <pt x="176" y="154" on="0"/>
        <pt x="250" y="66" on="0"/>
        <pt x="354" y="17" on="0"/>
        <pt x="417" y="16" on="1"/>
        <pt x="470" y="16" on="0"/>
        <pt x="566" y="45" on="0"/>
        <pt x="642" y="110" on="0"/>
        <pt x="693" y="215" on="0"/>
        <pt x="702" y="292" on="1"/>
      </contour>
    </TTGlyph>
    <TTGlyph name="C.001" xMin="45" yMin="-14" xMax="799" yMax="714">
      <contour>
        <pt x="796" y="375" on="1"/>
        <pt x="799" y="278" on="0"/>
        <pt x="752" y="132" on="0"/>
        <pt x="659" y="35" on="0"/>
        <pt x="525" y="-14" on="0"/>
        <pt x="443" y="-14" on="1"/>
        <pt x="356" y="-14" on="0"/>
        <pt x="209" y="42" on="0"/>
        <pt x="104" y="140" on="0"/>
        <pt x="45" y="273" on="0"/>
        <pt x="45" y="351" on="1"/>
        <pt x="45" y="429" on="0"/>
        <pt x="103" y="561" on="0"/>
        <pt x="206" y="659" on="0"/>
        <pt x="346" y="714" on="0"/>
        <pt x="429" y="714" on="1"/>
        <pt x="463" y="714" on="0"/>
        <pt x="534" y="704" on="0"/>
        <pt x="602" y="686" on="0"/>
        <pt x="662" y="661" on="0"/>
        <pt x="685" y="646" on="1"/>
        <pt x="705" y="505" on="1"/>
        <pt x="696" y="505" on="1"/>
        <pt x="685" y="549" on="0"/>
        <pt x="632" y="616" on="0"/>
        <pt x="560" y="661" on="0"/>
        <pt x="474" y="684" on="0"/>
        <pt x="430" y="684" on="1"/>
        <pt x="363" y="684" on="0"/>
        <pt x="250" y="634" on="0"/>
        <pt x="167" y="545" on="0"/>
        <pt x="120" y="424" on="0"/>
        <pt x="120" y="353" on="1"/>
        <pt x="120" y="282" on="0"/>
        <pt x="167" y="159" on="0"/>
        <pt x="253" y="68" on="0"/>
        <pt x="374" y="16" on="0"/>
        <pt x="448" y="16" on="1"/>
        <pt x="522" y="16" on="0"/>
        <pt x="646" y="65" on="0"/>
        <pt x="736" y="157" on="0"/>
        <pt x="786" y="290" on="0"/>
        <pt x="786" y="375" on="1"/>
      </contour>
    </TTGlyph>
    <TTGlyph name="Cacute" xMin="60" yMin="-14" xMax="710" yMax="902">
      <component glyphName="C" x="0" y="0" flags="0x204"/>
      <component glyphName="acute" x="209" y="18" flags="0x4"/>
    </TTGlyph>
    <TTGlyph name="Cacute.001" xMin="45" yMin="-14" xMax="799" yMax="902">
      <contour>
        <pt x="435" y="771" on="1"/>
        <pt x="467" y="806" on="0"/>
        <pt x="530" y="871" on="0"/>
        <pt x="562" y="902" on="1"/>
        <pt x="574" y="890" on="0"/>
        <pt x="595" y="864" on="0"/>
        <pt x="603" y="849" on="1"/>
        <pt x="522" y="803" on="0"/>
        <pt x="442" y="764" on="1"/>
      </contour>
      <contour>
        <pt x="796" y="375" on="1"/>
        <pt x="799" y="278" on="0"/>
        <pt x="752" y="132" on="0"/>
        <pt x="659" y="35" on="0"/>
        <pt x="525" y="-14" on="0"/>
        <pt x="443" y="-14" on="1"/>
        <pt x="356" y="-14" on="0"/>
        <pt x="209" y="42" on="0"/>
        <pt x="104" y="140" on="0"/>
        <pt x="45" y="273" on="0"/>
        <pt x="45" y="351" on="1"/>
        <pt x="45" y="429" on="0"/>
        <pt x="103" y="561" on="0"/>
        <pt x="206" y="659" on="0"/>
        <pt x="346" y="714" on="0"/>
        <pt x="429" y="714" on="1"/>
        <pt x="463" y="714" on="0"/>
        <pt x="534" y="704" on="0"/>
        <pt x="602" y="686" on="0"/>
        <pt x="662" y="661" on="0"/>
        <pt x="685" y="646" on="1"/>
        <pt x="705" y="505" on="1"/>
        <pt x="696" y="505" on="1"/>
        <pt x="685" y="549" on="0"/>
        <pt x="632" y="616" on="0"/>
        <pt x="560" y="661" on="0"/>
        <pt x="474" y="684" on="0"/>
        <pt x="430" y="684" on="1"/>
        <pt x="363" y="684" on="0"/>
        <pt x="250" y="634" on="0"/>
        <pt x="167" y="545" on="0"/>
        <pt x="120" y="424" on="0"/>
        <pt x="120" y="353" on="1"/>
        <pt x="120" y="282" on="0"/>
        <pt x="167" y="159" on="0"/>
        <pt x="253" y="68" on="0"/>
        <pt x="374" y="16" on="0"/>
        <pt x="448" y="16" on="1"/>
        <pt x="522" y="16" on="0"/>
        <pt x="646" y="65" on="0"/>
        <pt x="736" y="157" on="0"/>
        <pt x="786" y="290" on="0"/>
        <pt x="786" y="375" on="1"/>
      </contour>
    </TTGlyph>
    <TTGlyph name="Ccaron" xMin="60" yMin="-14" xMax="710" yMax="891">
      <component glyphName="C" x="0" y="0" flags="0x204"/>
      <component glyphName="caron" x="132" y="35" flags="0x4"/>
    </TTGlyph>
    <TTGlyph name="Ccaron.001" xMin="45" yMin="-14" xMax="799" yMax="891">
      <contour>
        <pt x="447" y="764" on="1"/>
        <pt x="437" y="764" on="1"/>
        <pt x="323" y="883" on="1"/>
        <pt x="329" y="891" on="1"/>
        <pt x="443" y="825" on="1"/>
        <pt x="547" y="891" on="1"/>
        <pt x="553" y="883" on="1"/>
      </contour>
      <contour>
        <pt x="786" y="375" on="1"/>
        <pt x="786" y="290" on="0"/>
        <pt x="736" y="157" on="0"/>
        <pt x="646" y="65" on="0"/>
        <pt x="522" y="16" on="0"/>
        <pt x="448" y="16" on="1"/>
        <pt x="374" y="16" on="0"/>
        <pt x="253" y="68" on="0"/>
        <pt x="167" y="159" on="0"/>
        <pt x="120" y="282" on="0"/>
        <pt x="120" y="353" on="1"/>
        <pt x="120" y="424" on="0"/>
        <pt x="167" y="545" on="0"/>
        <pt x="250" y="634" on="0"/>
        <pt x="363" y="684" on="0"/>
        <pt x="430" y="684" on="1"/>
        <pt x="474" y="684" on="0"/>
        <pt x="560" y="661" on="0"/>
        <pt x="632" y="616" on="0"/>
        <pt x="685" y="549" on="0"/>
        <pt x="696" y="505" on="1"/>
        <pt x="705" y="505" on="1"/>
        <pt x="685" y="646" on="1"/>
        <pt x="662" y="661" on="0"/>
        <pt x="602" y="686" on="0"/>
        <pt x="534" y="704" on="0"/>
        <pt x="463" y="714" on="0"/>
        <pt x="429" y="714" on="1"/>
        <pt x="346" y="714" on="0"/>
        <pt x="206" y="659" on="0"/>
        <pt x="103" y="561" on="0"/>
        <pt x="45" y="429" on="0"/>
        <pt x="45" y="351" on="1"/>
        <pt x="45" y="273" on="0"/>
        <pt x="104" y="140" on="0"/>
        <pt x="209" y="42" on="0"/>
        <pt x="356" y="-14" on="0"/>
        <pt x="443" y="-14" on="1"/>
        <pt x="525" y="-14" on="0"/>
        <pt x="659" y="35" on="0"/>
        <pt x="752" y="132" on="0"/>
        <pt x="799" y="278" on="0"/>
        <pt x="796" y="375" on="1"/>
      </contour>
    </TTGlyph>
    <TTGlyph name="Ccedilla" xMin="60" yMin="-195" xMax="710" yMax="714">
      <component glyphName="C" x="0" y="0" flags="0x204"/>
      <component glyphName="cedilla" x="112" y="-8" flags="0x4"/>
    </TTGlyph>
    <TTGlyph name="Ccedilla.001" xMin="45" yMin="-196" xMax="799" yMax="714">
      <contour>
        <pt x="796" y="375" on="1"/>
        <pt x="799" y="280" on="0"/>
        <pt x="754" y="136" on="0"/>
        <pt x="665" y="38" on="0"/>
        <pt x="536" y="-12" on="0"/>
        <pt x="456" y="-14" on="1"/>
        <pt x="419" y="-57" on="1"/>
        <pt x="432" y="-53" on="0"/>
        <pt x="468" y="-50" on="0"/>
        <pt x="500" y="-61" on="0"/>
        <pt x="523" y="-89" on="0"/>
        <pt x="524" y="-115" on="1"/>
        <pt x="525" y="-139" on="0"/>
        <pt x="500" y="-173" on="0"/>
        <pt x="459" y="-193" on="0"/>
        <pt x="408" y="-196" on="0"/>
        <pt x="383" y="-188" on="1"/>
        <pt x="384" y="-178" on="1"/>
        <pt x="399" y="-178" on="0"/>
        <pt x="432" y="-172" on="0"/>
        <pt x="458" y="-157" on="0"/>
        <pt x="475" y="-132" on="0"/>
        <pt x="474" y="-114" on="1"/>
        <pt x="473" y="-98" on="0"/>
        <pt x="457" y="-80" on="0"/>
        <pt x="433" y="-72" on="0"/>
        <pt x="403" y="-75" on="0"/>
        <pt x="390" y="-81" on="1"/>
        <pt x="385" y="-71" on="1"/>
        <pt x="429" y="-14" on="1"/>
        <pt x="344" y="-12" on="0"/>
        <pt x="203" y="46" on="0"/>
        <pt x="101" y="143" on="0"/>
        <pt x="45" y="275" on="0"/>
        <pt x="45" y="351" on="1"/>
        <pt x="45" y="429" on="0"/>
        <pt x="103" y="561" on="0"/>
        <pt x="206" y="659" on="0"/>
        <pt x="346" y="714" on="0"/>
        <pt x="429" y="714" on="1"/>
        <pt x="463" y="714" on="0"/>
        <pt x="534" y="704" on="0"/>
        <pt x="602" y="686" on="0"/>
        <pt x="662" y="661" on="0"/>
        <pt x="685" y="646" on="1"/>
        <pt x="705" y="505" on="1"/>
        <pt x="696" y="505" on="1"/>
        <pt x="685" y="549" on="0"/>
        <pt x="632" y="616" on="0"/>
        <pt x="560" y="661" on="0"/>
        <pt x="474" y="684" on="0"/>
        <pt x="430" y="684" on="1"/>
        <pt x="363" y="684" on="0"/>
        <pt x="250" y="634" on="0"/>
        <pt x="167" y="545" on="0"/>
        <pt x="120" y="424" on="0"/>
        <pt x="120" y="353" on="1"/>
        <pt x="120" y="282" on="0"/>
        <pt x="167" y="159" on="0"/>
        <pt x="253" y="68" on="0"/>
        <pt x="374" y="16" on="0"/>
        <pt x="448" y="16" on="1"/>
        <pt x="522" y="16" on="0"/>
        <pt x="646" y="65" on="0"/>
        <pt x="736" y="157" on="0"/>
        <pt x="786" y="290" on="0"/>
        <pt x="786" y="375" on="1"/>
      </contour>
    </TTGlyph>
    <TTGlyph name="Cdotaccent" xMin="60" yMin="-14" xMax="710" yMax="851">
      <component glyphName="C" x="0" y="0" flags="0x204"/>
      <component glyphName="dotaccent" x="115" y="64" flags="0x4"/>
    </TTGlyph>
    <TTGlyph name="Cdotaccent.001" xMin="45" yMin="-14" xMax="799" yMax="851">
      <contour>
        <pt x="484" y="808" on="1"/>
        <pt x="484" y="790" on="0"/>
        <pt x="459" y="765" on="0"/>
        <pt x="441" y="765" on="1"/>
        <pt x="423" y="765" on="0"/>
        <pt x="398" y="790" on="0"/>
        <pt x="398" y="808" on="1"/>
        <pt x="398" y="825" on="0"/>
        <pt x="423" y="851" on="0"/>
        <pt x="441" y="851" on="1"/>
        <pt x="459" y="851" on="0"/>
        <pt x="484" y="825" on="0"/>
      </contour>
      <contour>
        <pt x="796" y="375" on="1"/>
        <pt x="799" y="278" on="0"/>
        <pt x="752" y="132" on="0"/>
        <pt x="659" y="35" on="0"/>
        <pt x="525" y="-14" on="0"/>
        <pt x="443" y="-14" on="1"/>
        <pt x="356" y="-14" on="0"/>
        <pt x="209" y="42" on="0"/>
        <pt x="104" y="140" on="0"/>
        <pt x="45" y="273" on="0"/>
        <pt x="45" y="351" on="1"/>
        <pt x="45" y="429" on="0"/>
        <pt x="103" y="561" on="0"/>
        <pt x="206" y="659" on="0"/>
        <pt x="346" y="714" on="0"/>
        <pt x="429" y="714" on="1"/>
        <pt x="463" y="714" on="0"/>
        <pt x="534" y="704" on="0"/>
        <pt x="602" y="686" on="0"/>
        <pt x="662" y="661" on="0"/>
        <pt x="685" y="646" on="1"/>
        <pt x="705" y="505" on="1"/>
        <pt x="696" y="505" on="1"/>
        <pt x="685" y="549" on="0"/>
        <pt x="632" y="616" on="0"/>
        <pt x="560" y="661" on="0"/>
        <pt x="474" y="684" on="0"/>
        <pt x="430" y="684" on="1"/>
        <pt x="363" y="684" on="0"/>
        <pt x="250" y="634" on="0"/>
        <pt x="167" y="545" on="0"/>
        <pt x="120" y="424" on="0"/>
        <pt x="120" y="353" on="1"/>
        <pt x="120" y="282" on="0"/>
        <pt x="167" y="159" on="0"/>
        <pt x="253" y="68" on="0"/>
        <pt x="374" y="16" on="0"/>
        <pt x="448" y="16" on="1"/>
        <pt x="522" y="16" on="0"/>
        <pt x="646" y="65" on="0"/>
        <pt x="736" y="157" on="0"/>
        <pt x="786" y="290" on="0"/>
        <pt x="786" y="375" on="1"/>
      </contour>
    </TTGlyph>
    <TTGlyph name="D" xMin="60" yMin="0" xMax="758" yMax="700">
      <contour>
        <pt x="399" y="700" on="1"/>
        <pt x="479" y="700" on="0"/>
        <pt x="611" y="650" on="0"/>
        <pt x="706" y="558" on="0"/>
        <pt x="758" y="429" on="0"/>
        <pt x="758" y="350" on="1"/>
        <pt x="758" y="271" on="0"/>
        <pt x="706" y="142" on="0"/>
        <pt x="611" y="50" on="0"/>
        <pt x="479" y="0" on="0"/>
        <pt x="399" y="0" on="1"/>
        <pt x="185" y="0" on="1"/>
        <pt x="184" y="30" on="1"/>
        <pt x="399" y="30" on="1"/>
        <pt x="463" y="30" on="0"/>
        <pt x="568" y="76" on="0"/>
        <pt x="642" y="160" on="0"/>
        <pt x="683" y="278" on="0"/>
        <pt x="683" y="350" on="1"/>
        <pt x="683" y="422" on="0"/>
        <pt x="642" y="540" on="0"/>
        <pt x="567" y="624" on="0"/>
        <pt x="463" y="670" on="0"/>
        <pt x="399" y="670" on="1"/>
        <pt x="174" y="670" on="1"/>
        <pt x="174" y="700" on="1"/>
      </contour>
      <contour>
        <pt x="202" y="700" on="1"/>
        <pt x="202" y="0" on="1"/>
        <pt x="137" y="0" on="1"/>
        <pt x="137" y="700" on="1"/>
      </contour>
      <contour>
        <pt x="140" y="73" on="1"/>
        <pt x="140" y="0" on="1"/>
        <pt x="60" y="0" on="1"/>
        <pt x="60" y="10" on="1"/>
        <pt x="73" y="10" on="1"/>
        <pt x="99" y="10" on="0"/>
        <pt x="136" y="47" on="0"/>
        <pt x="137" y="73" on="1"/>
      </contour>
      <contour>
        <pt x="140" y="627" on="1"/>
        <pt x="137" y="627" on="1"/>
        <pt x="137" y="653" on="0"/>
        <pt x="99" y="690" on="0"/>
        <pt x="73" y="690" on="1"/>
        <pt x="61" y="690" on="1"/>
        <pt x="60" y="700" on="1"/>
        <pt x="140" y="700" on="1"/>
      </contour>
    </TTGlyph>
    <TTGlyph name="D.001" xMin="-100" yMin="0" xMax="779" yMax="704">
      <contour>
        <pt x="-100" y="554" on="1"/>
        <pt x="-85" y="599" on="0"/>
        <pt x="-37" y="655" on="0"/>
        <pt x="34" y="688" on="0"/>
        <pt x="131" y="702" on="0"/>
        <pt x="194" y="703" on="1"/>
        <pt x="242" y="704" on="0"/>
        <pt x="353" y="702" on="0"/>
        <pt x="420" y="700" on="1"/>
        <pt x="500" y="698" on="0"/>
        <pt x="632" y="647" on="0"/>
        <pt x="727" y="556" on="0"/>
        <pt x="779" y="429" on="0"/>
        <pt x="779" y="350" on="1"/>
        <pt x="779" y="271" on="0"/>
        <pt x="727" y="142" on="0"/>
        <pt x="632" y="50" on="0"/>
        <pt x="500" y="0" on="0"/>
        <pt x="420" y="0" on="1"/>
        <pt x="81" y="0" on="1"/>
        <pt x="82" y="10" on="1"/>
        <pt x="94" y="10" on="1"/>
        <pt x="119" y="10" on="0"/>
        <pt x="155" y="43" on="0"/>
        <pt x="158" y="67" on="1"/>
        <pt x="158" y="670" on="1"/>
        <pt x="93" y="668" on="0"/>
        <pt x="9" y="648" on="0"/>
        <pt x="-45" y="615" on="0"/>
        <pt x="-77" y="573" on="0"/>
        <pt x="-89" y="550" on="1"/>
      </contour>
      <contour>
        <pt x="223" y="30" on="1"/>
        <pt x="420" y="30" on="1"/>
        <pt x="484" y="30" on="0"/>
        <pt x="588" y="76" on="0"/>
        <pt x="663" y="160" on="0"/>
        <pt x="704" y="278" on="0"/>
        <pt x="704" y="350" on="1"/>
        <pt x="704" y="422" on="0"/>
        <pt x="663" y="540" on="0"/>
        <pt x="589" y="623" on="0"/>
        <pt x="484" y="669" on="0"/>
        <pt x="420" y="669" on="1"/>
        <pt x="223" y="670" on="1"/>
      </contour>
    </TTGlyph>
    <TTGlyph name="Dcaron" xMin="60" yMin="0" xMax="758" yMax="891">
      <component glyphName="D" x="0" y="0" flags="0x204"/>
      <component glyphName="caron" x="114" y="35" flags="0x4"/>
    </TTGlyph>
    <TTGlyph name="Dcaron.001" xMin="-100" yMin="0" xMax="779" yMax="891">
      <contour>
        <pt x="425" y="764" on="1"/>
        <pt x="415" y="764" on="1"/>
        <pt x="301" y="883" on="1"/>
        <pt x="307" y="891" on="1"/>
        <pt x="421" y="825" on="1"/>
        <pt x="525" y="891" on="1"/>
        <pt x="531" y="883" on="1"/>
      </contour>
      <contour>
        <pt x="-89" y="550" on="1"/>
        <pt x="-77" y="573" on="0"/>
        <pt x="-45" y="615" on="0"/>
        <pt x="9" y="648" on="0"/>
        <pt x="93" y="668" on="0"/>
        <pt x="158" y="670" on="1"/>
        <pt x="158" y="67" on="1"/>
        <pt x="155" y="43" on="0"/>
        <pt x="119" y="10" on="0"/>
        <pt x="94" y="10" on="1"/>
        <pt x="82" y="10" on="1"/>
        <pt x="81" y="0" on="1"/>
        <pt x="420" y="0" on="1"/>
        <pt x="500" y="0" on="0"/>
        <pt x="632" y="50" on="0"/>
        <pt x="727" y="142" on="0"/>
        <pt x="779" y="271" on="0"/>
        <pt x="779" y="350" on="1"/>
        <pt x="779" y="429" on="0"/>
        <pt x="727" y="556" on="0"/>
        <pt x="632" y="647" on="0"/>
        <pt x="500" y="698" on="0"/>
        <pt x="420" y="700" on="1"/>
        <pt x="353" y="702" on="0"/>
        <pt x="242" y="704" on="0"/>
        <pt x="194" y="703" on="1"/>
        <pt x="131" y="702" on="0"/>
        <pt x="34" y="688" on="0"/>
        <pt x="-37" y="655" on="0"/>
        <pt x="-85" y="599" on="0"/>
        <pt x="-100" y="554" on="1"/>
      </contour>
      <contour>
        <pt x="223" y="670" on="1"/>
        <pt x="420" y="670" on="1"/>
        <pt x="484" y="670" on="0"/>
        <pt x="589" y="624" on="0"/>
        <pt x="663" y="540" on="0"/>
        <pt x="704" y="422" on="0"/>
        <pt x="704" y="350" on="1"/>
        <pt x="704" y="278" on="0"/>
        <pt x="663" y="160" on="0"/>
        <pt x="588" y="76" on="0"/>
        <pt x="484" y="30" on="0"/>
        <pt x="420" y="30" on="1"/>
        <pt x="223" y="30" on="1"/>
      </contour>
    </TTGlyph>
    <TTGlyph name="Dcroat" xMin="60" yMin="0" xMax="758" yMax="830">
      <component glyphName="D" x="0" y="0" flags="0x204"/>
      <component glyphName="macron" x="106" y="92" flags="0x4"/>
    </TTGlyph>
    <TTGlyph name="Dcroat.001" xMin="-100" yMin="0" xMax="779" yMax="830">
      <contour>
        <pt x="298" y="830" on="1"/>
        <pt x="548" y="830" on="1"/>
        <pt x="548" y="795" on="1"/>
        <pt x="298" y="795" on="1"/>
      </contour>
      <contour>
        <pt x="-100" y="554" on="1"/>
        <pt x="-85" y="599" on="0"/>
        <pt x="-37" y="655" on="0"/>
        <pt x="34" y="688" on="0"/>
        <pt x="131" y="702" on="0"/>
        <pt x="194" y="703" on="1"/>
        <pt x="242" y="704" on="0"/>
        <pt x="353" y="702" on="0"/>
        <pt x="420" y="700" on="1"/>
        <pt x="500" y="698" on="0"/>
        <pt x="632" y="647" on="0"/>
        <pt x="727" y="556" on="0"/>
        <pt x="779" y="429" on="0"/>
        <pt x="779" y="350" on="1"/>
        <pt x="779" y="271" on="0"/>
        <pt x="727" y="142" on="0"/>
        <pt x="632" y="50" on="0"/>
        <pt x="500" y="0" on="0"/>
        <pt x="420" y="0" on="1"/>
        <pt x="81" y="0" on="1"/>
        <pt x="82" y="10" on="1"/>
        <pt x="94" y="10" on="1"/>
        <pt x="119" y="10" on="0"/>
        <pt x="155" y="43" on="0"/>
        <pt x="158" y="67" on="1"/>
        <pt x="158" y="670" on="1"/>
        <pt x="93" y="668" on="0"/>
        <pt x="9" y="648" on="0"/>
        <pt x="-45" y="615" on="0"/>
        <pt x="-77" y="573" on="0"/>
        <pt x="-89" y="550" on="1"/>
      </contour>
      <contour>
        <pt x="223" y="30" on="1"/>
        <pt x="420" y="30" on="1"/>
        <pt x="484" y="30" on="0"/>
        <pt x="588" y="76" on="0"/>
        <pt x="663" y="160" on="0"/>
        <pt x="704" y="278" on="0"/>
        <pt x="704" y="350" on="1"/>
        <pt x="704" y="422" on="0"/>
        <pt x="663" y="540" on="0"/>
        <pt x="589" y="624" on="0"/>
        <pt x="484" y="670" on="0"/>
        <pt x="420" y="670" on="1"/>
        <pt x="223" y="670" on="1"/>
      </contour>
    </TTGlyph>
    <TTGlyph name="E" xMin="60" yMin="0" xMax="533" yMax="718">
      <contour>
        <pt x="202" y="700" on="1"/>
        <pt x="202" y="0" on="1"/>
        <pt x="137" y="0" on="1"/>
        <pt x="137" y="700" on="1"/>
      </contour>
      <contour>
        <pt x="472" y="31" on="1"/>
        <pt x="472" y="0" on="1"/>
        <pt x="199" y="0" on="1"/>
        <pt x="199" y="31" on="1"/>
      </contour>
      <contour>
        <pt x="429" y="360" on="1"/>
        <pt x="429" y="330" on="1"/>
        <pt x="199" y="330" on="1"/>
        <pt x="199" y="360" on="1"/>
      </contour>
      <contour>
        <pt x="472" y="700" on="1"/>
        <pt x="472" y="669" on="1"/>
        <pt x="199" y="669" on="1"/>
        <pt x="199" y="700" on="1"/>
      </contour>
      <contour>
        <pt x="533" y="162" on="1"/>
        <pt x="475" y="0" on="1"/>
        <pt x="309" y="0" on="1"/>
        <pt x="345" y="31" on="1"/>
        <pt x="385" y="31" on="0"/>
        <pt x="442" y="50" on="0"/>
        <pt x="483" y="85" on="0"/>
        <pt x="511" y="133" on="0"/>
        <pt x="523" y="162" on="1"/>
      </contour>
      <contour>
        <pt x="429" y="332" on="1"/>
        <pt x="429" y="266" on="1"/>
        <pt x="419" y="266" on="1"/>
        <pt x="419" y="281" on="1"/>
        <pt x="419" y="301" on="0"/>
        <pt x="391" y="330" on="0"/>
        <pt x="371" y="330" on="1"/>
        <pt x="371" y="332" on="1"/>
      </contour>
      <contour>
        <pt x="429" y="424" on="1"/>
        <pt x="429" y="358" on="1"/>
        <pt x="371" y="358" on="1"/>
        <pt x="371" y="360" on="1"/>
        <pt x="391" y="361" on="0"/>
        <pt x="419" y="390" on="0"/>
        <pt x="419" y="410" on="1"/>
        <pt x="419" y="424" on="1"/>
      </contour>
      <contour>
        <pt x="472" y="672" on="1"/>
        <pt x="472" y="592" on="1"/>
        <pt x="462" y="592" on="1"/>
        <pt x="462" y="610" on="1"/>
        <pt x="462" y="634" on="0"/>
        <pt x="428" y="669" on="0"/>
        <pt x="403" y="670" on="1"/>
        <pt x="403" y="672" on="1"/>
      </contour>
      <contour>
        <pt x="472" y="689" on="1"/>
        <pt x="350" y="700" on="1"/>
        <pt x="366" y="700" on="0"/>
        <pt x="403" y="703" on="0"/>
        <pt x="437" y="709" on="0"/>
        <pt x="465" y="715" on="0"/>
        <pt x="472" y="718" on="1"/>
      </contour>
      <contour>
        <pt x="140" y="73" on="1"/>
        <pt x="140" y="0" on="1"/>
        <pt x="60" y="0" on="1"/>
        <pt x="60" y="10" on="1"/>
        <pt x="73" y="10" on="1"/>
        <pt x="99" y="10" on="0"/>
        <pt x="136" y="47" on="0"/>
        <pt x="137" y="73" on="1"/>
      </contour>
      <contour>
        <pt x="140" y="627" on="1"/>
        <pt x="137" y="627" on="1"/>
        <pt x="137" y="653" on="0"/>
        <pt x="99" y="690" on="0"/>
        <pt x="73" y="690" on="1"/>
        <pt x="61" y="690" on="1"/>
        <pt x="60" y="700" on="1"/>
        <pt x="140" y="700" on="1"/>
      </contour>
    </TTGlyph>
    <TTGlyph name="E.001" xMin="60" yMin="0" xMax="603" yMax="718">
      <contour>
        <pt x="545" y="0" on="1"/>
        <pt x="60" y="0" on="1"/>
        <pt x="60" y="10" on="1"/>
        <pt x="73" y="10" on="1"/>
        <pt x="99" y="10" on="0"/>
        <pt x="136" y="47" on="0"/>
        <pt x="137" y="73" on="1"/>
        <pt x="137" y="633" on="1"/>
        <pt x="137" y="657" on="0"/>
        <pt x="98" y="690" on="0"/>
        <pt x="73" y="690" on="1"/>
        <pt x="61" y="690" on="1"/>
        <pt x="60" y="700" on="1"/>
        <pt x="263" y="700" on="1"/>
        <pt x="279" y="700" on="0"/>
        <pt x="315" y="703" on="0"/>
        <pt x="348" y="709" on="0"/>
        <pt x="375" y="715" on="0"/>
        <pt x="382" y="718" on="1"/>
        <pt x="382" y="689" on="1"/>
        <pt x="382" y="672" on="1"/>
        <pt x="382" y="592" on="1"/>
        <pt x="372" y="592" on="1"/>
        <pt x="372" y="610" on="1"/>
        <pt x="372" y="634" on="0"/>
        <pt x="339" y="668" on="0"/>
        <pt x="316" y="669" on="1"/>
        <pt x="202" y="669" on="1"/>
        <pt x="202" y="360" on="1"/>
        <pt x="392" y="360" on="1"/>
        <pt x="412" y="361" on="0"/>
        <pt x="440" y="390" on="0"/>
        <pt x="440" y="410" on="1"/>
        <pt x="440" y="424" on="1"/>
        <pt x="450" y="424" on="1"/>
        <pt x="450" y="266" on="1"/>
        <pt x="440" y="266" on="1"/>
        <pt x="440" y="281" on="1"/>
        <pt x="440" y="301" on="0"/>
        <pt x="413" y="329" on="0"/>
        <pt x="393" y="330" on="1"/>
        <pt x="202" y="330" on="1"/>
        <pt x="202" y="31" on="1"/>
        <pt x="415" y="31" on="1"/>
        <pt x="455" y="31" on="0"/>
        <pt x="512" y="50" on="0"/>
        <pt x="553" y="85" on="0"/>
        <pt x="581" y="133" on="0"/>
        <pt x="593" y="162" on="1"/>
        <pt x="603" y="162" on="1"/>
      </contour>
    </TTGlyph>
    <TTGlyph name="Eacute" xMin="60" yMin="0" xMax="533" yMax="902">
      <component glyphName="E" x="0" y="0" flags="0x204"/>
      <component glyphName="acute" x="90" y="18" flags="0x4"/>
    </TTGlyph>
    <TTGlyph name="Eacute.001" xMin="60" yMin="0" xMax="603" yMax="902">
      <contour>
        <pt x="241" y="771" on="1"/>
        <pt x="273" y="806" on="0"/>
        <pt x="336" y="871" on="0"/>
        <pt x="368" y="902" on="1"/>
        <pt x="380" y="890" on="0"/>
        <pt x="401" y="864" on="0"/>
        <pt x="409" y="849" on="1"/>
        <pt x="328" y="803" on="0"/>
        <pt x="248" y="764" on="1"/>
      </contour>
      <contour>
        <pt x="545" y="0" on="1"/>
        <pt x="60" y="0" on="1"/>
        <pt x="60" y="10" on="1"/>
        <pt x="73" y="10" on="1"/>
        <pt x="99" y="10" on="0"/>
        <pt x="136" y="47" on="0"/>
        <pt x="137" y="73" on="1"/>
        <pt x="137" y="633" on="1"/>
        <pt x="137" y="657" on="0"/>
        <pt x="98" y="690" on="0"/>
        <pt x="73" y="690" on="1"/>
        <pt x="61" y="690" on="1"/>
        <pt x="60" y="700" on="1"/>
        <pt x="263" y="700" on="1"/>
        <pt x="279" y="700" on="0"/>
        <pt x="315" y="703" on="0"/>
        <pt x="348" y="709" on="0"/>
        <pt x="375" y="715" on="0"/>
        <pt x="382" y="718" on="1"/>
        <pt x="382" y="689" on="1"/>
        <pt x="382" y="672" on="1"/>
        <pt x="382" y="592" on="1"/>
        <pt x="372" y="592" on="1"/>
        <pt x="372" y="610" on="1"/>
        <pt x="372" y="634" on="0"/>
        <pt x="339" y="668" on="0"/>
        <pt x="316" y="669" on="1"/>
        <pt x="202" y="669" on="1"/>
        <pt x="202" y="360" on="1"/>
        <pt x="392" y="360" on="1"/>
        <pt x="412" y="361" on="0"/>
        <pt x="440" y="390" on="0"/>
        <pt x="440" y="410" on="1"/>
        <pt x="440" y="424" on="1"/>
        <pt x="450" y="424" on="1"/>
        <pt x="450" y="266" on="1"/>
        <pt x="440" y="266" on="1"/>
        <pt x="440" y="281" on="1"/>
        <pt x="440" y="301" on="0"/>
        <pt x="413" y="329" on="0"/>
        <pt x="393" y="330" on="1"/>
        <pt x="202" y="330" on="1"/>
        <pt x="202" y="31" on="1"/>
        <pt x="415" y="31" on="1"/>
        <pt x="455" y="31" on="0"/>
        <pt x="512" y="50" on="0"/>
        <pt x="553" y="85" on="0"/>
        <pt x="581" y="133" on="0"/>
        <pt x="593" y="162" on="1"/>
        <pt x="603" y="162" on="1"/>
      </contour>
    </TTGlyph>
    <TTGlyph name="Ecaron" xMin="60" yMin="0" xMax="533" yMax="891">
      <component glyphName="E" x="0" y="0" flags="0x204"/>
      <component glyphName="caron" x="13" y="35" flags="0x4"/>
    </TTGlyph>
    <TTGlyph name="Ecaron.001" xMin="60" yMin="0" xMax="603" yMax="891">
      <contour>
        <pt x="253" y="764" on="1"/>
        <pt x="243" y="764" on="1"/>
        <pt x="129" y="883" on="1"/>
        <pt x="135" y="891" on="1"/>
        <pt x="249" y="825" on="1"/>
        <pt x="353" y="891" on="1"/>
        <pt x="359" y="883" on="1"/>
      </contour>
      <contour>
        <pt x="603" y="162" on="1"/>
        <pt x="593" y="162" on="1"/>
        <pt x="581" y="133" on="0"/>
        <pt x="553" y="85" on="0"/>
        <pt x="512" y="50" on="0"/>
        <pt x="455" y="31" on="0"/>
        <pt x="415" y="31" on="1"/>
        <pt x="202" y="31" on="1"/>
        <pt x="202" y="330" on="1"/>
        <pt x="393" y="330" on="1"/>
        <pt x="413" y="329" on="0"/>
        <pt x="440" y="301" on="0"/>
        <pt x="440" y="281" on="1"/>
        <pt x="440" y="266" on="1"/>
        <pt x="450" y="266" on="1"/>
        <pt x="450" y="424" on="1"/>
        <pt x="440" y="424" on="1"/>
        <pt x="440" y="410" on="1"/>
        <pt x="440" y="390" on="0"/>
        <pt x="412" y="361" on="0"/>
        <pt x="392" y="360" on="1"/>
        <pt x="202" y="360" on="1"/>
        <pt x="202" y="669" on="1"/>
        <pt x="316" y="669" on="1"/>
        <pt x="339" y="668" on="0"/>
        <pt x="372" y="634" on="0"/>
        <pt x="372" y="610" on="1"/>
        <pt x="372" y="592" on="1"/>
        <pt x="382" y="592" on="1"/>
        <pt x="382" y="672" on="1"/>
        <pt x="382" y="689" on="1"/>
        <pt x="382" y="718" on="1"/>
        <pt x="375" y="715" on="0"/>
        <pt x="348" y="709" on="0"/>
        <pt x="315" y="703" on="0"/>
        <pt x="279" y="700" on="0"/>
        <pt x="263" y="700" on="1"/>
        <pt x="60" y="700" on="1"/>
        <pt x="61" y="690" on="1"/>
        <pt x="73" y="690" on="1"/>
        <pt x="98" y="690" on="0"/>
        <pt x="137" y="657" on="0"/>
        <pt x="137" y="633" on="1"/>
        <pt x="137" y="73" on="1"/>
        <pt x="136" y="47" on="0"/>
        <pt x="99" y="10" on="0"/>
        <pt x="73" y="10" on="1"/>
        <pt x="60" y="10" on="1"/>
        <pt x="60" y="0" on="1"/>
        <pt x="545" y="0" on="1"/>
      </contour>
    </TTGlyph>
    <TTGlyph name="Ecircumflex" xMin="60" yMin="0" xMax="533" yMax="890">
      <component glyphName="E" x="0" y="0" flags="0x204"/>
      <component glyphName="circumflex" x="21" y="34" flags="0x4"/>
    </TTGlyph>
    <TTGlyph name="Ecircumflex.001" xMin="60" yMin="0" xMax="603" yMax="890">
      <contour>
        <pt x="243" y="890" on="1"/>
        <pt x="253" y="890" on="1"/>
        <pt x="367" y="771" on="1"/>
        <pt x="361" y="763" on="1"/>
        <pt x="248" y="829" on="1"/>
        <pt x="143" y="763" on="1"/>
        <pt x="137" y="771" on="1"/>
      </contour>
      <contour>
        <pt x="603" y="162" on="1"/>
        <pt x="593" y="162" on="1"/>
        <pt x="581" y="133" on="0"/>
        <pt x="553" y="85" on="0"/>
        <pt x="512" y="50" on="0"/>
        <pt x="455" y="31" on="0"/>
        <pt x="415" y="31" on="1"/>
        <pt x="202" y="31" on="1"/>
        <pt x="202" y="330" on="1"/>
        <pt x="393" y="330" on="1"/>
        <pt x="413" y="329" on="0"/>
        <pt x="440" y="301" on="0"/>
        <pt x="440" y="281" on="1"/>
        <pt x="440" y="266" on="1"/>
        <pt x="450" y="266" on="1"/>
        <pt x="450" y="424" on="1"/>
        <pt x="440" y="424" on="1"/>
        <pt x="440" y="410" on="1"/>
        <pt x="440" y="390" on="0"/>
        <pt x="412" y="361" on="0"/>
        <pt x="392" y="360" on="1"/>
        <pt x="202" y="360" on="1"/>
        <pt x="202" y="669" on="1"/>
        <pt x="316" y="669" on="1"/>
        <pt x="339" y="668" on="0"/>
        <pt x="372" y="634" on="0"/>
        <pt x="372" y="610" on="1"/>
        <pt x="372" y="592" on="1"/>
        <pt x="382" y="592" on="1"/>
        <pt x="382" y="672" on="1"/>
        <pt x="382" y="689" on="1"/>
        <pt x="382" y="718" on="1"/>
        <pt x="375" y="715" on="0"/>
        <pt x="348" y="709" on="0"/>
        <pt x="315" y="703" on="0"/>
        <pt x="279" y="700" on="0"/>
        <pt x="263" y="700" on="1"/>
        <pt x="60" y="700" on="1"/>
        <pt x="61" y="690" on="1"/>
        <pt x="73" y="690" on="1"/>
        <pt x="98" y="690" on="0"/>
        <pt x="137" y="657" on="0"/>
        <pt x="137" y="633" on="1"/>
        <pt x="137" y="73" on="1"/>
        <pt x="136" y="47" on="0"/>
        <pt x="99" y="10" on="0"/>
        <pt x="73" y="10" on="1"/>
        <pt x="60" y="10" on="1"/>
        <pt x="60" y="0" on="1"/>
        <pt x="545" y="0" on="1"/>
      </contour>
    </TTGlyph>
    <TTGlyph name="Edieresis" xMin="60" yMin="0" xMax="533" yMax="842">
      <component glyphName="E" x="0" y="0" flags="0x204"/>
      <component glyphName="dieresis" x="17" y="64" flags="0x4"/>
    </TTGlyph>
    <TTGlyph name="Edieresis.001" xMin="60" yMin="0" xMax="603" yMax="842">
      <contour>
        <pt x="193" y="803" on="1"/>
        <pt x="193" y="787" on="0"/>
        <pt x="171" y="764" on="0"/>
        <pt x="154" y="764" on="1"/>
        <pt x="138" y="764" on="0"/>
        <pt x="115" y="787" on="0"/>
        <pt x="115" y="803" on="1"/>
        <pt x="115" y="820" on="0"/>
        <pt x="138" y="842" on="0"/>
        <pt x="154" y="842" on="1"/>
        <pt x="171" y="842" on="0"/>
        <pt x="193" y="820" on="0"/>
      </contour>
      <contour>
        <pt x="382" y="803" on="1"/>
        <pt x="382" y="787" on="0"/>
        <pt x="359" y="764" on="0"/>
        <pt x="342" y="764" on="1"/>
        <pt x="326" y="764" on="0"/>
        <pt x="303" y="787" on="0"/>
        <pt x="303" y="803" on="1"/>
        <pt x="303" y="820" on="0"/>
        <pt x="326" y="842" on="0"/>
        <pt x="342" y="842" on="1"/>
        <pt x="359" y="842" on="0"/>
        <pt x="382" y="820" on="0"/>
      </contour>
      <contour>
        <pt x="545" y="0" on="1"/>
        <pt x="60" y="0" on="1"/>
        <pt x="60" y="10" on="1"/>
        <pt x="73" y="10" on="1"/>
        <pt x="99" y="10" on="0"/>
        <pt x="136" y="47" on="0"/>
        <pt x="137" y="73" on="1"/>
        <pt x="137" y="633" on="1"/>
        <pt x="137" y="657" on="0"/>
        <pt x="98" y="690" on="0"/>
        <pt x="73" y="690" on="1"/>
        <pt x="61" y="690" on="1"/>
        <pt x="60" y="700" on="1"/>
        <pt x="263" y="700" on="1"/>
        <pt x="279" y="700" on="0"/>
        <pt x="315" y="703" on="0"/>
        <pt x="348" y="709" on="0"/>
        <pt x="375" y="715" on="0"/>
        <pt x="382" y="718" on="1"/>
        <pt x="382" y="689" on="1"/>
        <pt x="382" y="672" on="1"/>
        <pt x="382" y="592" on="1"/>
        <pt x="372" y="592" on="1"/>
        <pt x="372" y="610" on="1"/>
        <pt x="372" y="634" on="0"/>
        <pt x="339" y="668" on="0"/>
        <pt x="316" y="669" on="1"/>
        <pt x="202" y="669" on="1"/>
        <pt x="202" y="360" on="1"/>
        <pt x="392" y="360" on="1"/>
        <pt x="412" y="361" on="0"/>
        <pt x="440" y="390" on="0"/>
        <pt x="440" y="410" on="1"/>
        <pt x="440" y="424" on="1"/>
        <pt x="450" y="424" on="1"/>
        <pt x="450" y="266" on="1"/>
        <pt x="440" y="266" on="1"/>
        <pt x="440" y="281" on="1"/>
        <pt x="440" y="301" on="0"/>
        <pt x="413" y="329" on="0"/>
        <pt x="393" y="330" on="1"/>
        <pt x="202" y="330" on="1"/>
        <pt x="202" y="31" on="1"/>
        <pt x="415" y="31" on="1"/>
        <pt x="455" y="31" on="0"/>
        <pt x="512" y="50" on="0"/>
        <pt x="553" y="85" on="0"/>
        <pt x="581" y="133" on="0"/>
        <pt x="593" y="162" on="1"/>
        <pt x="603" y="162" on="1"/>
      </contour>
    </TTGlyph>
    <TTGlyph name="Edotaccent" xMin="60" yMin="0" xMax="533" yMax="851">
      <component glyphName="E" x="0" y="0" flags="0x204"/>
      <component glyphName="dotaccent" x="-2" y="64" flags="0x4"/>
    </TTGlyph>
    <TTGlyph name="Edotaccent.001" xMin="60" yMin="0" xMax="603" yMax="851">
      <contour>
        <pt x="290" y="808" on="1"/>
        <pt x="290" y="790" on="0"/>
        <pt x="265" y="765" on="0"/>
        <pt x="247" y="765" on="1"/>
        <pt x="229" y="765" on="0"/>
        <pt x="204" y="790" on="0"/>
        <pt x="204" y="808" on="1"/>
        <pt x="204" y="825" on="0"/>
        <pt x="229" y="851" on="0"/>
        <pt x="247" y="851" on="1"/>
        <pt x="265" y="851" on="0"/>
        <pt x="290" y="825" on="0"/>
      </contour>
      <contour>
        <pt x="545" y="0" on="1"/>
        <pt x="60" y="0" on="1"/>
        <pt x="60" y="10" on="1"/>
        <pt x="73" y="10" on="1"/>
        <pt x="99" y="10" on="0"/>
        <pt x="136" y="47" on="0"/>
        <pt x="137" y="73" on="1"/>
        <pt x="137" y="633" on="1"/>
        <pt x="137" y="657" on="0"/>
        <pt x="98" y="690" on="0"/>
        <pt x="73" y="690" on="1"/>
        <pt x="61" y="690" on="1"/>
        <pt x="60" y="700" on="1"/>
        <pt x="263" y="700" on="1"/>
        <pt x="279" y="700" on="0"/>
        <pt x="315" y="703" on="0"/>
        <pt x="348" y="709" on="0"/>
        <pt x="375" y="715" on="0"/>
        <pt x="382" y="718" on="1"/>
        <pt x="382" y="689" on="1"/>
        <pt x="382" y="672" on="1"/>
        <pt x="382" y="592" on="1"/>
        <pt x="372" y="592" on="1"/>
        <pt x="372" y="610" on="1"/>
        <pt x="372" y="634" on="0"/>
        <pt x="339" y="668" on="0"/>
        <pt x="316" y="669" on="1"/>
        <pt x="202" y="669" on="1"/>
        <pt x="202" y="360" on="1"/>
        <pt x="392" y="360" on="1"/>
        <pt x="412" y="361" on="0"/>
        <pt x="440" y="390" on="0"/>
        <pt x="440" y="410" on="1"/>
        <pt x="440" y="424" on="1"/>
        <pt x="450" y="424" on="1"/>
        <pt x="450" y="266" on="1"/>
        <pt x="440" y="266" on="1"/>
        <pt x="440" y="281" on="1"/>
        <pt x="440" y="301" on="0"/>
        <pt x="413" y="329" on="0"/>
        <pt x="393" y="330" on="1"/>
        <pt x="202" y="330" on="1"/>
        <pt x="202" y="31" on="1"/>
        <pt x="415" y="31" on="1"/>
        <pt x="455" y="31" on="0"/>
        <pt x="512" y="50" on="0"/>
        <pt x="553" y="85" on="0"/>
        <pt x="581" y="133" on="0"/>
        <pt x="593" y="162" on="1"/>
        <pt x="603" y="162" on="1"/>
      </contour>
    </TTGlyph>
    <TTGlyph name="Egrave" xMin="60" yMin="0" xMax="533" yMax="902">
      <component glyphName="E" x="0" y="0" flags="0x204"/>
      <component glyphName="grave" x="65" y="18" flags="0x4"/>
    </TTGlyph>
    <TTGlyph name="Egrave.001" xMin="60" yMin="0" xMax="603" yMax="902">
      <contour>
        <pt x="248" y="764" on="1"/>
        <pt x="208" y="783" on="0"/>
        <pt x="128" y="826" on="0"/>
        <pt x="87" y="849" on="1"/>
        <pt x="95" y="865" on="0"/>
        <pt x="117" y="891" on="0"/>
        <pt x="128" y="902" on="1"/>
        <pt x="160" y="871" on="0"/>
        <pt x="223" y="806" on="0"/>
        <pt x="255" y="771" on="1"/>
      </contour>
      <contour>
        <pt x="545" y="0" on="1"/>
        <pt x="60" y="0" on="1"/>
        <pt x="60" y="10" on="1"/>
        <pt x="73" y="10" on="1"/>
        <pt x="99" y="10" on="0"/>
        <pt x="136" y="47" on="0"/>
        <pt x="137" y="73" on="1"/>
        <pt x="137" y="633" on="1"/>
        <pt x="137" y="657" on="0"/>
        <pt x="98" y="690" on="0"/>
        <pt x="73" y="690" on="1"/>
        <pt x="61" y="690" on="1"/>
        <pt x="60" y="700" on="1"/>
        <pt x="263" y="700" on="1"/>
        <pt x="279" y="700" on="0"/>
        <pt x="315" y="703" on="0"/>
        <pt x="348" y="709" on="0"/>
        <pt x="375" y="715" on="0"/>
        <pt x="382" y="718" on="1"/>
        <pt x="382" y="689" on="1"/>
        <pt x="382" y="672" on="1"/>
        <pt x="382" y="592" on="1"/>
        <pt x="372" y="592" on="1"/>
        <pt x="372" y="610" on="1"/>
        <pt x="372" y="634" on="0"/>
        <pt x="339" y="668" on="0"/>
        <pt x="316" y="669" on="1"/>
        <pt x="202" y="669" on="1"/>
        <pt x="202" y="360" on="1"/>
        <pt x="392" y="360" on="1"/>
        <pt x="412" y="361" on="0"/>
        <pt x="440" y="390" on="0"/>
        <pt x="440" y="410" on="1"/>
        <pt x="440" y="424" on="1"/>
        <pt x="450" y="424" on="1"/>
        <pt x="450" y="266" on="1"/>
        <pt x="440" y="266" on="1"/>
        <pt x="440" y="281" on="1"/>
        <pt x="440" y="301" on="0"/>
        <pt x="413" y="329" on="0"/>
        <pt x="393" y="330" on="1"/>
        <pt x="202" y="330" on="1"/>
        <pt x="202" y="31" on="1"/>
        <pt x="415" y="31" on="1"/>
        <pt x="455" y="31" on="0"/>
        <pt x="512" y="50" on="0"/>
        <pt x="553" y="85" on="0"/>
        <pt x="581" y="133" on="0"/>
        <pt x="593" y="162" on="1"/>
        <pt x="603" y="162" on="1"/>
      </contour>
    </TTGlyph>
    <TTGlyph name="Emacron" xMin="60" yMin="0" xMax="533" yMax="830">
      <component glyphName="E" x="0" y="0" flags="0x204"/>
      <component glyphName="macron" x="5" y="92" flags="0x4"/>
    </TTGlyph>
    <TTGlyph name="Emacron.001" xMin="60" yMin="0" xMax="603" yMax="830">
      <contour>
        <pt x="126" y="830" on="1"/>
        <pt x="376" y="830" on="1"/>
        <pt x="376" y="795" on="1"/>
        <pt x="126" y="795" on="1"/>
      </contour>
      <contour>
        <pt x="545" y="0" on="1"/>
        <pt x="60" y="0" on="1"/>
        <pt x="60" y="10" on="1"/>
        <pt x="73" y="10" on="1"/>
        <pt x="99" y="10" on="0"/>
        <pt x="136" y="47" on="0"/>
        <pt x="137" y="73" on="1"/>
        <pt x="137" y="633" on="1"/>
        <pt x="137" y="657" on="0"/>
        <pt x="98" y="690" on="0"/>
        <pt x="73" y="690" on="1"/>
        <pt x="61" y="690" on="1"/>
        <pt x="60" y="700" on="1"/>
        <pt x="263" y="700" on="1"/>
        <pt x="279" y="700" on="0"/>
        <pt x="315" y="703" on="0"/>
        <pt x="348" y="709" on="0"/>
        <pt x="375" y="715" on="0"/>
        <pt x="382" y="718" on="1"/>
        <pt x="382" y="689" on="1"/>
        <pt x="382" y="672" on="1"/>
        <pt x="382" y="592" on="1"/>
        <pt x="372" y="592" on="1"/>
        <pt x="372" y="610" on="1"/>
        <pt x="372" y="634" on="0"/>
        <pt x="339" y="668" on="0"/>
        <pt x="316" y="669" on="1"/>
        <pt x="202" y="669" on="1"/>
        <pt x="202" y="360" on="1"/>
        <pt x="392" y="360" on="1"/>
        <pt x="412" y="361" on="0"/>
        <pt x="440" y="390" on="0"/>
        <pt x="440" y="410" on="1"/>
        <pt x="440" y="424" on="1"/>
        <pt x="450" y="424" on="1"/>
        <pt x="450" y="266" on="1"/>
        <pt x="440" y="266" on="1"/>
        <pt x="440" y="281" on="1"/>
        <pt x="440" y="301" on="0"/>
        <pt x="413" y="329" on="0"/>
        <pt x="393" y="330" on="1"/>
        <pt x="202" y="330" on="1"/>
        <pt x="202" y="31" on="1"/>
        <pt x="415" y="31" on="1"/>
        <pt x="455" y="31" on="0"/>
        <pt x="512" y="50" on="0"/>
        <pt x="553" y="85" on="0"/>
        <pt x="581" y="133" on="0"/>
        <pt x="593" y="162" on="1"/>
        <pt x="603" y="162" on="1"/>
      </contour>
    </TTGlyph>
    <TTGlyph name="Eng" xMin="45" yMin="-201" xMax="774" yMax="715">
      <contour>
        <pt x="115" y="715" on="1"/>
        <pt x="159" y="659" on="1"/>
        <pt x="160" y="0" on="1"/>
        <pt x="114" y="0" on="1"/>
        <pt x="114" y="590" on="1"/>
        <pt x="114" y="616" on="0"/>
        <pt x="111" y="661" on="0"/>
        <pt x="109" y="678" on="1"/>
        <pt x="107" y="698" on="0"/>
        <pt x="105" y="715" on="1"/>
      </contour>
      <contour>
        <pt x="117" y="65" on="1"/>
        <pt x="117" y="0" on="1"/>
        <pt x="45" y="0" on="1"/>
        <pt x="45" y="13" on="1"/>
        <pt x="61" y="13" on="1"/>
        <pt x="83" y="13" on="0"/>
        <pt x="114" y="43" on="0"/>
        <pt x="114" y="65" on="1"/>
      </contour>
      <contour>
        <pt x="160" y="65" on="1"/>
        <pt x="160" y="43" on="0"/>
        <pt x="191" y="13" on="0"/>
        <pt x="213" y="13" on="1"/>
        <pt x="229" y="13" on="1"/>
        <pt x="229" y="0" on="1"/>
        <pt x="157" y="0" on="1"/>
        <pt x="157" y="65" on="1"/>
      </contour>
      <contour>
        <pt x="703" y="-13" on="1"/>
        <pt x="124" y="605" on="1"/>
        <pt x="115" y="715" on="1"/>
        <pt x="696" y="96" on="1"/>
      </contour>
      <contour>
        <pt x="705" y="-32" on="1"/>
        <pt x="705" y="-73" on="0"/>
        <pt x="684" y="-132" on="0"/>
        <pt x="648" y="-172" on="0"/>
        <pt x="602" y="-196" on="0"/>
        <pt x="577" y="-201" on="1"/>
        <pt x="572" y="-193" on="1"/>
        <pt x="588" y="-186" on="0"/>
        <pt x="619" y="-160" on="0"/>
        <pt x="644" y="-121" on="0"/>
        <pt x="660" y="-66" on="0"/>
        <pt x="660" y="-30" on="1"/>
        <pt x="660" y="700" on="1"/>
        <pt x="705" y="700" on="1"/>
      </contour>
      <contour>
        <pt x="590" y="700" on="1"/>
        <pt x="662" y="700" on="1"/>
        <pt x="662" y="635" on="1"/>
        <pt x="659" y="635" on="1"/>
        <pt x="659" y="657" on="0"/>
        <pt x="628" y="687" on="0"/>
        <pt x="606" y="687" on="1"/>
        <pt x="590" y="687" on="1"/>
      </contour>
      <contour>
        <pt x="774" y="700" on="1"/>
        <pt x="774" y="687" on="1"/>
        <pt x="758" y="687" on="1"/>
        <pt x="736" y="687" on="0"/>
        <pt x="705" y="657" on="0"/>
        <pt x="705" y="635" on="1"/>
        <pt x="702" y="635" on="1"/>
        <pt x="702" y="700" on="1"/>
      </contour>
    </TTGlyph>
    <TTGlyph name="Eng.001" xMin="-158" yMin="-201" xMax="774" yMax="791">
      <contour>
        <pt x="774" y="700" on="1"/>
        <pt x="774" y="687" on="1"/>
        <pt x="758" y="687" on="1"/>
        <pt x="736" y="687" on="0"/>
        <pt x="706" y="657" on="0"/>
        <pt x="705" y="635" on="1"/>
        <pt x="705" y="-32" on="1"/>
        <pt x="705" y="-73" on="0"/>
        <pt x="684" y="-132" on="0"/>
        <pt x="648" y="-172" on="0"/>
        <pt x="602" y="-196" on="0"/>
        <pt x="577" y="-201" on="1"/>
        <pt x="572" y="-193" on="1"/>
        <pt x="588" y="-186" on="0"/>
        <pt x="619" y="-160" on="0"/>
        <pt x="644" y="-121" on="0"/>
        <pt x="660" y="-66" on="0"/>
        <pt x="660" y="-30" on="1"/>
        <pt x="660" y="33" on="1"/>
        <pt x="160" y="568" on="1"/>
        <pt x="160" y="65" on="1"/>
        <pt x="160" y="43" on="0"/>
        <pt x="191" y="13" on="0"/>
        <pt x="213" y="13" on="1"/>
        <pt x="229" y="13" on="1"/>
        <pt x="229" y="0" on="1"/>
        <pt x="45" y="0" on="1"/>
        <pt x="45" y="13" on="1"/>
        <pt x="61" y="13" on="1"/>
        <pt x="82" y="13" on="0"/>
        <pt x="112" y="42" on="0"/>
        <pt x="113" y="62" on="1"/>
        <pt x="113" y="625" on="1"/>
        <pt x="90" y="653" on="0"/>
        <pt x="34" y="711" on="0"/>
        <pt x="-32" y="752" on="0"/>
        <pt x="-110" y="769" on="0"/>
        <pt x="-154" y="756" on="1"/>
        <pt x="-158" y="766" on="1"/>
        <pt x="-98" y="791" on="0"/>
        <pt x="3" y="782" on="0"/>
        <pt x="89" y="736" on="0"/>
        <pt x="163" y="665" on="0"/>
        <pt x="197" y="628" on="1"/>
        <pt x="660" y="134" on="1"/>
        <pt x="659" y="635" on="1"/>
        <pt x="659" y="657" on="0"/>
        <pt x="628" y="687" on="0"/>
        <pt x="606" y="687" on="1"/>
        <pt x="590" y="687" on="1"/>
        <pt x="590" y="700" on="1"/>
      </contour>
    </TTGlyph>
    <TTGlyph name="Eogonek" xMin="60" yMin="-183" xMax="533" yMax="718">
      <component glyphName="E" x="0" y="0" flags="0x204"/>
      <component glyphName="ogonek" x="96" y="-12" flags="0x4"/>
    </TTGlyph>
    <TTGlyph name="Eogonek.001" xMin="60" yMin="-184" xMax="603" yMax="718">
      <contour>
        <pt x="545" y="0" on="1"/>
        <pt x="503" y="-10" on="0"/>
        <pt x="469" y="-49" on="0"/>
        <pt x="470" y="-78" on="1"/>
        <pt x="471" y="-99" on="0"/>
        <pt x="495" y="-132" on="0"/>
        <pt x="531" y="-147" on="0"/>
        <pt x="574" y="-139" on="0"/>
        <pt x="592" y="-120" on="1"/>
        <pt x="598" y="-126" on="1"/>
        <pt x="590" y="-147" on="0"/>
        <pt x="559" y="-173" on="0"/>
        <pt x="521" y="-184" on="0"/>
        <pt x="480" y="-179" on="0"/>
        <pt x="446" y="-157" on="0"/>
        <pt x="424" y="-118" on="0"/>
        <pt x="424" y="-89" on="1"/>
        <pt x="424" y="-56" on="0"/>
        <pt x="471" y="-8" on="0"/>
        <pt x="506" y="0" on="1"/>
        <pt x="60" y="0" on="1"/>
        <pt x="60" y="10" on="1"/>
        <pt x="73" y="10" on="1"/>
        <pt x="99" y="10" on="0"/>
        <pt x="136" y="47" on="0"/>
        <pt x="137" y="73" on="1"/>
        <pt x="137" y="633" on="1"/>
        <pt x="137" y="657" on="0"/>
        <pt x="98" y="690" on="0"/>
        <pt x="73" y="690" on="1"/>
        <pt x="61" y="690" on="1"/>
        <pt x="60" y="700" on="1"/>
        <pt x="263" y="700" on="1"/>
        <pt x="279" y="700" on="0"/>
        <pt x="315" y="703" on="0"/>
        <pt x="348" y="709" on="0"/>
        <pt x="375" y="715" on="0"/>
        <pt x="382" y="718" on="1"/>
        <pt x="382" y="689" on="1"/>
        <pt x="382" y="672" on="1"/>
        <pt x="382" y="592" on="1"/>
        <pt x="372" y="592" on="1"/>
        <pt x="372" y="610" on="1"/>
        <pt x="372" y="634" on="0"/>
        <pt x="339" y="668" on="0"/>
        <pt x="316" y="669" on="1"/>
        <pt x="202" y="669" on="1"/>
        <pt x="202" y="360" on="1"/>
        <pt x="392" y="360" on="1"/>
        <pt x="412" y="361" on="0"/>
        <pt x="440" y="390" on="0"/>
        <pt x="440" y="410" on="1"/>
        <pt x="440" y="424" on="1"/>
        <pt x="450" y="424" on="1"/>
        <pt x="450" y="266" on="1"/>
        <pt x="440" y="266" on="1"/>
        <pt x="440" y="281" on="1"/>
        <pt x="440" y="301" on="0"/>
        <pt x="413" y="329" on="0"/>
        <pt x="393" y="330" on="1"/>
        <pt x="202" y="330" on="1"/>
        <pt x="202" y="31" on="1"/>
        <pt x="415" y="31" on="1"/>
        <pt x="455" y="31" on="0"/>
        <pt x="512" y="50" on="0"/>
        <pt x="553" y="85" on="0"/>
        <pt x="581" y="133" on="0"/>
        <pt x="593" y="162" on="1"/>
        <pt x="603" y="162" on="1"/>
        <pt x="545" y="0" on="1"/>
      </contour>
    </TTGlyph>
    <TTGlyph name="Eth" xMin="60" yMin="0" xMax="758" yMax="700">
      <contour>
        <pt x="60" y="365" on="1"/>
        <pt x="370" y="365" on="1"/>
        <pt x="370" y="335" on="1"/>
        <pt x="60" y="335" on="1"/>
      </contour>
      <contour>
        <pt x="403" y="700" on="1"/>
        <pt x="483" y="700" on="0"/>
        <pt x="614" y="650" on="0"/>
        <pt x="707" y="558" on="0"/>
        <pt x="758" y="429" on="0"/>
        <pt x="758" y="350" on="1"/>
        <pt x="758" y="271" on="0"/>
        <pt x="707" y="142" on="0"/>
        <pt x="614" y="50" on="0"/>
        <pt x="483" y="0" on="0"/>
        <pt x="403" y="0" on="1"/>
        <pt x="190" y="0" on="1"/>
        <pt x="189" y="30" on="1"/>
        <pt x="403" y="30" on="1"/>
        <pt x="467" y="30" on="0"/>
        <pt x="572" y="76" on="0"/>
        <pt x="647" y="160" on="0"/>
        <pt x="688" y="278" on="0"/>
        <pt x="688" y="350" on="1"/>
        <pt x="688" y="422" on="0"/>
        <pt x="647" y="540" on="0"/>
        <pt x="572" y="624" on="0"/>
        <pt x="467" y="670" on="0"/>
        <pt x="403" y="670" on="1"/>
        <pt x="179" y="670" on="1"/>
        <pt x="179" y="700" on="1"/>
      </contour>
      <contour>
        <pt x="207" y="700" on="1"/>
        <pt x="207" y="0" on="1"/>
        <pt x="142" y="0" on="1"/>
        <pt x="142" y="700" on="1"/>
      </contour>
      <contour>
        <pt x="145" y="73" on="1"/>
        <pt x="145" y="0" on="1"/>
        <pt x="65" y="0" on="1"/>
        <pt x="65" y="10" on="1"/>
        <pt x="78" y="10" on="1"/>
        <pt x="104" y="10" on="0"/>
        <pt x="141" y="47" on="0"/>
        <pt x="142" y="73" on="1"/>
      </contour>
      <contour>
        <pt x="145" y="627" on="1"/>
        <pt x="142" y="627" on="1"/>
        <pt x="141" y="653" on="0"/>
        <pt x="104" y="690" on="0"/>
        <pt x="78" y="690" on="1"/>
        <pt x="65" y="690" on="1"/>
        <pt x="65" y="700" on="1"/>
        <pt x="145" y="700" on="1"/>
      </contour>
    </TTGlyph>
    <TTGlyph name="Eth.001" xMin="-121" yMin="0" xMax="758" yMax="704">
      <contour>
        <pt x="-121" y="554" on="1"/>
        <pt x="-106" y="598" on="0"/>
        <pt x="-59" y="654" on="0"/>
        <pt x="10" y="687" on="0"/>
        <pt x="103" y="701" on="0"/>
        <pt x="165" y="703" on="1"/>
        <pt x="213" y="704" on="0"/>
        <pt x="329" y="702" on="0"/>
        <pt x="399" y="700" on="1"/>
        <pt x="479" y="698" on="0"/>
        <pt x="611" y="647" on="0"/>
        <pt x="706" y="556" on="0"/>
        <pt x="758" y="429" on="0"/>
        <pt x="758" y="350" on="1"/>
        <pt x="758" y="271" on="0"/>
        <pt x="706" y="142" on="0"/>
        <pt x="611" y="50" on="0"/>
        <pt x="479" y="0" on="0"/>
        <pt x="399" y="0" on="1"/>
        <pt x="60" y="0" on="1"/>
        <pt x="61" y="10" on="1"/>
        <pt x="73" y="10" on="1"/>
        <pt x="98" y="10" on="0"/>
        <pt x="134" y="43" on="0"/>
        <pt x="137" y="67" on="1"/>
        <pt x="137" y="335" on="1"/>
        <pt x="60" y="335" on="1"/>
        <pt x="60" y="365" on="1"/>
        <pt x="137" y="365" on="1"/>
        <pt x="137" y="669" on="1"/>
        <pt x="72" y="666" on="0"/>
        <pt x="-12" y="646" on="0"/>
        <pt x="-66" y="614" on="0"/>
        <pt x="-98" y="573" on="0"/>
        <pt x="-110" y="550" on="1"/>
      </contour>
      <contour>
        <pt x="202" y="30" on="1"/>
        <pt x="399" y="30" on="1"/>
        <pt x="463" y="30" on="0"/>
        <pt x="567" y="76" on="0"/>
        <pt x="642" y="160" on="0"/>
        <pt x="683" y="278" on="0"/>
        <pt x="683" y="350" on="1"/>
        <pt x="683" y="422" on="0"/>
        <pt x="642" y="540" on="0"/>
        <pt x="568" y="623" on="0"/>
        <pt x="463" y="669" on="0"/>
        <pt x="399" y="669" on="1"/>
        <pt x="202" y="670" on="1"/>
        <pt x="202" y="365" on="1"/>
        <pt x="370" y="365" on="1"/>
        <pt x="370" y="335" on="1"/>
        <pt x="202" y="335" on="1"/>
      </contour>
    </TTGlyph>
    <TTGlyph name="Euro" xMin="-10" yMin="-13" xMax="683" yMax="714">
      <contour>
        <pt x="96" y="350" on="1"/>
        <pt x="96" y="426" on="0"/>
        <pt x="153" y="559" on="0"/>
        <pt x="252" y="658" on="0"/>
        <pt x="386" y="714" on="0"/>
        <pt x="463" y="714" on="1"/>
        <pt x="539" y="714" on="0"/>
        <pt x="656" y="686" on="0"/>
        <pt x="682" y="655" on="1"/>
        <pt x="650" y="559" on="1"/>
        <pt x="640" y="559" on="1"/>
        <pt x="649" y="599" on="0"/>
        <pt x="616" y="649" on="0"/>
        <pt x="559" y="675" on="0"/>
        <pt x="490" y="684" on="0"/>
        <pt x="463" y="684" on="1"/>
        <pt x="401" y="684" on="0"/>
        <pt x="295" y="633" on="0"/>
        <pt x="216" y="543" on="0"/>
        <pt x="171" y="421" on="0"/>
        <pt x="171" y="351" on="1"/>
        <pt x="171" y="281" on="0"/>
        <pt x="216" y="159" on="0"/>
        <pt x="295" y="69" on="0"/>
        <pt x="401" y="17" on="0"/>
        <pt x="463" y="17" on="1"/>
        <pt x="556" y="17" on="0"/>
        <pt x="659" y="80" on="0"/>
        <pt x="673" y="154" on="1"/>
        <pt x="683" y="154" on="1"/>
        <pt x="682" y="49" on="1"/>
        <pt x="666" y="32" on="0"/>
        <pt x="617" y="9" on="0"/>
        <pt x="559" y="-6" on="0"/>
        <pt x="494" y="-13" on="0"/>
        <pt x="463" y="-13" on="1"/>
        <pt x="386" y="-13" on="0"/>
        <pt x="252" y="43" on="0"/>
        <pt x="153" y="141" on="0"/>
        <pt x="96" y="274" on="0"/>
      </contour>
      <contour>
        <pt x="1" y="414" on="1"/>
        <pt x="601" y="414" on="1"/>
        <pt x="590" y="384" on="1"/>
        <pt x="-10" y="384" on="1"/>
      </contour>
      <contour>
        <pt x="1" y="314" on="1"/>
        <pt x="566" y="314" on="1"/>
        <pt x="556" y="284" on="1"/>
        <pt x="-10" y="284" on="1"/>
      </contour>
    </TTGlyph>
    <TTGlyph name="Euro.001" xMin="-10" yMin="-13" xMax="683" yMax="714">
      <contour>
        <pt x="683" y="154" on="1"/>
        <pt x="682" y="49" on="1"/>
        <pt x="666" y="32" on="0"/>
        <pt x="617" y="9" on="0"/>
        <pt x="559" y="-6" on="0"/>
        <pt x="494" y="-13" on="0"/>
        <pt x="463" y="-13" on="1"/>
        <pt x="394" y="-13" on="0"/>
        <pt x="273" y="32" on="0"/>
        <pt x="177" y="111" on="0"/>
        <pt x="113" y="220" on="0"/>
        <pt x="102" y="284" on="1"/>
        <pt x="-10" y="284" on="1"/>
        <pt x="1" y="314" on="1"/>
        <pt x="97" y="314" on="1"/>
        <pt x="96" y="323" on="0"/>
        <pt x="96" y="341" on="0"/>
        <pt x="96" y="350" on="1"/>
        <pt x="96" y="358" on="0"/>
        <pt x="96" y="376" on="0"/>
        <pt x="97" y="384" on="1"/>
        <pt x="-10" y="384" on="1"/>
        <pt x="1" y="414" on="1"/>
        <pt x="101" y="414" on="1"/>
        <pt x="112" y="478" on="0"/>
        <pt x="176" y="588" on="0"/>
        <pt x="272" y="669" on="0"/>
        <pt x="394" y="714" on="0"/>
        <pt x="463" y="714" on="1"/>
        <pt x="539" y="714" on="0"/>
        <pt x="656" y="686" on="0"/>
        <pt x="682" y="655" on="1"/>
        <pt x="650" y="559" on="1"/>
        <pt x="640" y="559" on="1"/>
        <pt x="649" y="599" on="0"/>
        <pt x="616" y="649" on="0"/>
        <pt x="559" y="675" on="0"/>
        <pt x="490" y="684" on="0"/>
        <pt x="463" y="684" on="1"/>
        <pt x="409" y="684" on="0"/>
        <pt x="312" y="643" on="0"/>
        <pt x="237" y="571" on="0"/>
        <pt x="185" y="472" on="0"/>
        <pt x="176" y="414" on="1"/>
        <pt x="601" y="414" on="1"/>
        <pt x="590" y="384" on="1"/>
        <pt x="172" y="384" on="1"/>
        <pt x="171" y="376" on="0"/>
        <pt x="171" y="359" on="0"/>
        <pt x="171" y="351" on="1"/>
        <pt x="171" y="341" on="0"/>
        <pt x="171" y="323" on="0"/>
        <pt x="172" y="314" on="1"/>
        <pt x="566" y="314" on="1"/>
        <pt x="556" y="284" on="1"/>
        <pt x="176" y="284" on="1"/>
        <pt x="186" y="226" on="0"/>
        <pt x="238" y="128" on="0"/>
        <pt x="313" y="57" on="0"/>
        <pt x="409" y="17" on="0"/>
        <pt x="463" y="17" on="1"/>
        <pt x="556" y="17" on="0"/>
        <pt x="659" y="80" on="0"/>
        <pt x="673" y="154" on="1"/>
      </contour>
    </TTGlyph>
    <TTGlyph name="F" xMin="60" yMin="0" xMax="472" yMax="718">
      <contour>
        <pt x="202" y="700" on="1"/>
        <pt x="202" y="0" on="1"/>
        <pt x="137" y="0" on="1"/>
        <pt x="137" y="700" on="1"/>
      </contour>
      <contour>
        <pt x="429" y="360" on="1"/>
        <pt x="429" y="330" on="1"/>
        <pt x="199" y="330" on="1"/>
        <pt x="199" y="360" on="1"/>
      </contour>
      <contour>
        <pt x="472" y="700" on="1"/>
        <pt x="472" y="669" on="1"/>
        <pt x="199" y="669" on="1"/>
        <pt x="199" y="700" on="1"/>
      </contour>
      <contour>
        <pt x="429" y="332" on="1"/>
        <pt x="429" y="266" on="1"/>
        <pt x="419" y="266" on="1"/>
        <pt x="419" y="281" on="1"/>
        <pt x="419" y="301" on="0"/>
        <pt x="391" y="330" on="0"/>
        <pt x="371" y="330" on="1"/>
        <pt x="371" y="332" on="1"/>
      </contour>
      <contour>
        <pt x="429" y="424" on="1"/>
        <pt x="429" y="358" on="1"/>
        <pt x="371" y="358" on="1"/>
        <pt x="371" y="360" on="1"/>
        <pt x="391" y="361" on="0"/>
        <pt x="419" y="390" on="0"/>
        <pt x="419" y="410" on="1"/>
        <pt x="419" y="424" on="1"/>
      </contour>
      <contour>
        <pt x="472" y="672" on="1"/>
        <pt x="472" y="605" on="1"/>
        <pt x="462" y="605" on="1"/>
        <pt x="462" y="620" on="1"/>
        <pt x="462" y="640" on="0"/>
        <pt x="433" y="669" on="0"/>
        <pt x="413" y="669" on="1"/>
        <pt x="413" y="672" on="1"/>
      </contour>
      <contour>
        <pt x="472" y="689" on="1"/>
        <pt x="350" y="700" on="1"/>
        <pt x="366" y="700" on="0"/>
        <pt x="403" y="703" on="0"/>
        <pt x="437" y="709" on="0"/>
        <pt x="465" y="715" on="0"/>
        <pt x="472" y="718" on="1"/>
      </contour>
      <contour>
        <pt x="140" y="73" on="1"/>
        <pt x="140" y="0" on="1"/>
        <pt x="60" y="0" on="1"/>
        <pt x="60" y="10" on="1"/>
        <pt x="73" y="10" on="1"/>
        <pt x="99" y="10" on="0"/>
        <pt x="136" y="47" on="0"/>
        <pt x="137" y="73" on="1"/>
      </contour>
      <contour>
        <pt x="140" y="627" on="1"/>
        <pt x="137" y="627" on="1"/>
        <pt x="137" y="653" on="0"/>
        <pt x="99" y="690" on="0"/>
        <pt x="73" y="690" on="1"/>
        <pt x="61" y="690" on="1"/>
        <pt x="60" y="700" on="1"/>
        <pt x="140" y="700" on="1"/>
      </contour>
      <contour>
        <pt x="199" y="73" on="1"/>
        <pt x="202" y="73" on="1"/>
        <pt x="203" y="47" on="0"/>
        <pt x="240" y="10" on="0"/>
        <pt x="266" y="10" on="1"/>
        <pt x="279" y="10" on="1"/>
        <pt x="279" y="0" on="1"/>
        <pt x="199" y="0" on="1"/>
      </contour>
    </TTGlyph>
    <TTGlyph name="F.001" xMin="60" yMin="0" xMax="579" yMax="718">
      <contour>
        <pt x="579" y="424" on="1"/>
        <pt x="579" y="266" on="1"/>
        <pt x="569" y="266" on="1"/>
        <pt x="569" y="281" on="1"/>
        <pt x="569" y="301" on="0"/>
        <pt x="542" y="329" on="0"/>
        <pt x="522" y="330" on="1"/>
        <pt x="202" y="330" on="1"/>
        <pt x="202" y="73" on="1"/>
        <pt x="203" y="47" on="0"/>
        <pt x="240" y="10" on="0"/>
        <pt x="266" y="10" on="1"/>
        <pt x="279" y="10" on="1"/>
        <pt x="279" y="0" on="1"/>
        <pt x="60" y="0" on="1"/>
        <pt x="60" y="10" on="1"/>
        <pt x="73" y="10" on="1"/>
        <pt x="99" y="10" on="0"/>
        <pt x="136" y="47" on="0"/>
        <pt x="137" y="73" on="1"/>
        <pt x="137" y="633" on="1"/>
        <pt x="137" y="657" on="0"/>
        <pt x="98" y="690" on="0"/>
        <pt x="73" y="690" on="1"/>
        <pt x="61" y="690" on="1"/>
        <pt x="60" y="700" on="1"/>
        <pt x="353" y="700" on="1"/>
        <pt x="369" y="700" on="0"/>
        <pt x="405" y="703" on="0"/>
        <pt x="438" y="709" on="0"/>
        <pt x="465" y="715" on="0"/>
        <pt x="472" y="718" on="1"/>
        <pt x="472" y="689" on="1"/>
        <pt x="472" y="672" on="1"/>
        <pt x="472" y="605" on="1"/>
        <pt x="462" y="605" on="1"/>
        <pt x="462" y="620" on="1"/>
        <pt x="462" y="640" on="0"/>
        <pt x="433" y="669" on="0"/>
        <pt x="413" y="669" on="1"/>
        <pt x="202" y="669" on="1"/>
        <pt x="202" y="360" on="1"/>
        <pt x="521" y="360" on="1"/>
        <pt x="541" y="361" on="0"/>
        <pt x="569" y="390" on="0"/>
        <pt x="569" y="410" on="1"/>
        <pt x="569" y="424" on="1"/>
      </contour>
    </TTGlyph>
    <TTGlyph name="G" xMin="60" yMin="-14" xMax="774" yMax="714">
      <contour>
        <pt x="709" y="115" on="1"/>
        <pt x="692" y="92" on="0"/>
        <pt x="639" y="46" on="0"/>
        <pt x="567" y="9" on="0"/>
        <pt x="476" y="-14" on="0"/>
        <pt x="419" y="-14" on="1"/>
        <pt x="339" y="-14" on="0"/>
        <pt x="207" y="39" on="0"/>
        <pt x="113" y="134" on="0"/>
        <pt x="60" y="268" on="0"/>
        <pt x="60" y="350" on="1"/>
        <pt x="60" y="432" on="0"/>
        <pt x="113" y="566" on="0"/>
        <pt x="207" y="662" on="0"/>
        <pt x="339" y="714" on="0"/>
        <pt x="419" y="714" on="1"/>
        <pt x="502" y="714" on="0"/>
        <pt x="617" y="675" on="0"/>
        <pt x="662" y="646" on="1"/>
        <pt x="682" y="505" on="1"/>
        <pt x="673" y="505" on="1"/>
        <pt x="650" y="592" on="0"/>
        <pt x="519" y="684" on="0"/>
        <pt x="419" y="684" on="1"/>
        <pt x="356" y="684" on="0"/>
        <pt x="251" y="636" on="0"/>
        <pt x="176" y="548" on="0"/>
        <pt x="135" y="425" on="0"/>
        <pt x="135" y="350" on="1"/>
        <pt x="135" y="275" on="0"/>
        <pt x="176" y="152" on="0"/>
        <pt x="251" y="65" on="0"/>
        <pt x="356" y="16" on="0"/>
        <pt x="419" y="16" on="1"/>
        <pt x="485" y="16" on="0"/>
        <pt x="601" y="62" on="0"/>
        <pt x="644" y="103" on="1"/>
        <pt x="645" y="280" on="1"/>
        <pt x="645" y="302" on="0"/>
        <pt x="618" y="325" on="0"/>
        <pt x="594" y="325" on="1"/>
        <pt x="578" y="325" on="1"/>
        <pt x="578" y="335" on="1"/>
        <pt x="774" y="335" on="1"/>
        <pt x="774" y="325" on="1"/>
        <pt x="759" y="325" on="1"/>
        <pt x="707" y="325" on="0"/>
        <pt x="709" y="280" on="1"/>
      </contour>
    </TTGlyph>
    <TTGlyph name="G.001" xMin="60" yMin="-178" xMax="1117" yMax="714">
      <contour>
        <pt x="1117" y="-149" on="1"/>
        <pt x="1031" y="-178" on="0"/>
        <pt x="885" y="-171" on="0"/>
        <pt x="771" y="-113" on="0"/>
        <pt x="696" y="-10" on="0"/>
        <pt x="682" y="58" on="1"/>
        <pt x="642" y="28" on="0"/>
        <pt x="527" y="-14" on="0"/>
        <pt x="449" y="-14" on="1"/>
        <pt x="366" y="-14" on="0"/>
        <pt x="223" y="42" on="0"/>
        <pt x="119" y="139" on="0"/>
        <pt x="60" y="272" on="0"/>
        <pt x="60" y="350" on="1"/>
        <pt x="60" y="430" on="0"/>
        <pt x="119" y="564" on="0"/>
        <pt x="223" y="660" on="0"/>
        <pt x="366" y="714" on="0"/>
        <pt x="449" y="714" on="1"/>
        <pt x="532" y="714" on="0"/>
        <pt x="647" y="675" on="0"/>
        <pt x="692" y="646" on="1"/>
        <pt x="712" y="505" on="1"/>
        <pt x="703" y="505" on="1"/>
        <pt x="680" y="592" on="0"/>
        <pt x="549" y="684" on="0"/>
        <pt x="449" y="684" on="1"/>
        <pt x="382" y="684" on="0"/>
        <pt x="267" y="635" on="0"/>
        <pt x="183" y="546" on="0"/>
        <pt x="135" y="423" on="0"/>
        <pt x="135" y="350" on="1"/>
        <pt x="135" y="278" on="0"/>
        <pt x="183" y="156" on="0"/>
        <pt x="267" y="67" on="0"/>
        <pt x="382" y="16" on="0"/>
        <pt x="449" y="16" on="1"/>
        <pt x="515" y="16" on="0"/>
        <pt x="632" y="62" on="0"/>
        <pt x="674" y="103" on="1"/>
        <pt x="674" y="280" on="1"/>
        <pt x="674" y="325" on="0"/>
        <pt x="624" y="325" on="1"/>
        <pt x="608" y="325" on="1"/>
        <pt x="608" y="335" on="1"/>
        <pt x="804" y="335" on="1"/>
        <pt x="804" y="325" on="1"/>
        <pt x="789" y="325" on="1"/>
        <pt x="737" y="325" on="0"/>
        <pt x="739" y="280" on="1"/>
        <pt x="739" y="126" on="1"/>
        <pt x="746" y="-34" on="0"/>
        <pt x="939" y="-168" on="0"/>
        <pt x="1116" y="-139" on="1"/>
      </contour>
    </TTGlyph>
    <TTGlyph name="Gbreve" xMin="60" yMin="-14" xMax="774" yMax="868">
      <component glyphName="G" x="0" y="0" flags="0x204"/>
      <component glyphName="breve" x="199" y="14" flags="0x4"/>
    </TTGlyph>
    <TTGlyph name="Gbreve.001" xMin="60" yMin="-178" xMax="1117" yMax="868">
      <contour>
        <pt x="553" y="868" on="1"/>
        <pt x="553" y="847" on="0"/>
        <pt x="537" y="809" on="0"/>
        <pt x="508" y="780" on="0"/>
        <pt x="471" y="764" on="0"/>
        <pt x="450" y="764" on="1"/>
        <pt x="429" y="764" on="0"/>
        <pt x="392" y="780" on="0"/>
        <pt x="363" y="809" on="0"/>
        <pt x="347" y="847" on="0"/>
        <pt x="347" y="868" on="1"/>
        <pt x="357" y="868" on="1"/>
        <pt x="365" y="848" on="0"/>
        <pt x="415" y="814" on="0"/>
        <pt x="450" y="814" on="1"/>
        <pt x="485" y="814" on="0"/>
        <pt x="535" y="848" on="0"/>
        <pt x="543" y="868" on="1"/>
      </contour>
      <contour>
        <pt x="1117" y="-149" on="1"/>
        <pt x="1031" y="-178" on="0"/>
        <pt x="885" y="-171" on="0"/>
        <pt x="771" y="-113" on="0"/>
        <pt x="696" y="-10" on="0"/>
        <pt x="682" y="58" on="1"/>
        <pt x="642" y="28" on="0"/>
        <pt x="527" y="-14" on="0"/>
        <pt x="449" y="-14" on="1"/>
        <pt x="366" y="-14" on="0"/>
        <pt x="223" y="42" on="0"/>
        <pt x="119" y="139" on="0"/>
        <pt x="60" y="272" on="0"/>
        <pt x="60" y="350" on="1"/>
        <pt x="60" y="430" on="0"/>
        <pt x="119" y="564" on="0"/>
        <pt x="223" y="660" on="0"/>
        <pt x="366" y="714" on="0"/>
        <pt x="449" y="714" on="1"/>
        <pt x="532" y="714" on="0"/>
        <pt x="647" y="675" on="0"/>
        <pt x="692" y="646" on="1"/>
        <pt x="712" y="505" on="1"/>
        <pt x="703" y="505" on="1"/>
        <pt x="680" y="592" on="0"/>
        <pt x="549" y="684" on="0"/>
        <pt x="449" y="684" on="1"/>
        <pt x="382" y="684" on="0"/>
        <pt x="267" y="635" on="0"/>
        <pt x="183" y="546" on="0"/>
        <pt x="135" y="423" on="0"/>
        <pt x="135" y="350" on="1"/>
        <pt x="135" y="278" on="0"/>
        <pt x="183" y="156" on="0"/>
        <pt x="267" y="67" on="0"/>
        <pt x="382" y="16" on="0"/>
        <pt x="449" y="16" on="1"/>
        <pt x="515" y="16" on="0"/>
        <pt x="632" y="62" on="0"/>
        <pt x="674" y="103" on="1"/>
        <pt x="674" y="280" on="1"/>
        <pt x="674" y="325" on="0"/>
        <pt x="624" y="325" on="1"/>
        <pt x="608" y="325" on="1"/>
        <pt x="608" y="335" on="1"/>
        <pt x="804" y="335" on="1"/>
        <pt x="804" y="325" on="1"/>
        <pt x="789" y="325" on="1"/>
        <pt x="737" y="325" on="0"/>
        <pt x="739" y="280" on="1"/>
        <pt x="739" y="126" on="1"/>
        <pt x="746" y="-34" on="0"/>
        <pt x="939" y="-168" on="0"/>
        <pt x="1116" y="-139" on="1"/>
      </contour>
    </TTGlyph>
    <TTGlyph name="Gdotaccent" xMin="60" yMin="-14" xMax="774" yMax="851">
      <component glyphName="G" x="0" y="0" flags="0x204"/>
      <component glyphName="dotaccent" x="117" y="64" flags="0x4"/>
    </TTGlyph>
    <TTGlyph name="Gdotaccent.001" xMin="60" yMin="-178" xMax="1117" yMax="851">
      <contour>
        <pt x="491" y="808" on="1"/>
        <pt x="491" y="790" on="0"/>
        <pt x="466" y="765" on="0"/>
        <pt x="448" y="765" on="1"/>
        <pt x="430" y="765" on="0"/>
        <pt x="405" y="790" on="0"/>
        <pt x="405" y="808" on="1"/>
        <pt x="405" y="825" on="0"/>
        <pt x="430" y="851" on="0"/>
        <pt x="448" y="851" on="1"/>
        <pt x="466" y="851" on="0"/>
        <pt x="491" y="825" on="0"/>
      </contour>
      <contour>
        <pt x="1117" y="-149" on="1"/>
        <pt x="1031" y="-178" on="0"/>
        <pt x="885" y="-171" on="0"/>
        <pt x="771" y="-113" on="0"/>
        <pt x="696" y="-10" on="0"/>
        <pt x="682" y="58" on="1"/>
        <pt x="642" y="28" on="0"/>
        <pt x="527" y="-14" on="0"/>
        <pt x="449" y="-14" on="1"/>
        <pt x="366" y="-14" on="0"/>
        <pt x="223" y="42" on="0"/>
        <pt x="119" y="139" on="0"/>
        <pt x="60" y="272" on="0"/>
        <pt x="60" y="350" on="1"/>
        <pt x="60" y="430" on="0"/>
        <pt x="119" y="564" on="0"/>
        <pt x="223" y="660" on="0"/>
        <pt x="366" y="714" on="0"/>
        <pt x="449" y="714" on="1"/>
        <pt x="532" y="714" on="0"/>
        <pt x="647" y="675" on="0"/>
        <pt x="692" y="646" on="1"/>
        <pt x="712" y="505" on="1"/>
        <pt x="703" y="505" on="1"/>
        <pt x="680" y="592" on="0"/>
        <pt x="549" y="684" on="0"/>
        <pt x="449" y="684" on="1"/>
        <pt x="382" y="684" on="0"/>
        <pt x="267" y="635" on="0"/>
        <pt x="183" y="546" on="0"/>
        <pt x="135" y="423" on="0"/>
        <pt x="135" y="350" on="1"/>
        <pt x="135" y="278" on="0"/>
        <pt x="183" y="156" on="0"/>
        <pt x="267" y="67" on="0"/>
        <pt x="382" y="16" on="0"/>
        <pt x="449" y="16" on="1"/>
        <pt x="515" y="16" on="0"/>
        <pt x="632" y="62" on="0"/>
        <pt x="674" y="103" on="1"/>
        <pt x="674" y="280" on="1"/>
        <pt x="674" y="325" on="0"/>
        <pt x="624" y="325" on="1"/>
        <pt x="608" y="325" on="1"/>
        <pt x="608" y="335" on="1"/>
        <pt x="804" y="335" on="1"/>
        <pt x="804" y="325" on="1"/>
        <pt x="789" y="325" on="1"/>
        <pt x="737" y="325" on="0"/>
        <pt x="739" y="280" on="1"/>
        <pt x="739" y="126" on="1"/>
        <pt x="746" y="-34" on="0"/>
        <pt x="939" y="-168" on="0"/>
        <pt x="1116" y="-139" on="1"/>
      </contour>
    </TTGlyph>
    <TTGlyph name="H" xMin="60" yMin="0" xMax="753" yMax="700">
      <contour>
        <pt x="676" y="700" on="1"/>
        <pt x="676" y="0" on="1"/>
        <pt x="611" y="0" on="1"/>
        <pt x="611" y="700" on="1"/>
      </contour>
      <contour>
        <pt x="202" y="700" on="1"/>
        <pt x="202" y="0" on="1"/>
        <pt x="137" y="0" on="1"/>
        <pt x="137" y="700" on="1"/>
      </contour>
      <contour>
        <pt x="620" y="361" on="1"/>
        <pt x="620" y="331" on="1"/>
        <pt x="192" y="331" on="1"/>
        <pt x="192" y="361" on="1"/>
      </contour>
      <contour>
        <pt x="140" y="73" on="1"/>
        <pt x="140" y="0" on="1"/>
        <pt x="60" y="0" on="1"/>
        <pt x="60" y="10" on="1"/>
        <pt x="73" y="10" on="1"/>
        <pt x="99" y="10" on="0"/>
        <pt x="136" y="47" on="0"/>
        <pt x="137" y="73" on="1"/>
      </contour>
      <contour>
        <pt x="140" y="627" on="1"/>
        <pt x="137" y="627" on="1"/>
        <pt x="136" y="653" on="0"/>
        <pt x="99" y="690" on="0"/>
        <pt x="73" y="690" on="1"/>
        <pt x="60" y="690" on="1"/>
        <pt x="60" y="700" on="1"/>
        <pt x="140" y="700" on="1"/>
      </contour>
      <contour>
        <pt x="199" y="73" on="1"/>
        <pt x="202" y="73" on="1"/>
        <pt x="203" y="47" on="0"/>
        <pt x="240" y="10" on="0"/>
        <pt x="266" y="10" on="1"/>
        <pt x="279" y="10" on="1"/>
        <pt x="279" y="0" on="1"/>
        <pt x="199" y="0" on="1"/>
      </contour>
      <contour>
        <pt x="199" y="627" on="1"/>
        <pt x="199" y="700" on="1"/>
        <pt x="279" y="700" on="1"/>
        <pt x="279" y="690" on="1"/>
        <pt x="266" y="690" on="1"/>
        <pt x="240" y="690" on="0"/>
        <pt x="203" y="653" on="0"/>
        <pt x="202" y="627" on="1"/>
      </contour>
      <contour>
        <pt x="614" y="73" on="1"/>
        <pt x="614" y="0" on="1"/>
        <pt x="534" y="0" on="1"/>
        <pt x="534" y="10" on="1"/>
        <pt x="547" y="10" on="1"/>
        <pt x="573" y="10" on="0"/>
        <pt x="611" y="47" on="0"/>
        <pt x="611" y="73" on="1"/>
      </contour>
      <contour>
        <pt x="614" y="627" on="1"/>
        <pt x="611" y="627" on="1"/>
        <pt x="611" y="653" on="0"/>
        <pt x="573" y="690" on="0"/>
        <pt x="547" y="690" on="1"/>
        <pt x="534" y="690" on="1"/>
        <pt x="534" y="700" on="1"/>
        <pt x="614" y="700" on="1"/>
      </contour>
      <contour>
        <pt x="673" y="73" on="1"/>
        <pt x="676" y="73" on="1"/>
        <pt x="677" y="47" on="0"/>
        <pt x="714" y="10" on="0"/>
        <pt x="740" y="10" on="1"/>
        <pt x="753" y="10" on="1"/>
        <pt x="753" y="0" on="1"/>
        <pt x="673" y="0" on="1"/>
      </contour>
      <contour>
        <pt x="673" y="627" on="1"/>
        <pt x="673" y="700" on="1"/>
        <pt x="753" y="700" on="1"/>
        <pt x="753" y="690" on="1"/>
        <pt x="740" y="690" on="1"/>
        <pt x="714" y="690" on="0"/>
        <pt x="677" y="653" on="0"/>
        <pt x="676" y="627" on="1"/>
      </contour>
    </TTGlyph>
    <TTGlyph name="H.001" xMin="60" yMin="-151" xMax="754" yMax="831">
      <contour>
        <pt x="665" y="73" on="1"/>
        <pt x="665" y="47" on="0"/>
        <pt x="703" y="10" on="0"/>
        <pt x="729" y="10" on="1"/>
        <pt x="741" y="10" on="1"/>
        <pt x="741" y="0" on="1"/>
        <pt x="523" y="0" on="1"/>
        <pt x="523" y="10" on="1"/>
        <pt x="536" y="10" on="1"/>
        <pt x="562" y="10" on="0"/>
        <pt x="598" y="45" on="0"/>
        <pt x="600" y="71" on="1"/>
        <pt x="600" y="331" on="1"/>
        <pt x="213" y="331" on="1"/>
        <pt x="213" y="70" on="1"/>
        <pt x="213" y="13" on="0"/>
        <pt x="192" y="-64" on="0"/>
        <pt x="154" y="-115" on="0"/>
        <pt x="99" y="-143" on="0"/>
        <pt x="65" y="-151" on="1"/>
        <pt x="60" y="-142" on="1"/>
        <pt x="104" y="-119" on="0"/>
        <pt x="148" y="-20" on="0"/>
        <pt x="148" y="70" on="1"/>
        <pt x="148" y="628" on="1"/>
        <pt x="147" y="654" on="0"/>
        <pt x="110" y="690" on="0"/>
        <pt x="84" y="690" on="1"/>
        <pt x="72" y="690" on="1"/>
        <pt x="72" y="700" on="1"/>
        <pt x="290" y="700" on="1"/>
        <pt x="290" y="690" on="1"/>
        <pt x="277" y="690" on="1"/>
        <pt x="251" y="690" on="0"/>
        <pt x="214" y="654" on="0"/>
        <pt x="213" y="628" on="1"/>
        <pt x="213" y="361" on="1"/>
        <pt x="600" y="361" on="1"/>
        <pt x="600" y="610" on="1"/>
        <pt x="600" y="667" on="0"/>
        <pt x="621" y="744" on="0"/>
        <pt x="660" y="795" on="0"/>
        <pt x="714" y="823" on="0"/>
        <pt x="749" y="831" on="1"/>
        <pt x="754" y="822" on="1"/>
        <pt x="710" y="799" on="0"/>
        <pt x="666" y="700" on="0"/>
        <pt x="665" y="610" on="1"/>
      </contour>
    </TTGlyph>
    <TTGlyph name="Hbar" xMin="43" yMin="0" xMax="736" yMax="700">
      <contour>
        <pt x="725" y="528" on="1"/>
        <pt x="725" y="498" on="1"/>
        <pt x="56" y="498" on="1"/>
        <pt x="56" y="528" on="1"/>
      </contour>
      <contour>
        <pt x="659" y="700" on="1"/>
        <pt x="659" y="0" on="1"/>
        <pt x="594" y="0" on="1"/>
        <pt x="594" y="700" on="1"/>
      </contour>
      <contour>
        <pt x="185" y="700" on="1"/>
        <pt x="185" y="0" on="1"/>
        <pt x="120" y="0" on="1"/>
        <pt x="120" y="700" on="1"/>
      </contour>
      <contour>
        <pt x="603" y="361" on="1"/>
        <pt x="603" y="331" on="1"/>
        <pt x="174" y="331" on="1"/>
        <pt x="174" y="361" on="1"/>
      </contour>
      <contour>
        <pt x="122" y="73" on="1"/>
        <pt x="122" y="0" on="1"/>
        <pt x="43" y="0" on="1"/>
        <pt x="43" y="10" on="1"/>
        <pt x="56" y="10" on="1"/>
        <pt x="82" y="10" on="0"/>
        <pt x="119" y="47" on="0"/>
        <pt x="120" y="73" on="1"/>
      </contour>
      <contour>
        <pt x="122" y="627" on="1"/>
        <pt x="120" y="627" on="1"/>
        <pt x="119" y="653" on="0"/>
        <pt x="82" y="690" on="0"/>
        <pt x="56" y="690" on="1"/>
        <pt x="43" y="690" on="1"/>
        <pt x="43" y="700" on="1"/>
        <pt x="122" y="700" on="1"/>
      </contour>
      <contour>
        <pt x="182" y="73" on="1"/>
        <pt x="185" y="73" on="1"/>
        <pt x="185" y="47" on="0"/>
        <pt x="223" y="10" on="0"/>
        <pt x="249" y="10" on="1"/>
        <pt x="261" y="10" on="1"/>
        <pt x="261" y="0" on="1"/>
        <pt x="182" y="0" on="1"/>
      </contour>
      <contour>
        <pt x="182" y="627" on="1"/>
        <pt x="182" y="700" on="1"/>
        <pt x="261" y="700" on="1"/>
        <pt x="261" y="690" on="1"/>
        <pt x="249" y="690" on="1"/>
        <pt x="223" y="690" on="0"/>
        <pt x="185" y="653" on="0"/>
        <pt x="185" y="627" on="1"/>
      </contour>
      <contour>
        <pt x="597" y="73" on="1"/>
        <pt x="597" y="0" on="1"/>
        <pt x="517" y="0" on="1"/>
        <pt x="517" y="10" on="1"/>
        <pt x="530" y="10" on="1"/>
        <pt x="556" y="10" on="0"/>
        <pt x="593" y="47" on="0"/>
        <pt x="594" y="73" on="1"/>
      </contour>
      <contour>
        <pt x="597" y="627" on="1"/>
        <pt x="594" y="627" on="1"/>
        <pt x="593" y="653" on="0"/>
        <pt x="556" y="690" on="0"/>
        <pt x="530" y="690" on="1"/>
        <pt x="517" y="690" on="1"/>
        <pt x="517" y="700" on="1"/>
        <pt x="597" y="700" on="1"/>
      </contour>
      <contour>
        <pt x="656" y="73" on="1"/>
        <pt x="659" y="73" on="1"/>
        <pt x="660" y="47" on="0"/>
        <pt x="697" y="10" on="0"/>
        <pt x="723" y="10" on="1"/>
        <pt x="736" y="10" on="1"/>
        <pt x="736" y="0" on="1"/>
        <pt x="656" y="0" on="1"/>
      </contour>
      <contour>
        <pt x="656" y="627" on="1"/>
        <pt x="656" y="700" on="1"/>
        <pt x="736" y="700" on="1"/>
        <pt x="736" y="690" on="1"/>
        <pt x="723" y="690" on="1"/>
        <pt x="697" y="690" on="0"/>
        <pt x="660" y="653" on="0"/>
        <pt x="659" y="627" on="1"/>
      </contour>
    </TTGlyph>
    <TTGlyph name="Hbar.001" xMin="60" yMin="-151" xMax="754" yMax="831">
      <contour>
        <pt x="665" y="73" on="1"/>
        <pt x="665" y="47" on="0"/>
        <pt x="703" y="10" on="0"/>
        <pt x="729" y="10" on="1"/>
        <pt x="741" y="10" on="1"/>
        <pt x="741" y="0" on="1"/>
        <pt x="523" y="0" on="1"/>
        <pt x="523" y="10" on="1"/>
        <pt x="536" y="10" on="1"/>
        <pt x="562" y="10" on="0"/>
        <pt x="598" y="45" on="0"/>
        <pt x="600" y="71" on="1"/>
        <pt x="600" y="331" on="1"/>
        <pt x="213" y="331" on="1"/>
        <pt x="213" y="70" on="1"/>
        <pt x="213" y="13" on="0"/>
        <pt x="192" y="-64" on="0"/>
        <pt x="154" y="-115" on="0"/>
        <pt x="99" y="-143" on="0"/>
        <pt x="65" y="-151" on="1"/>
        <pt x="60" y="-142" on="1"/>
        <pt x="104" y="-119" on="0"/>
        <pt x="148" y="-20" on="0"/>
        <pt x="148" y="70" on="1"/>
        <pt x="148" y="498" on="1"/>
        <pt x="60" y="498" on="1"/>
        <pt x="60" y="528" on="1"/>
        <pt x="148" y="528" on="1"/>
        <pt x="148" y="628" on="1"/>
        <pt x="147" y="654" on="0"/>
        <pt x="110" y="690" on="0"/>
        <pt x="84" y="690" on="1"/>
        <pt x="72" y="690" on="1"/>
        <pt x="72" y="700" on="1"/>
        <pt x="290" y="700" on="1"/>
        <pt x="290" y="690" on="1"/>
        <pt x="277" y="690" on="1"/>
        <pt x="251" y="690" on="0"/>
        <pt x="214" y="654" on="0"/>
        <pt x="213" y="628" on="1"/>
        <pt x="213" y="528" on="1"/>
        <pt x="600" y="528" on="1"/>
        <pt x="600" y="610" on="1"/>
        <pt x="600" y="667" on="0"/>
        <pt x="621" y="744" on="0"/>
        <pt x="660" y="795" on="0"/>
        <pt x="714" y="823" on="0"/>
        <pt x="749" y="831" on="1"/>
        <pt x="754" y="822" on="1"/>
        <pt x="710" y="799" on="0"/>
        <pt x="666" y="700" on="0"/>
        <pt x="665" y="610" on="1"/>
        <pt x="665" y="528" on="1"/>
        <pt x="729" y="528" on="1"/>
        <pt x="729" y="498" on="1"/>
        <pt x="665" y="498" on="1"/>
      </contour>
      <contour>
        <pt x="600" y="361" on="1"/>
        <pt x="600" y="498" on="1"/>
        <pt x="213" y="498" on="1"/>
        <pt x="213" y="361" on="1"/>
      </contour>
    </TTGlyph>
    <TTGlyph name="I" xMin="60" yMin="0" xMax="279" yMax="700">
      <contour>
        <pt x="202" y="700" on="1"/>
        <pt x="202" y="0" on="1"/>
        <pt x="137" y="0" on="1"/>
        <pt x="137" y="700" on="1"/>
      </contour>
      <contour>
        <pt x="140" y="73" on="1"/>
        <pt x="140" y="0" on="1"/>
        <pt x="60" y="0" on="1"/>
        <pt x="60" y="10" on="1"/>
        <pt x="73" y="10" on="1"/>
        <pt x="99" y="10" on="0"/>
        <pt x="136" y="47" on="0"/>
        <pt x="137" y="73" on="1"/>
      </contour>
      <contour>
        <pt x="140" y="627" on="1"/>
        <pt x="137" y="627" on="1"/>
        <pt x="136" y="653" on="0"/>
        <pt x="99" y="690" on="0"/>
        <pt x="73" y="690" on="1"/>
        <pt x="60" y="690" on="1"/>
        <pt x="60" y="700" on="1"/>
        <pt x="140" y="700" on="1"/>
      </contour>
      <contour>
        <pt x="199" y="73" on="1"/>
        <pt x="202" y="73" on="1"/>
        <pt x="203" y="47" on="0"/>
        <pt x="240" y="10" on="0"/>
        <pt x="266" y="10" on="1"/>
        <pt x="279" y="10" on="1"/>
        <pt x="279" y="0" on="1"/>
        <pt x="199" y="0" on="1"/>
      </contour>
      <contour>
        <pt x="199" y="627" on="1"/>
        <pt x="199" y="700" on="1"/>
        <pt x="279" y="700" on="1"/>
        <pt x="279" y="690" on="1"/>
        <pt x="266" y="690" on="1"/>
        <pt x="240" y="690" on="0"/>
        <pt x="203" y="653" on="0"/>
        <pt x="202" y="627" on="1"/>
      </contour>
    </TTGlyph>
    <TTGlyph name="I.001" xMin="-51" yMin="0" xMax="336" yMax="720">
      <contour>
        <pt x="257" y="73" on="1"/>
        <pt x="258" y="47" on="0"/>
        <pt x="295" y="10" on="0"/>
        <pt x="321" y="10" on="1"/>
        <pt x="334" y="10" on="1"/>
        <pt x="334" y="0" on="1"/>
        <pt x="115" y="0" on="1"/>
        <pt x="115" y="10" on="1"/>
        <pt x="128" y="10" on="1"/>
        <pt x="154" y="10" on="0"/>
        <pt x="191" y="47" on="0"/>
        <pt x="192" y="73" on="1"/>
        <pt x="192" y="673" on="1"/>
        <pt x="85" y="667" on="1"/>
        <pt x="40" y="664" on="0"/>
        <pt x="-14" y="634" on="0"/>
        <pt x="-16" y="601" on="1"/>
        <pt x="-18" y="571" on="0"/>
        <pt x="17" y="529" on="0"/>
        <pt x="57" y="527" on="1"/>
        <pt x="57" y="521" on="1"/>
        <pt x="34" y="515" on="0"/>
        <pt x="-6" y="523" on="0"/>
        <pt x="-35" y="546" on="0"/>
        <pt x="-51" y="581" on="0"/>
        <pt x="-50" y="601" on="1"/>
        <pt x="-49" y="636" on="0"/>
        <pt x="10" y="688" on="0"/>
        <pt x="79" y="696" on="1"/>
        <pt x="100" y="698" on="0"/>
        <pt x="159" y="701" on="0"/>
        <pt x="226" y="706" on="0"/>
        <pt x="298" y="713" on="0"/>
        <pt x="334" y="720" on="1"/>
        <pt x="336" y="710" on="1"/>
        <pt x="291" y="703" on="0"/>
        <pt x="258" y="658" on="0"/>
        <pt x="257" y="620" on="1"/>
      </contour>
    </TTGlyph>
    <TTGlyph name="IJ" xMin="60" yMin="-200" xMax="617" yMax="700">
      <component glyphName="I" x="0" y="0" flags="0x4"/>
      <component glyphName="J" x="338" y="0" flags="0x4"/>
    </TTGlyph>
    <TTGlyph name="IJ.001" xMin="-51" yMin="-165" xMax="672" yMax="720">
      <contour>
        <pt x="257" y="73" on="1"/>
        <pt x="258" y="47" on="0"/>
        <pt x="295" y="10" on="0"/>
        <pt x="321" y="10" on="1"/>
        <pt x="334" y="10" on="1"/>
        <pt x="334" y="0" on="1"/>
        <pt x="115" y="0" on="1"/>
        <pt x="115" y="10" on="1"/>
        <pt x="128" y="10" on="1"/>
        <pt x="154" y="10" on="0"/>
        <pt x="191" y="47" on="0"/>
        <pt x="192" y="73" on="1"/>
        <pt x="192" y="673" on="1"/>
        <pt x="85" y="667" on="1"/>
        <pt x="40" y="664" on="0"/>
        <pt x="-14" y="634" on="0"/>
        <pt x="-16" y="601" on="1"/>
        <pt x="-18" y="571" on="0"/>
        <pt x="17" y="529" on="0"/>
        <pt x="57" y="527" on="1"/>
        <pt x="57" y="521" on="1"/>
        <pt x="34" y="515" on="0"/>
        <pt x="-6" y="523" on="0"/>
        <pt x="-35" y="546" on="0"/>
        <pt x="-51" y="581" on="0"/>
        <pt x="-50" y="601" on="1"/>
        <pt x="-49" y="636" on="0"/>
        <pt x="10" y="688" on="0"/>
        <pt x="79" y="696" on="1"/>
        <pt x="100" y="698" on="0"/>
        <pt x="159" y="701" on="0"/>
        <pt x="226" y="706" on="0"/>
        <pt x="298" y="713" on="0"/>
        <pt x="334" y="720" on="1"/>
        <pt x="336" y="710" on="1"/>
        <pt x="291" y="703" on="0"/>
        <pt x="258" y="658" on="0"/>
        <pt x="257" y="620" on="1"/>
      </contour>
      <contour>
        <pt x="672" y="700" on="1"/>
        <pt x="672" y="690" on="1"/>
        <pt x="659" y="690" on="1"/>
        <pt x="633" y="690" on="0"/>
        <pt x="596" y="653" on="0"/>
        <pt x="595" y="627" on="1"/>
        <pt x="595" y="80" on="1"/>
        <pt x="595" y="20" on="0"/>
        <pt x="565" y="-66" on="0"/>
        <pt x="517" y="-123" on="0"/>
        <pt x="455" y="-154" on="0"/>
        <pt x="392" y="-165" on="0"/>
        <pt x="332" y="-157" on="0"/>
        <pt x="309" y="-146" on="1"/>
        <pt x="313" y="-135" on="1"/>
        <pt x="341" y="-144" on="0"/>
        <pt x="415" y="-142" on="0"/>
        <pt x="483" y="-98" on="0"/>
        <pt x="530" y="-1" on="0"/>
        <pt x="530" y="83" on="1"/>
        <pt x="530" y="627" on="1"/>
        <pt x="529" y="653" on="0"/>
        <pt x="492" y="690" on="0"/>
        <pt x="466" y="690" on="1"/>
        <pt x="453" y="690" on="1"/>
        <pt x="453" y="700" on="1"/>
      </contour>
    </TTGlyph>
    <TTGlyph name="Iacute" xMin="60" yMin="0" xMax="332" yMax="902">
      <component glyphName="I" x="0" y="0" flags="0x204"/>
      <component glyphName="acute" x="-37" y="18" flags="0x4"/>
    </TTGlyph>
    <TTGlyph name="Iacute.001" xMin="-51" yMin="0" xMax="385" yMax="902">
      <contour>
        <pt x="217" y="771" on="1"/>
        <pt x="249" y="806" on="0"/>
        <pt x="312" y="871" on="0"/>
        <pt x="344" y="902" on="1"/>
        <pt x="356" y="890" on="0"/>
        <pt x="377" y="864" on="0"/>
        <pt x="385" y="849" on="1"/>
        <pt x="345" y="826" on="0"/>
        <pt x="265" y="784" on="0"/>
        <pt x="224" y="764" on="1"/>
      </contour>
      <contour>
        <pt x="257" y="73" on="1"/>
        <pt x="258" y="47" on="0"/>
        <pt x="295" y="10" on="0"/>
        <pt x="321" y="10" on="1"/>
        <pt x="334" y="10" on="1"/>
        <pt x="334" y="0" on="1"/>
        <pt x="115" y="0" on="1"/>
        <pt x="115" y="10" on="1"/>
        <pt x="128" y="10" on="1"/>
        <pt x="154" y="10" on="0"/>
        <pt x="191" y="47" on="0"/>
        <pt x="192" y="73" on="1"/>
        <pt x="192" y="673" on="1"/>
        <pt x="85" y="667" on="1"/>
        <pt x="40" y="664" on="0"/>
        <pt x="-14" y="634" on="0"/>
        <pt x="-16" y="601" on="1"/>
        <pt x="-18" y="571" on="0"/>
        <pt x="17" y="529" on="0"/>
        <pt x="57" y="527" on="1"/>
        <pt x="57" y="521" on="1"/>
        <pt x="34" y="515" on="0"/>
        <pt x="-6" y="523" on="0"/>
        <pt x="-35" y="546" on="0"/>
        <pt x="-51" y="581" on="0"/>
        <pt x="-50" y="601" on="1"/>
        <pt x="-49" y="636" on="0"/>
        <pt x="10" y="688" on="0"/>
        <pt x="79" y="696" on="1"/>
        <pt x="100" y="698" on="0"/>
        <pt x="159" y="701" on="0"/>
        <pt x="226" y="706" on="0"/>
        <pt x="298" y="713" on="0"/>
        <pt x="334" y="720" on="1"/>
        <pt x="336" y="710" on="1"/>
        <pt x="291" y="703" on="0"/>
        <pt x="258" y="658" on="0"/>
        <pt x="257" y="620" on="1"/>
      </contour>
    </TTGlyph>
    <TTGlyph name="Icircumflex" xMin="60" yMin="0" xMax="290" yMax="890">
      <component glyphName="I" x="0" y="0" flags="0x204"/>
      <component glyphName="circumflex" x="-106" y="34" flags="0x4"/>
    </TTGlyph>
    <TTGlyph name="Icircumflex.001" xMin="-51" yMin="0" xMax="343" yMax="890">
      <contour>
        <pt x="219" y="890" on="1"/>
        <pt x="229" y="890" on="1"/>
        <pt x="343" y="771" on="1"/>
        <pt x="337" y="763" on="1"/>
        <pt x="224" y="829" on="1"/>
        <pt x="119" y="763" on="1"/>
        <pt x="113" y="771" on="1"/>
      </contour>
      <contour>
        <pt x="257" y="620" on="1"/>
        <pt x="258" y="658" on="0"/>
        <pt x="291" y="703" on="0"/>
        <pt x="336" y="710" on="1"/>
        <pt x="334" y="720" on="1"/>
        <pt x="298" y="713" on="0"/>
        <pt x="226" y="706" on="0"/>
        <pt x="159" y="701" on="0"/>
        <pt x="100" y="698" on="0"/>
        <pt x="79" y="696" on="1"/>
        <pt x="10" y="688" on="0"/>
        <pt x="-49" y="636" on="0"/>
        <pt x="-50" y="601" on="1"/>
        <pt x="-51" y="581" on="0"/>
        <pt x="-35" y="546" on="0"/>
        <pt x="-6" y="523" on="0"/>
        <pt x="34" y="515" on="0"/>
        <pt x="57" y="521" on="1"/>
        <pt x="57" y="527" on="1"/>
        <pt x="17" y="529" on="0"/>
        <pt x="-18" y="571" on="0"/>
        <pt x="-16" y="601" on="1"/>
        <pt x="-14" y="634" on="0"/>
        <pt x="40" y="664" on="0"/>
        <pt x="85" y="667" on="1"/>
        <pt x="192" y="673" on="1"/>
        <pt x="192" y="73" on="1"/>
        <pt x="191" y="47" on="0"/>
        <pt x="154" y="10" on="0"/>
        <pt x="128" y="10" on="1"/>
        <pt x="115" y="10" on="1"/>
        <pt x="115" y="0" on="1"/>
        <pt x="334" y="0" on="1"/>
        <pt x="334" y="10" on="1"/>
        <pt x="321" y="10" on="1"/>
        <pt x="295" y="10" on="0"/>
        <pt x="258" y="47" on="0"/>
        <pt x="257" y="73" on="1"/>
      </contour>
    </TTGlyph>
    <TTGlyph name="Idieresis" xMin="37" yMin="0" xMax="304" yMax="842">
      <component glyphName="I" x="0" y="0" flags="0x204"/>
      <component glyphName="dieresis" x="-110" y="64" flags="0x4"/>
    </TTGlyph>
    <TTGlyph name="Idieresis.001" xMin="-51" yMin="0" xMax="358" yMax="842">
      <contour>
        <pt x="169" y="803" on="1"/>
        <pt x="169" y="787" on="0"/>
        <pt x="147" y="764" on="0"/>
        <pt x="130" y="764" on="1"/>
        <pt x="114" y="764" on="0"/>
        <pt x="91" y="787" on="0"/>
        <pt x="91" y="803" on="1"/>
        <pt x="91" y="820" on="0"/>
        <pt x="114" y="842" on="0"/>
        <pt x="130" y="842" on="1"/>
        <pt x="147" y="842" on="0"/>
        <pt x="169" y="820" on="0"/>
      </contour>
      <contour>
        <pt x="358" y="803" on="1"/>
        <pt x="358" y="787" on="0"/>
        <pt x="335" y="764" on="0"/>
        <pt x="319" y="764" on="1"/>
        <pt x="302" y="764" on="0"/>
        <pt x="279" y="787" on="0"/>
        <pt x="279" y="803" on="1"/>
        <pt x="279" y="820" on="0"/>
        <pt x="302" y="842" on="0"/>
        <pt x="319" y="842" on="1"/>
        <pt x="335" y="842" on="0"/>
        <pt x="358" y="820" on="0"/>
      </contour>
      <contour>
        <pt x="257" y="73" on="1"/>
        <pt x="258" y="47" on="0"/>
        <pt x="295" y="10" on="0"/>
        <pt x="321" y="10" on="1"/>
        <pt x="334" y="10" on="1"/>
        <pt x="334" y="0" on="1"/>
        <pt x="115" y="0" on="1"/>
        <pt x="115" y="10" on="1"/>
        <pt x="128" y="10" on="1"/>
        <pt x="154" y="10" on="0"/>
        <pt x="191" y="47" on="0"/>
        <pt x="192" y="73" on="1"/>
        <pt x="192" y="673" on="1"/>
        <pt x="85" y="667" on="1"/>
        <pt x="40" y="664" on="0"/>
        <pt x="-14" y="634" on="0"/>
        <pt x="-16" y="601" on="1"/>
        <pt x="-18" y="571" on="0"/>
        <pt x="17" y="529" on="0"/>
        <pt x="57" y="527" on="1"/>
        <pt x="57" y="521" on="1"/>
        <pt x="34" y="515" on="0"/>
        <pt x="-6" y="523" on="0"/>
        <pt x="-35" y="546" on="0"/>
        <pt x="-51" y="581" on="0"/>
        <pt x="-50" y="601" on="1"/>
        <pt x="-49" y="636" on="0"/>
        <pt x="10" y="688" on="0"/>
        <pt x="79" y="696" on="1"/>
        <pt x="100" y="698" on="0"/>
        <pt x="159" y="701" on="0"/>
        <pt x="226" y="706" on="0"/>
        <pt x="298" y="713" on="0"/>
        <pt x="334" y="720" on="1"/>
        <pt x="336" y="710" on="1"/>
        <pt x="291" y="703" on="0"/>
        <pt x="258" y="658" on="0"/>
        <pt x="257" y="620" on="1"/>
      </contour>
    </TTGlyph>
    <TTGlyph name="Idotaccent" xMin="60" yMin="0" xMax="279" yMax="851">
      <component glyphName="I" x="0" y="0" flags="0x204"/>
      <component glyphName="dotaccent" x="-131" y="64" flags="0x4"/>
    </TTGlyph>
    <TTGlyph name="Idotaccent.001" xMin="-51" yMin="0" xMax="336" yMax="851">
      <contour>
        <pt x="266" y="808" on="1"/>
        <pt x="266" y="790" on="0"/>
        <pt x="241" y="765" on="0"/>
        <pt x="223" y="765" on="1"/>
        <pt x="205" y="765" on="0"/>
        <pt x="180" y="790" on="0"/>
        <pt x="180" y="808" on="1"/>
        <pt x="180" y="825" on="0"/>
        <pt x="205" y="851" on="0"/>
        <pt x="223" y="851" on="1"/>
        <pt x="241" y="851" on="0"/>
        <pt x="266" y="825" on="0"/>
      </contour>
      <contour>
        <pt x="257" y="73" on="1"/>
        <pt x="258" y="47" on="0"/>
        <pt x="295" y="10" on="0"/>
        <pt x="321" y="10" on="1"/>
        <pt x="334" y="10" on="1"/>
        <pt x="334" y="0" on="1"/>
        <pt x="115" y="0" on="1"/>
        <pt x="115" y="10" on="1"/>
        <pt x="128" y="10" on="1"/>
        <pt x="154" y="10" on="0"/>
        <pt x="191" y="47" on="0"/>
        <pt x="192" y="73" on="1"/>
        <pt x="192" y="673" on="1"/>
        <pt x="85" y="667" on="1"/>
        <pt x="40" y="664" on="0"/>
        <pt x="-14" y="634" on="0"/>
        <pt x="-16" y="601" on="1"/>
        <pt x="-18" y="571" on="0"/>
        <pt x="17" y="529" on="0"/>
        <pt x="57" y="527" on="1"/>
        <pt x="57" y="521" on="1"/>
        <pt x="34" y="515" on="0"/>
        <pt x="-6" y="523" on="0"/>
        <pt x="-35" y="546" on="0"/>
        <pt x="-51" y="581" on="0"/>
        <pt x="-50" y="601" on="1"/>
        <pt x="-49" y="636" on="0"/>
        <pt x="10" y="688" on="0"/>
        <pt x="79" y="696" on="1"/>
        <pt x="100" y="698" on="0"/>
        <pt x="159" y="701" on="0"/>
        <pt x="226" y="706" on="0"/>
        <pt x="298" y="713" on="0"/>
        <pt x="334" y="720" on="1"/>
        <pt x="336" y="710" on="1"/>
        <pt x="291" y="703" on="0"/>
        <pt x="258" y="658" on="0"/>
        <pt x="257" y="620" on="1"/>
      </contour>
    </TTGlyph>
    <TTGlyph name="Igrave" xMin="8" yMin="0" xMax="279" yMax="902">
      <contour>
        <pt x="202" y="700" on="1"/>
        <pt x="202" y="0" on="1"/>
        <pt x="137" y="0" on="1"/>
        <pt x="137" y="700" on="1"/>
      </contour>
      <contour>
        <pt x="140" y="73" on="1"/>
        <pt x="140" y="0" on="1"/>
        <pt x="60" y="0" on="1"/>
        <pt x="60" y="10" on="1"/>
        <pt x="73" y="10" on="1"/>
        <pt x="99" y="10" on="0"/>
        <pt x="136" y="47" on="0"/>
        <pt x="137" y="73" on="1"/>
      </contour>
      <contour>
        <pt x="140" y="627" on="1"/>
        <pt x="137" y="627" on="1"/>
        <pt x="136" y="653" on="0"/>
        <pt x="99" y="690" on="0"/>
        <pt x="73" y="690" on="1"/>
        <pt x="60" y="690" on="1"/>
        <pt x="60" y="700" on="1"/>
        <pt x="140" y="700" on="1"/>
      </contour>
      <contour>
        <pt x="199" y="73" on="1"/>
        <pt x="202" y="73" on="1"/>
        <pt x="203" y="47" on="0"/>
        <pt x="240" y="10" on="0"/>
        <pt x="266" y="10" on="1"/>
        <pt x="279" y="10" on="1"/>
        <pt x="279" y="0" on="1"/>
        <pt x="199" y="0" on="1"/>
      </contour>
      <contour>
        <pt x="199" y="627" on="1"/>
        <pt x="199" y="700" on="1"/>
        <pt x="279" y="700" on="1"/>
        <pt x="279" y="690" on="1"/>
        <pt x="266" y="690" on="1"/>
        <pt x="240" y="690" on="0"/>
        <pt x="203" y="653" on="0"/>
        <pt x="202" y="627" on="1"/>
      </contour>
      <contour>
        <pt x="169" y="764" on="1"/>
        <pt x="129" y="783" on="0"/>
        <pt x="49" y="826" on="0"/>
        <pt x="8" y="849" on="1"/>
        <pt x="16" y="865" on="0"/>
        <pt x="38" y="891" on="0"/>
        <pt x="49" y="902" on="1"/>
        <pt x="81" y="871" on="0"/>
        <pt x="144" y="806" on="0"/>
        <pt x="176" y="771" on="1"/>
      </contour>
    </TTGlyph>
    <TTGlyph name="Igrave.001" xMin="-51" yMin="0" xMax="336" yMax="902">
      <contour>
        <pt x="224" y="764" on="1"/>
        <pt x="184" y="783" on="0"/>
        <pt x="104" y="826" on="0"/>
        <pt x="63" y="849" on="1"/>
        <pt x="71" y="865" on="0"/>
        <pt x="93" y="891" on="0"/>
        <pt x="104" y="902" on="1"/>
        <pt x="136" y="871" on="0"/>
        <pt x="199" y="806" on="0"/>
        <pt x="231" y="771" on="1"/>
      </contour>
      <contour>
        <pt x="257" y="73" on="1"/>
        <pt x="258" y="47" on="0"/>
        <pt x="295" y="10" on="0"/>
        <pt x="321" y="10" on="1"/>
        <pt x="334" y="10" on="1"/>
        <pt x="334" y="0" on="1"/>
        <pt x="115" y="0" on="1"/>
        <pt x="115" y="10" on="1"/>
        <pt x="128" y="10" on="1"/>
        <pt x="154" y="10" on="0"/>
        <pt x="191" y="47" on="0"/>
        <pt x="192" y="73" on="1"/>
        <pt x="192" y="673" on="1"/>
        <pt x="85" y="667" on="1"/>
        <pt x="40" y="664" on="0"/>
        <pt x="-14" y="634" on="0"/>
        <pt x="-16" y="601" on="1"/>
        <pt x="-18" y="571" on="0"/>
        <pt x="17" y="529" on="0"/>
        <pt x="57" y="527" on="1"/>
        <pt x="57" y="521" on="1"/>
        <pt x="34" y="515" on="0"/>
        <pt x="-6" y="523" on="0"/>
        <pt x="-35" y="546" on="0"/>
        <pt x="-51" y="581" on="0"/>
        <pt x="-50" y="601" on="1"/>
        <pt x="-49" y="636" on="0"/>
        <pt x="10" y="688" on="0"/>
        <pt x="79" y="696" on="1"/>
        <pt x="100" y="698" on="0"/>
        <pt x="159" y="701" on="0"/>
        <pt x="226" y="706" on="0"/>
        <pt x="298" y="713" on="0"/>
        <pt x="334" y="720" on="1"/>
        <pt x="336" y="710" on="1"/>
        <pt x="291" y="703" on="0"/>
        <pt x="258" y="658" on="0"/>
        <pt x="257" y="620" on="1"/>
      </contour>
    </TTGlyph>
    <TTGlyph name="Imacron" xMin="48" yMin="0" xMax="298" yMax="830">
      <component glyphName="I" x="0" y="0" flags="0x204"/>
      <component glyphName="macron" x="-122" y="92" flags="0x4"/>
    </TTGlyph>
    <TTGlyph name="Imacron.001" xMin="-51" yMin="0" xMax="352" yMax="830">
      <contour>
        <pt x="102" y="830" on="1"/>
        <pt x="352" y="830" on="1"/>
        <pt x="352" y="795" on="1"/>
        <pt x="102" y="795" on="1"/>
      </contour>
      <contour>
        <pt x="257" y="73" on="1"/>
        <pt x="258" y="47" on="0"/>
        <pt x="295" y="10" on="0"/>
        <pt x="321" y="10" on="1"/>
        <pt x="334" y="10" on="1"/>
        <pt x="334" y="0" on="1"/>
        <pt x="115" y="0" on="1"/>
        <pt x="115" y="10" on="1"/>
        <pt x="128" y="10" on="1"/>
        <pt x="154" y="10" on="0"/>
        <pt x="191" y="47" on="0"/>
        <pt x="192" y="73" on="1"/>
        <pt x="192" y="673" on="1"/>
        <pt x="85" y="667" on="1"/>
        <pt x="40" y="664" on="0"/>
        <pt x="-14" y="634" on="0"/>
        <pt x="-16" y="601" on="1"/>
        <pt x="-18" y="571" on="0"/>
        <pt x="17" y="529" on="0"/>
        <pt x="57" y="527" on="1"/>
        <pt x="57" y="521" on="1"/>
        <pt x="34" y="515" on="0"/>
        <pt x="-6" y="523" on="0"/>
        <pt x="-35" y="546" on="0"/>
        <pt x="-51" y="581" on="0"/>
        <pt x="-50" y="601" on="1"/>
        <pt x="-49" y="636" on="0"/>
        <pt x="10" y="688" on="0"/>
        <pt x="79" y="696" on="1"/>
        <pt x="100" y="698" on="0"/>
        <pt x="159" y="701" on="0"/>
        <pt x="226" y="706" on="0"/>
        <pt x="298" y="713" on="0"/>
        <pt x="334" y="720" on="1"/>
        <pt x="336" y="710" on="1"/>
        <pt x="291" y="703" on="0"/>
        <pt x="258" y="658" on="0"/>
        <pt x="257" y="620" on="1"/>
      </contour>
    </TTGlyph>
    <TTGlyph name="Iogonek" xMin="60" yMin="-183" xMax="279" yMax="700">
      <component glyphName="I" x="0" y="0" flags="0x204"/>
      <component glyphName="ogonek" x="-188" y="-12" flags="0x4"/>
    </TTGlyph>
    <TTGlyph name="Iogonek.001" xMin="-51" yMin="-184" xMax="336" yMax="720">
      <contour>
        <pt x="243" y="0" on="1"/>
        <pt x="201" y="-10" on="0"/>
        <pt x="167" y="-49" on="0"/>
        <pt x="169" y="-78" on="1"/>
        <pt x="170" y="-99" on="0"/>
        <pt x="194" y="-132" on="0"/>
        <pt x="230" y="-147" on="0"/>
        <pt x="272" y="-139" on="0"/>
        <pt x="291" y="-120" on="1"/>
        <pt x="297" y="-126" on="1"/>
        <pt x="289" y="-147" on="0"/>
        <pt x="258" y="-173" on="0"/>
        <pt x="219" y="-184" on="0"/>
        <pt x="178" y="-179" on="0"/>
        <pt x="145" y="-157" on="0"/>
        <pt x="123" y="-118" on="0"/>
        <pt x="123" y="-89" on="1"/>
        <pt x="122" y="-56" on="0"/>
        <pt x="170" y="-8" on="0"/>
        <pt x="205" y="0" on="1"/>
        <pt x="115" y="0" on="1"/>
        <pt x="115" y="10" on="1"/>
        <pt x="128" y="10" on="1"/>
        <pt x="154" y="10" on="0"/>
        <pt x="191" y="47" on="0"/>
        <pt x="192" y="73" on="1"/>
        <pt x="192" y="673" on="1"/>
        <pt x="85" y="667" on="1"/>
        <pt x="40" y="664" on="0"/>
        <pt x="-14" y="634" on="0"/>
        <pt x="-16" y="601" on="1"/>
        <pt x="-18" y="571" on="0"/>
        <pt x="17" y="529" on="0"/>
        <pt x="57" y="527" on="1"/>
        <pt x="57" y="521" on="1"/>
        <pt x="34" y="515" on="0"/>
        <pt x="-6" y="523" on="0"/>
        <pt x="-35" y="546" on="0"/>
        <pt x="-51" y="581" on="0"/>
        <pt x="-50" y="601" on="1"/>
        <pt x="-49" y="636" on="0"/>
        <pt x="10" y="688" on="0"/>
        <pt x="79" y="696" on="1"/>
        <pt x="100" y="698" on="0"/>
        <pt x="159" y="701" on="0"/>
        <pt x="226" y="706" on="0"/>
        <pt x="298" y="713" on="0"/>
        <pt x="334" y="720" on="1"/>
        <pt x="336" y="710" on="1"/>
        <pt x="291" y="703" on="0"/>
        <pt x="258" y="658" on="0"/>
        <pt x="257" y="620" on="1"/>
        <pt x="257" y="73" on="1"/>
        <pt x="258" y="47" on="0"/>
        <pt x="295" y="10" on="0"/>
        <pt x="321" y="10" on="1"/>
        <pt x="334" y="10" on="1"/>
        <pt x="334" y="0" on="1"/>
      </contour>
    </TTGlyph>
    <TTGlyph name="J" xMin="20" yMin="-200" xMax="279" yMax="700">
      <contour>
        <pt x="202" y="700" on="1"/>
        <pt x="202" y="0" on="1"/>
        <pt x="202" y="-42" on="0"/>
        <pt x="174" y="-115" on="0"/>
        <pt x="125" y="-169" on="0"/>
        <pt x="58" y="-200" on="0"/>
        <pt x="20" y="-200" on="1"/>
        <pt x="20" y="-191" on="1"/>
        <pt x="44" y="-182" on="0"/>
        <pt x="87" y="-144" on="0"/>
        <pt x="119" y="-91" on="0"/>
        <pt x="137" y="-29" on="0"/>
        <pt x="137" y="3" on="1"/>
        <pt x="137" y="700" on="1"/>
      </contour>
      <contour>
        <pt x="140" y="627" on="1"/>
        <pt x="137" y="627" on="1"/>
        <pt x="136" y="653" on="0"/>
        <pt x="99" y="690" on="0"/>
        <pt x="73" y="690" on="1"/>
        <pt x="60" y="690" on="1"/>
        <pt x="60" y="700" on="1"/>
        <pt x="140" y="700" on="1"/>
      </contour>
      <contour>
        <pt x="199" y="627" on="1"/>
        <pt x="199" y="700" on="1"/>
        <pt x="279" y="700" on="1"/>
        <pt x="279" y="690" on="1"/>
        <pt x="266" y="690" on="1"/>
        <pt x="240" y="690" on="0"/>
        <pt x="203" y="653" on="0"/>
        <pt x="202" y="627" on="1"/>
      </contour>
    </TTGlyph>
    <TTGlyph name="J.001" xMin="-84" yMin="-165" xMax="279" yMax="700">
      <contour>
        <pt x="279" y="700" on="1"/>
        <pt x="279" y="690" on="1"/>
        <pt x="266" y="690" on="1"/>
        <pt x="240" y="690" on="0"/>
        <pt x="203" y="653" on="0"/>
        <pt x="202" y="627" on="1"/>
        <pt x="202" y="80" on="1"/>
        <pt x="202" y="20" on="0"/>
        <pt x="172" y="-66" on="0"/>
        <pt x="124" y="-123" on="0"/>
        <pt x="62" y="-154" on="0"/>
        <pt x="-1" y="-165" on="0"/>
        <pt x="-61" y="-157" on="0"/>
        <pt x="-84" y="-146" on="1"/>
        <pt x="-80" y="-135" on="1"/>
        <pt x="-52" y="-144" on="0"/>
        <pt x="22" y="-142" on="0"/>
        <pt x="90" y="-98" on="0"/>
        <pt x="137" y="-1" on="0"/>
        <pt x="137" y="83" on="1"/>
        <pt x="137" y="627" on="1"/>
        <pt x="136" y="653" on="0"/>
        <pt x="99" y="690" on="0"/>
        <pt x="73" y="690" on="1"/>
        <pt x="60" y="690" on="1"/>
        <pt x="60" y="700" on="1"/>
      </contour>
    </TTGlyph>
    <TTGlyph name="K" xMin="60" yMin="0" xMax="668" yMax="700">
      <contour>
        <pt x="289" y="385" on="1"/>
        <pt x="573" y="51" on="1"/>
        <pt x="594" y="31" on="0"/>
        <pt x="637" y="11" on="0"/>
        <pt x="668" y="10" on="1"/>
        <pt x="668" y="0" on="1"/>
        <pt x="625" y="0" on="1"/>
        <pt x="614" y="0" on="0"/>
        <pt x="578" y="3" on="0"/>
        <pt x="536" y="14" on="0"/>
        <pt x="492" y="37" on="0"/>
        <pt x="475" y="57" on="1"/>
        <pt x="234" y="348" on="1"/>
      </contour>
      <contour>
        <pt x="578" y="693" on="1"/>
        <pt x="279" y="348" on="1"/>
        <pt x="234" y="348" on="1"/>
        <pt x="509" y="693" on="1"/>
      </contour>
      <contour>
        <pt x="647" y="700" on="1"/>
        <pt x="647" y="691" on="1"/>
        <pt x="643" y="691" on="1"/>
        <pt x="610" y="691" on="0"/>
        <pt x="553" y="665" on="0"/>
        <pt x="533" y="642" on="1"/>
        <pt x="470" y="644" on="1"/>
        <pt x="483" y="661" on="0"/>
        <pt x="466" y="691" on="0"/>
        <pt x="446" y="691" on="1"/>
        <pt x="436" y="691" on="1"/>
        <pt x="436" y="700" on="1"/>
        <pt x="643" y="700" on="1"/>
      </contour>
      <contour>
        <pt x="202" y="700" on="1"/>
        <pt x="202" y="0" on="1"/>
        <pt x="137" y="0" on="1"/>
        <pt x="137" y="700" on="1"/>
      </contour>
      <contour>
        <pt x="140" y="73" on="1"/>
        <pt x="140" y="0" on="1"/>
        <pt x="60" y="0" on="1"/>
        <pt x="60" y="10" on="1"/>
        <pt x="73" y="10" on="1"/>
        <pt x="99" y="10" on="0"/>
        <pt x="136" y="47" on="0"/>
        <pt x="137" y="73" on="1"/>
      </contour>
      <contour>
        <pt x="140" y="627" on="1"/>
        <pt x="137" y="627" on="1"/>
        <pt x="136" y="653" on="0"/>
        <pt x="99" y="690" on="0"/>
        <pt x="73" y="690" on="1"/>
        <pt x="60" y="690" on="1"/>
        <pt x="60" y="700" on="1"/>
        <pt x="140" y="700" on="1"/>
      </contour>
      <contour>
        <pt x="199" y="73" on="1"/>
        <pt x="202" y="73" on="1"/>
        <pt x="203" y="47" on="0"/>
        <pt x="240" y="10" on="0"/>
        <pt x="266" y="10" on="1"/>
        <pt x="279" y="10" on="1"/>
        <pt x="279" y="0" on="1"/>
        <pt x="199" y="0" on="1"/>
      </contour>
      <contour>
        <pt x="199" y="627" on="1"/>
        <pt x="199" y="700" on="1"/>
        <pt x="279" y="700" on="1"/>
        <pt x="279" y="690" on="1"/>
        <pt x="266" y="690" on="1"/>
        <pt x="240" y="690" on="0"/>
        <pt x="203" y="653" on="0"/>
        <pt x="202" y="627" on="1"/>
      </contour>
    </TTGlyph>
    <TTGlyph name="K.001" xMin="60" yMin="-172" xMax="959" yMax="700">
      <contour>
        <pt x="202" y="73" on="1"/>
        <pt x="203" y="47" on="0"/>
        <pt x="240" y="10" on="0"/>
        <pt x="266" y="10" on="1"/>
        <pt x="279" y="10" on="1"/>
        <pt x="279" y="0" on="1"/>
        <pt x="60" y="0" on="1"/>
        <pt x="60" y="10" on="1"/>
        <pt x="73" y="10" on="1"/>
        <pt x="99" y="10" on="0"/>
        <pt x="136" y="47" on="0"/>
        <pt x="137" y="73" on="1"/>
        <pt x="137" y="628" on="1"/>
        <pt x="136" y="654" on="0"/>
        <pt x="99" y="690" on="0"/>
        <pt x="73" y="690" on="1"/>
        <pt x="60" y="690" on="1"/>
        <pt x="60" y="700" on="1"/>
        <pt x="279" y="700" on="1"/>
        <pt x="279" y="690" on="1"/>
        <pt x="266" y="690" on="1"/>
        <pt x="240" y="690" on="0"/>
        <pt x="203" y="654" on="0"/>
        <pt x="202" y="628" on="1"/>
      </contour>
      <contour>
        <pt x="642" y="12" on="1"/>
        <pt x="672" y="-20" on="0"/>
        <pt x="744" y="-79" on="0"/>
        <pt x="825" y="-124" on="0"/>
        <pt x="913" y="-150" on="0"/>
        <pt x="959" y="-150" on="1"/>
        <pt x="959" y="-160" on="1"/>
        <pt x="934" y="-166" on="0"/>
        <pt x="855" y="-172" on="0"/>
        <pt x="753" y="-146" on="0"/>
        <pt x="632" y="-76" on="0"/>
        <pt x="565" y="-5" on="1"/>
        <pt x="234" y="348" on="1"/>
        <pt x="470" y="644" on="1"/>
        <pt x="483" y="661" on="0"/>
        <pt x="466" y="691" on="0"/>
        <pt x="446" y="691" on="1"/>
        <pt x="436" y="691" on="1"/>
        <pt x="436" y="700" on="1"/>
        <pt x="647" y="700" on="1"/>
        <pt x="647" y="691" on="1"/>
        <pt x="643" y="691" on="1"/>
        <pt x="611" y="691" on="0"/>
        <pt x="555" y="666" on="0"/>
        <pt x="535" y="644" on="1"/>
        <pt x="302" y="375" on="1"/>
      </contour>
    </TTGlyph>
    <TTGlyph name="L" xMin="60" yMin="0" xMax="533" yMax="700">
      <contour>
        <pt x="202" y="700" on="1"/>
        <pt x="202" y="0" on="1"/>
        <pt x="137" y="0" on="1"/>
        <pt x="137" y="700" on="1"/>
      </contour>
      <contour>
        <pt x="472" y="31" on="1"/>
        <pt x="472" y="0" on="1"/>
        <pt x="199" y="0" on="1"/>
        <pt x="199" y="31" on="1"/>
      </contour>
      <contour>
        <pt x="533" y="162" on="1"/>
        <pt x="475" y="0" on="1"/>
        <pt x="309" y="0" on="1"/>
        <pt x="345" y="31" on="1"/>
        <pt x="385" y="31" on="0"/>
        <pt x="442" y="50" on="0"/>
        <pt x="483" y="85" on="0"/>
        <pt x="511" y="133" on="0"/>
        <pt x="523" y="162" on="1"/>
      </contour>
      <contour>
        <pt x="140" y="73" on="1"/>
        <pt x="140" y="0" on="1"/>
        <pt x="60" y="0" on="1"/>
        <pt x="60" y="10" on="1"/>
        <pt x="73" y="10" on="1"/>
        <pt x="99" y="10" on="0"/>
        <pt x="136" y="47" on="0"/>
        <pt x="137" y="73" on="1"/>
      </contour>
      <contour>
        <pt x="140" y="627" on="1"/>
        <pt x="137" y="627" on="1"/>
        <pt x="136" y="653" on="0"/>
        <pt x="99" y="690" on="0"/>
        <pt x="73" y="690" on="1"/>
        <pt x="60" y="690" on="1"/>
        <pt x="60" y="700" on="1"/>
        <pt x="140" y="700" on="1"/>
      </contour>
      <contour>
        <pt x="199" y="627" on="1"/>
        <pt x="199" y="700" on="1"/>
        <pt x="279" y="700" on="1"/>
        <pt x="279" y="690" on="1"/>
        <pt x="266" y="690" on="1"/>
        <pt x="240" y="690" on="0"/>
        <pt x="203" y="653" on="0"/>
        <pt x="202" y="627" on="1"/>
      </contour>
    </TTGlyph>
    <TTGlyph name="L.001" xMin="60" yMin="-203" xMax="926" yMax="700">
      <contour>
        <pt x="926" y="-119" on="1"/>
        <pt x="859" y="-165" on="0"/>
        <pt x="732" y="-203" on="0"/>
        <pt x="612" y="-202" on="0"/>
        <pt x="499" y="-171" on="0"/>
        <pt x="390" y="-125" on="0"/>
        <pt x="286" y="-71" on="0"/>
        <pt x="236" y="-49" on="1"/>
        <pt x="191" y="-29" on="0"/>
        <pt x="103" y="-1" on="0"/>
        <pt x="60" y="0" on="1"/>
        <pt x="60" y="10" on="1"/>
        <pt x="73" y="10" on="1"/>
        <pt x="99" y="10" on="0"/>
        <pt x="136" y="46" on="0"/>
        <pt x="137" y="73" on="1"/>
        <pt x="137" y="627" on="1"/>
        <pt x="136" y="653" on="0"/>
        <pt x="99" y="690" on="0"/>
        <pt x="73" y="690" on="1"/>
        <pt x="60" y="690" on="1"/>
        <pt x="60" y="700" on="1"/>
        <pt x="279" y="700" on="1"/>
        <pt x="279" y="690" on="1"/>
        <pt x="266" y="690" on="1"/>
        <pt x="240" y="690" on="0"/>
        <pt x="203" y="653" on="0"/>
        <pt x="202" y="627" on="1"/>
        <pt x="202" y="50" on="1"/>
        <pt x="202" y="39" on="0"/>
        <pt x="204" y="20" on="0"/>
        <pt x="213" y="2" on="0"/>
        <pt x="232" y="-13" on="0"/>
        <pt x="250" y="-19" on="1"/>
        <pt x="352" y="-54" on="0"/>
        <pt x="508" y="-104" on="0"/>
        <pt x="629" y="-135" on="0"/>
        <pt x="724" y="-148" on="0"/>
        <pt x="805" y="-145" on="0"/>
        <pt x="880" y="-127" on="0"/>
        <pt x="921" y="-111" on="1"/>
      </contour>
    </TTGlyph>
    <TTGlyph name="Lacute" xMin="60" yMin="0" xMax="533" yMax="902">
      <component glyphName="L" x="0" y="0" flags="0x204"/>
      <component glyphName="acute" x="-37" y="18" flags="0x4"/>
    </TTGlyph>
    <TTGlyph name="Lacute.001" xMin="60" yMin="-203" xMax="926" yMax="902">
      <contour>
        <pt x="162" y="771" on="1"/>
        <pt x="194" y="806" on="0"/>
        <pt x="257" y="871" on="0"/>
        <pt x="289" y="902" on="1"/>
        <pt x="301" y="890" on="0"/>
        <pt x="322" y="864" on="0"/>
        <pt x="330" y="849" on="1"/>
        <pt x="290" y="826" on="0"/>
        <pt x="210" y="784" on="0"/>
        <pt x="169" y="764" on="1"/>
      </contour>
      <contour>
        <pt x="926" y="-119" on="1"/>
        <pt x="859" y="-165" on="0"/>
        <pt x="732" y="-203" on="0"/>
        <pt x="612" y="-202" on="0"/>
        <pt x="499" y="-171" on="0"/>
        <pt x="390" y="-125" on="0"/>
        <pt x="286" y="-71" on="0"/>
        <pt x="236" y="-49" on="1"/>
        <pt x="191" y="-29" on="0"/>
        <pt x="103" y="-1" on="0"/>
        <pt x="60" y="0" on="1"/>
        <pt x="60" y="10" on="1"/>
        <pt x="73" y="10" on="1"/>
        <pt x="99" y="10" on="0"/>
        <pt x="136" y="46" on="0"/>
        <pt x="137" y="73" on="1"/>
        <pt x="137" y="627" on="1"/>
        <pt x="136" y="653" on="0"/>
        <pt x="99" y="690" on="0"/>
        <pt x="73" y="690" on="1"/>
        <pt x="60" y="690" on="1"/>
        <pt x="60" y="700" on="1"/>
        <pt x="279" y="700" on="1"/>
        <pt x="279" y="690" on="1"/>
        <pt x="266" y="690" on="1"/>
        <pt x="240" y="690" on="0"/>
        <pt x="203" y="653" on="0"/>
        <pt x="202" y="627" on="1"/>
        <pt x="202" y="50" on="1"/>
        <pt x="202" y="39" on="0"/>
        <pt x="204" y="20" on="0"/>
        <pt x="213" y="2" on="0"/>
        <pt x="232" y="-13" on="0"/>
        <pt x="250" y="-19" on="1"/>
        <pt x="352" y="-54" on="0"/>
        <pt x="508" y="-104" on="0"/>
        <pt x="629" y="-135" on="0"/>
        <pt x="724" y="-148" on="0"/>
        <pt x="805" y="-145" on="0"/>
        <pt x="880" y="-127" on="0"/>
        <pt x="921" y="-111" on="1"/>
      </contour>
    </TTGlyph>
    <TTGlyph name="Lcaron" xMin="60" yMin="0" xMax="533" yMax="706">
      <contour>
        <pt x="202" y="700" on="1"/>
        <pt x="202" y="0" on="1"/>
        <pt x="137" y="0" on="1"/>
        <pt x="137" y="700" on="1"/>
      </contour>
      <contour>
        <pt x="472" y="31" on="1"/>
        <pt x="472" y="0" on="1"/>
        <pt x="199" y="0" on="1"/>
        <pt x="199" y="31" on="1"/>
      </contour>
      <contour>
        <pt x="533" y="162" on="1"/>
        <pt x="475" y="0" on="1"/>
        <pt x="309" y="0" on="1"/>
        <pt x="345" y="31" on="1"/>
        <pt x="385" y="31" on="0"/>
        <pt x="442" y="50" on="0"/>
        <pt x="483" y="85" on="0"/>
        <pt x="511" y="133" on="0"/>
        <pt x="523" y="162" on="1"/>
      </contour>
      <contour>
        <pt x="140" y="73" on="1"/>
        <pt x="140" y="0" on="1"/>
        <pt x="60" y="0" on="1"/>
        <pt x="60" y="10" on="1"/>
        <pt x="73" y="10" on="1"/>
        <pt x="99" y="10" on="0"/>
        <pt x="136" y="47" on="0"/>
        <pt x="137" y="73" on="1"/>
      </contour>
      <contour>
        <pt x="140" y="627" on="1"/>
        <pt x="137" y="627" on="1"/>
        <pt x="136" y="653" on="0"/>
        <pt x="99" y="690" on="0"/>
        <pt x="73" y="690" on="1"/>
        <pt x="60" y="690" on="1"/>
        <pt x="60" y="700" on="1"/>
        <pt x="140" y="700" on="1"/>
      </contour>
      <contour>
        <pt x="199" y="627" on="1"/>
        <pt x="199" y="700" on="1"/>
        <pt x="279" y="700" on="1"/>
        <pt x="279" y="690" on="1"/>
        <pt x="266" y="690" on="1"/>
        <pt x="240" y="690" on="0"/>
        <pt x="203" y="653" on="0"/>
        <pt x="202" y="627" on="1"/>
      </contour>
      <contour>
        <pt x="370" y="688" on="1"/>
        <pt x="374" y="697" on="0"/>
        <pt x="391" y="706" on="0"/>
        <pt x="410" y="705" on="0"/>
        <pt x="428" y="693" on="0"/>
        <pt x="433" y="681" on="1"/>
        <pt x="443" y="658" on="0"/>
        <pt x="438" y="615" on="0"/>
        <pt x="417" y="582" on="0"/>
        <pt x="383" y="562" on="0"/>
        <pt x="364" y="562" on="1"/>
        <pt x="362" y="568" on="1"/>
        <pt x="380" y="574" on="0"/>
        <pt x="397" y="594" on="0"/>
        <pt x="400" y="615" on="0"/>
        <pt x="394" y="636" on="0"/>
        <pt x="389" y="642" on="1"/>
        <pt x="381" y="651" on="0"/>
        <pt x="363" y="673" on="0"/>
      </contour>
    </TTGlyph>
    <TTGlyph name="Lcaron.001" xMin="60" yMin="-203" xMax="926" yMax="706">
      <contour>
        <pt x="362" y="568" on="1"/>
        <pt x="380" y="574" on="0"/>
        <pt x="397" y="594" on="0"/>
        <pt x="400" y="615" on="0"/>
        <pt x="394" y="636" on="0"/>
        <pt x="389" y="642" on="1"/>
        <pt x="381" y="651" on="0"/>
        <pt x="363" y="673" on="0"/>
        <pt x="370" y="688" on="1"/>
        <pt x="374" y="697" on="0"/>
        <pt x="391" y="706" on="0"/>
        <pt x="410" y="705" on="0"/>
        <pt x="428" y="693" on="0"/>
        <pt x="433" y="681" on="1"/>
        <pt x="443" y="658" on="0"/>
        <pt x="438" y="615" on="0"/>
        <pt x="417" y="582" on="0"/>
        <pt x="383" y="562" on="0"/>
        <pt x="364" y="562" on="1"/>
      </contour>
      <contour>
        <pt x="926" y="-119" on="1"/>
        <pt x="859" y="-165" on="0"/>
        <pt x="732" y="-203" on="0"/>
        <pt x="612" y="-202" on="0"/>
        <pt x="499" y="-171" on="0"/>
        <pt x="390" y="-125" on="0"/>
        <pt x="286" y="-71" on="0"/>
        <pt x="236" y="-49" on="1"/>
        <pt x="191" y="-29" on="0"/>
        <pt x="103" y="-1" on="0"/>
        <pt x="60" y="0" on="1"/>
        <pt x="60" y="10" on="1"/>
        <pt x="73" y="10" on="1"/>
        <pt x="99" y="10" on="0"/>
        <pt x="136" y="46" on="0"/>
        <pt x="137" y="73" on="1"/>
        <pt x="137" y="627" on="1"/>
        <pt x="136" y="653" on="0"/>
        <pt x="99" y="690" on="0"/>
        <pt x="73" y="690" on="1"/>
        <pt x="60" y="690" on="1"/>
        <pt x="60" y="700" on="1"/>
        <pt x="279" y="700" on="1"/>
        <pt x="279" y="690" on="1"/>
        <pt x="266" y="690" on="1"/>
        <pt x="240" y="690" on="0"/>
        <pt x="203" y="653" on="0"/>
        <pt x="202" y="627" on="1"/>
        <pt x="202" y="50" on="1"/>
        <pt x="202" y="39" on="0"/>
        <pt x="204" y="20" on="0"/>
        <pt x="213" y="2" on="0"/>
        <pt x="232" y="-13" on="0"/>
        <pt x="250" y="-19" on="1"/>
        <pt x="352" y="-54" on="0"/>
        <pt x="508" y="-104" on="0"/>
        <pt x="629" y="-135" on="0"/>
        <pt x="724" y="-148" on="0"/>
        <pt x="805" y="-145" on="0"/>
        <pt x="880" y="-127" on="0"/>
        <pt x="921" y="-111" on="1"/>
      </contour>
    </TTGlyph>
    <TTGlyph name="Ldot" xMin="60" yMin="0" xMax="533" yMax="700">
      <contour>
        <pt x="202" y="700" on="1"/>
        <pt x="202" y="0" on="1"/>
        <pt x="137" y="0" on="1"/>
        <pt x="137" y="700" on="1"/>
      </contour>
      <contour>
        <pt x="140" y="73" on="1"/>
        <pt x="140" y="0" on="1"/>
        <pt x="60" y="0" on="1"/>
        <pt x="60" y="10" on="1"/>
        <pt x="73" y="10" on="1"/>
        <pt x="99" y="10" on="0"/>
        <pt x="136" y="47" on="0"/>
        <pt x="137" y="73" on="1"/>
      </contour>
      <contour>
        <pt x="472" y="31" on="1"/>
        <pt x="472" y="0" on="1"/>
        <pt x="199" y="0" on="1"/>
        <pt x="199" y="31" on="1"/>
      </contour>
      <contour>
        <pt x="533" y="162" on="1"/>
        <pt x="475" y="0" on="1"/>
        <pt x="309" y="0" on="1"/>
        <pt x="345" y="31" on="1"/>
        <pt x="385" y="31" on="0"/>
        <pt x="442" y="50" on="0"/>
        <pt x="483" y="85" on="0"/>
        <pt x="511" y="133" on="0"/>
        <pt x="523" y="162" on="1"/>
      </contour>
      <contour>
        <pt x="140" y="700" on="1"/>
        <pt x="140" y="627" on="1"/>
        <pt x="137" y="627" on="1"/>
        <pt x="136" y="653" on="0"/>
        <pt x="99" y="690" on="0"/>
        <pt x="73" y="690" on="1"/>
        <pt x="60" y="690" on="1"/>
        <pt x="60" y="700" on="1"/>
      </contour>
      <contour>
        <pt x="279" y="700" on="1"/>
        <pt x="279" y="690" on="1"/>
        <pt x="266" y="690" on="1"/>
        <pt x="240" y="690" on="0"/>
        <pt x="203" y="653" on="0"/>
        <pt x="202" y="627" on="1"/>
        <pt x="199" y="627" on="1"/>
        <pt x="199" y="700" on="1"/>
      </contour>
      <contour>
        <pt x="334" y="403" on="1"/>
        <pt x="316" y="403" on="0"/>
        <pt x="289" y="429" on="0"/>
        <pt x="289" y="448" on="1"/>
        <pt x="289" y="467" on="0"/>
        <pt x="316" y="493" on="0"/>
        <pt x="334" y="493" on="1"/>
        <pt x="353" y="493" on="0"/>
        <pt x="379" y="467" on="0"/>
        <pt x="379" y="448" on="1"/>
        <pt x="379" y="429" on="0"/>
        <pt x="353" y="403" on="0"/>
      </contour>
    </TTGlyph>
    <TTGlyph name="Ldot.001" xMin="60" yMin="-203" xMax="926" yMax="700">
      <contour>
        <pt x="926" y="-119" on="1"/>
        <pt x="859" y="-165" on="0"/>
        <pt x="732" y="-203" on="0"/>
        <pt x="612" y="-202" on="0"/>
        <pt x="499" y="-171" on="0"/>
        <pt x="390" y="-125" on="0"/>
        <pt x="286" y="-71" on="0"/>
        <pt x="236" y="-49" on="1"/>
        <pt x="191" y="-29" on="0"/>
        <pt x="103" y="-1" on="0"/>
        <pt x="60" y="0" on="1"/>
        <pt x="60" y="10" on="1"/>
        <pt x="73" y="10" on="1"/>
        <pt x="99" y="10" on="0"/>
        <pt x="136" y="46" on="0"/>
        <pt x="137" y="73" on="1"/>
        <pt x="137" y="627" on="1"/>
        <pt x="136" y="653" on="0"/>
        <pt x="99" y="690" on="0"/>
        <pt x="73" y="690" on="1"/>
        <pt x="60" y="690" on="1"/>
        <pt x="60" y="700" on="1"/>
        <pt x="279" y="700" on="1"/>
        <pt x="279" y="690" on="1"/>
        <pt x="266" y="690" on="1"/>
        <pt x="240" y="690" on="0"/>
        <pt x="203" y="653" on="0"/>
        <pt x="202" y="627" on="1"/>
        <pt x="202" y="50" on="1"/>
        <pt x="202" y="39" on="0"/>
        <pt x="204" y="20" on="0"/>
        <pt x="213" y="2" on="0"/>
        <pt x="232" y="-13" on="0"/>
        <pt x="250" y="-19" on="1"/>
        <pt x="352" y="-54" on="0"/>
        <pt x="508" y="-104" on="0"/>
        <pt x="629" y="-135" on="0"/>
        <pt x="724" y="-148" on="0"/>
        <pt x="805" y="-145" on="0"/>
        <pt x="880" y="-127" on="0"/>
        <pt x="921" y="-111" on="1"/>
      </contour>
      <contour>
        <pt x="379" y="448" on="1"/>
        <pt x="379" y="429" on="0"/>
        <pt x="353" y="403" on="0"/>
        <pt x="334" y="403" on="1"/>
        <pt x="316" y="403" on="0"/>
        <pt x="289" y="429" on="0"/>
        <pt x="289" y="448" on="1"/>
        <pt x="289" y="467" on="0"/>
        <pt x="316" y="493" on="0"/>
        <pt x="334" y="493" on="1"/>
        <pt x="353" y="493" on="0"/>
        <pt x="379" y="467" on="0"/>
      </contour>
    </TTGlyph>
    <TTGlyph name="Lslash" xMin="18" yMin="0" xMax="533" yMax="700">
      <contour>
        <pt x="202" y="700" on="1"/>
        <pt x="202" y="0" on="1"/>
        <pt x="137" y="0" on="1"/>
        <pt x="137" y="700" on="1"/>
      </contour>
      <contour>
        <pt x="140" y="700" on="1"/>
        <pt x="140" y="627" on="1"/>
        <pt x="137" y="627" on="1"/>
        <pt x="136" y="653" on="0"/>
        <pt x="99" y="690" on="0"/>
        <pt x="73" y="690" on="1"/>
        <pt x="60" y="690" on="1"/>
        <pt x="60" y="700" on="1"/>
      </contour>
      <contour>
        <pt x="279" y="700" on="1"/>
        <pt x="279" y="690" on="1"/>
        <pt x="266" y="690" on="1"/>
        <pt x="240" y="690" on="0"/>
        <pt x="203" y="653" on="0"/>
        <pt x="202" y="627" on="1"/>
        <pt x="199" y="627" on="1"/>
        <pt x="199" y="700" on="1"/>
      </contour>
      <contour>
        <pt x="140" y="73" on="1"/>
        <pt x="140" y="0" on="1"/>
        <pt x="60" y="0" on="1"/>
        <pt x="60" y="10" on="1"/>
        <pt x="73" y="10" on="1"/>
        <pt x="99" y="10" on="0"/>
        <pt x="136" y="47" on="0"/>
        <pt x="137" y="73" on="1"/>
      </contour>
      <contour>
        <pt x="472" y="31" on="1"/>
        <pt x="472" y="0" on="1"/>
        <pt x="199" y="0" on="1"/>
        <pt x="199" y="31" on="1"/>
      </contour>
      <contour>
        <pt x="533" y="162" on="1"/>
        <pt x="475" y="0" on="1"/>
        <pt x="309" y="0" on="1"/>
        <pt x="345" y="31" on="1"/>
        <pt x="385" y="31" on="0"/>
        <pt x="442" y="50" on="0"/>
        <pt x="483" y="85" on="0"/>
        <pt x="511" y="133" on="0"/>
        <pt x="523" y="162" on="1"/>
      </contour>
      <contour>
        <pt x="18" y="274" on="1"/>
        <pt x="326" y="452" on="1"/>
        <pt x="341" y="426" on="1"/>
        <pt x="33" y="248" on="1"/>
      </contour>
    </TTGlyph>
    <TTGlyph name="Lslash.001" xMin="60" yMin="-203" xMax="926" yMax="700">
      <contour>
        <pt x="926" y="-119" on="1"/>
        <pt x="859" y="-165" on="0"/>
        <pt x="732" y="-203" on="0"/>
        <pt x="612" y="-202" on="0"/>
        <pt x="499" y="-171" on="0"/>
        <pt x="390" y="-125" on="0"/>
        <pt x="286" y="-71" on="0"/>
        <pt x="236" y="-49" on="1"/>
        <pt x="191" y="-29" on="0"/>
        <pt x="103" y="-1" on="0"/>
        <pt x="60" y="0" on="1"/>
        <pt x="60" y="10" on="1"/>
        <pt x="73" y="10" on="1"/>
        <pt x="99" y="10" on="0"/>
        <pt x="136" y="46" on="0"/>
        <pt x="137" y="73" on="1"/>
        <pt x="137" y="284" on="1"/>
        <pt x="75" y="248" on="1"/>
        <pt x="60" y="274" on="1"/>
        <pt x="137" y="318" on="1"/>
        <pt x="137" y="627" on="1"/>
        <pt x="136" y="653" on="0"/>
        <pt x="99" y="690" on="0"/>
        <pt x="73" y="690" on="1"/>
        <pt x="60" y="690" on="1"/>
        <pt x="60" y="700" on="1"/>
        <pt x="279" y="700" on="1"/>
        <pt x="279" y="690" on="1"/>
        <pt x="266" y="690" on="1"/>
        <pt x="240" y="690" on="0"/>
        <pt x="203" y="653" on="0"/>
        <pt x="202" y="627" on="1"/>
        <pt x="202" y="356" on="1"/>
        <pt x="369" y="452" on="1"/>
        <pt x="384" y="426" on="1"/>
        <pt x="202" y="321" on="1"/>
        <pt x="202" y="50" on="1"/>
        <pt x="202" y="39" on="0"/>
        <pt x="204" y="20" on="0"/>
        <pt x="213" y="2" on="0"/>
        <pt x="232" y="-13" on="0"/>
        <pt x="250" y="-19" on="1"/>
        <pt x="352" y="-54" on="0"/>
        <pt x="508" y="-104" on="0"/>
        <pt x="629" y="-135" on="0"/>
        <pt x="724" y="-148" on="0"/>
        <pt x="805" y="-145" on="0"/>
        <pt x="880" y="-127" on="0"/>
        <pt x="921" y="-111" on="1"/>
      </contour>
    </TTGlyph>
    <TTGlyph name="M" xMin="15" yMin="-14" xMax="916" yMax="714">
      <contour>
        <pt x="741" y="714" on="1"/>
        <pt x="749" y="647" on="1"/>
        <pt x="498" y="88" on="1"/>
        <pt x="490" y="70" on="0"/>
        <pt x="483" y="52" on="1"/>
        <pt x="477" y="37" on="0"/>
        <pt x="466" y="1" on="0"/>
        <pt x="464" y="-14" on="1"/>
        <pt x="454" y="-14" on="1"/>
        <pt x="440" y="49" on="1"/>
      </contour>
      <contour>
        <pt x="126" y="73" on="1"/>
        <pt x="126" y="0" on="1"/>
        <pt x="15" y="0" on="1"/>
        <pt x="15" y="10" on="1"/>
        <pt x="31" y="10" on="1"/>
        <pt x="58" y="10" on="0"/>
        <pt x="100" y="43" on="0"/>
        <pt x="104" y="73" on="1"/>
      </contour>
      <contour>
        <pt x="155" y="57" on="1"/>
        <pt x="155" y="52" on="1"/>
        <pt x="155" y="36" on="0"/>
        <pt x="177" y="9" on="0"/>
        <pt x="194" y="9" on="1"/>
        <pt x="209" y="9" on="1"/>
        <pt x="209" y="0" on="1"/>
        <pt x="148" y="0" on="1"/>
        <pt x="148" y="57" on="1"/>
      </contour>
      <contour>
        <pt x="179" y="714" on="1"/>
        <pt x="189" y="714" on="1"/>
        <pt x="209" y="655" on="1"/>
        <pt x="150" y="0" on="1"/>
        <pt x="96" y="0" on="1"/>
      </contour>
      <contour>
        <pt x="189" y="714" on="1"/>
        <pt x="477" y="91" on="1"/>
        <pt x="454" y="-14" on="1"/>
        <pt x="170" y="602" on="1"/>
      </contour>
      <contour>
        <pt x="750" y="714" on="1"/>
        <pt x="836" y="0" on="1"/>
        <pt x="758" y="0" on="1"/>
        <pt x="703" y="606" on="1"/>
        <pt x="741" y="714" on="1"/>
      </contour>
      <contour>
        <pt x="806" y="73" on="1"/>
        <pt x="827" y="73" on="1"/>
        <pt x="832" y="43" on="0"/>
        <pt x="874" y="10" on="0"/>
        <pt x="900" y="10" on="1"/>
        <pt x="916" y="10" on="1"/>
        <pt x="916" y="0" on="1"/>
        <pt x="806" y="0" on="1"/>
      </contour>
      <contour>
        <pt x="760" y="57" on="1"/>
        <pt x="760" y="0" on="1"/>
        <pt x="699" y="0" on="1"/>
        <pt x="699" y="9" on="1"/>
        <pt x="714" y="9" on="1"/>
        <pt x="731" y="9" on="0"/>
        <pt x="753" y="36" on="0"/>
        <pt x="753" y="52" on="1"/>
        <pt x="753" y="57" on="1"/>
      </contour>
    </TTGlyph>
    <TTGlyph name="M.001" xMin="-67" yMin="-183" xMax="1112" yMax="812">
      <contour>
        <pt x="843" y="122" on="1"/>
        <pt x="854" y="52" on="0"/>
        <pt x="902" y="-56" on="0"/>
        <pt x="971" y="-129" on="0"/>
        <pt x="1060" y="-164" on="0"/>
        <pt x="1112" y="-162" on="1"/>
        <pt x="1112" y="-172" on="1"/>
        <pt x="1035" y="-183" on="0"/>
        <pt x="916" y="-145" on="0"/>
        <pt x="831" y="-65" on="0"/>
        <pt x="780" y="49" on="0"/>
        <pt x="771" y="113" on="1"/>
        <pt x="710" y="558" on="1"/>
        <pt x="502" y="88" on="1"/>
        <pt x="494" y="70" on="0"/>
        <pt x="487" y="52" on="1"/>
        <pt x="481" y="37" on="0"/>
        <pt x="470" y="1" on="0"/>
        <pt x="468" y="-14" on="1"/>
        <pt x="458" y="-14" on="1"/>
        <pt x="199" y="549" on="1"/>
        <pt x="155" y="52" on="1"/>
        <pt x="153" y="34" on="0"/>
        <pt x="180" y="9" on="0"/>
        <pt x="194" y="9" on="1"/>
        <pt x="209" y="9" on="1"/>
        <pt x="209" y="0" on="1"/>
        <pt x="15" y="0" on="1"/>
        <pt x="15" y="10" on="1"/>
        <pt x="31" y="10" on="1"/>
        <pt x="57" y="10" on="0"/>
        <pt x="99" y="41" on="0"/>
        <pt x="104" y="70" on="1"/>
        <pt x="167" y="616" on="1"/>
        <pt x="151" y="647" on="0"/>
        <pt x="108" y="713" on="0"/>
        <pt x="51" y="765" on="0"/>
        <pt x="-22" y="794" on="0"/>
        <pt x="-67" y="788" on="1"/>
        <pt x="-67" y="798" on="1"/>
        <pt x="-3" y="812" on="0"/>
        <pt x="97" y="783" on="0"/>
        <pt x="171" y="727" on="0"/>
        <pt x="219" y="658" on="0"/>
        <pt x="231" y="633" on="1"/>
        <pt x="472" y="111" on="1"/>
        <pt x="741" y="714" on="1"/>
        <pt x="750" y="714" on="1"/>
      </contour>
    </TTGlyph>
    <TTGlyph name="N" xMin="45" yMin="-14" xMax="796" yMax="715">
      <contour>
        <pt x="126" y="715" on="1"/>
        <pt x="707" y="95" on="1"/>
        <pt x="716" y="-14" on="1"/>
        <pt x="135" y="605" on="1"/>
      </contour>
      <contour>
        <pt x="128" y="71" on="1"/>
        <pt x="128" y="0" on="1"/>
        <pt x="45" y="0" on="1"/>
        <pt x="45" y="10" on="1"/>
        <pt x="64" y="10" on="1"/>
        <pt x="89" y="10" on="0"/>
        <pt x="125" y="45" on="0"/>
        <pt x="125" y="71" on="1"/>
      </contour>
      <contour>
        <pt x="171" y="71" on="1"/>
        <pt x="171" y="45" on="0"/>
        <pt x="207" y="10" on="0"/>
        <pt x="232" y="10" on="1"/>
        <pt x="251" y="10" on="1"/>
        <pt x="251" y="0" on="1"/>
        <pt x="168" y="0" on="1"/>
        <pt x="168" y="71" on="1"/>
      </contour>
      <contour>
        <pt x="126" y="715" on="1"/>
        <pt x="170" y="659" on="1"/>
        <pt x="171" y="0" on="1"/>
        <pt x="125" y="0" on="1"/>
        <pt x="125" y="590" on="1"/>
        <pt x="125" y="616" on="0"/>
        <pt x="122" y="661" on="0"/>
        <pt x="120" y="678" on="1"/>
        <pt x="118" y="698" on="0"/>
        <pt x="116" y="715" on="1"/>
      </contour>
      <contour>
        <pt x="716" y="700" on="1"/>
        <pt x="716" y="114" on="1"/>
        <pt x="716" y="89" on="0"/>
        <pt x="718" y="44" on="0"/>
        <pt x="720" y="26" on="1"/>
        <pt x="722" y="5" on="0"/>
        <pt x="725" y="-14" on="1"/>
        <pt x="716" y="-14" on="1"/>
        <pt x="671" y="39" on="1"/>
        <pt x="671" y="700" on="1"/>
      </contour>
      <contour>
        <pt x="796" y="700" on="1"/>
        <pt x="796" y="690" on="1"/>
        <pt x="778" y="690" on="1"/>
        <pt x="752" y="690" on="0"/>
        <pt x="717" y="655" on="0"/>
        <pt x="716" y="629" on="1"/>
        <pt x="713" y="629" on="1"/>
        <pt x="713" y="700" on="1"/>
      </contour>
      <contour>
        <pt x="590" y="700" on="1"/>
        <pt x="673" y="700" on="1"/>
        <pt x="673" y="629" on="1"/>
        <pt x="671" y="629" on="1"/>
        <pt x="670" y="655" on="0"/>
        <pt x="635" y="690" on="0"/>
        <pt x="609" y="690" on="1"/>
        <pt x="590" y="690" on="1"/>
      </contour>
    </TTGlyph>
    <TTGlyph name="N.001" xMin="-188" yMin="-171" xMax="1054" yMax="839">
      <contour>
        <pt x="1054" y="-152" on="1"/>
        <pt x="994" y="-171" on="0"/>
        <pt x="893" y="-161" on="0"/>
        <pt x="806" y="-118" on="0"/>
        <pt x="732" y="-51" on="0"/>
        <pt x="698" y="-14" on="1"/>
        <pt x="171" y="570" on="1"/>
        <pt x="171" y="70" on="1"/>
        <pt x="172" y="45" on="0"/>
        <pt x="207" y="10" on="0"/>
        <pt x="232" y="10" on="1"/>
        <pt x="251" y="10" on="1"/>
        <pt x="251" y="0" on="1"/>
        <pt x="45" y="0" on="1"/>
        <pt x="45" y="10" on="1"/>
        <pt x="64" y="10" on="1"/>
        <pt x="89" y="10" on="0"/>
        <pt x="125" y="45" on="0"/>
        <pt x="125" y="71" on="1"/>
        <pt x="125" y="620" on="1"/>
        <pt x="110" y="638" on="0"/>
        <pt x="74" y="685" on="0"/>
        <pt x="31" y="734" on="0"/>
        <pt x="-21" y="777" on="0"/>
        <pt x="-80" y="806" on="0"/>
        <pt x="-147" y="815" on="0"/>
        <pt x="-184" y="804" on="1"/>
        <pt x="-188" y="814" on="1"/>
        <pt x="-128" y="839" on="0"/>
        <pt x="-27" y="830" on="0"/>
        <pt x="59" y="785" on="0"/>
        <pt x="133" y="713" on="0"/>
        <pt x="167" y="676" on="1"/>
        <pt x="671" y="116" on="1"/>
        <pt x="671" y="629" on="1"/>
        <pt x="670" y="655" on="0"/>
        <pt x="635" y="690" on="0"/>
        <pt x="609" y="690" on="1"/>
        <pt x="590" y="690" on="1"/>
        <pt x="590" y="700" on="1"/>
        <pt x="796" y="700" on="1"/>
        <pt x="796" y="690" on="1"/>
        <pt x="778" y="690" on="1"/>
        <pt x="752" y="690" on="0"/>
        <pt x="717" y="655" on="0"/>
        <pt x="716" y="630" on="1"/>
        <pt x="716" y="65" on="1"/>
        <pt x="743" y="35" on="0"/>
        <pt x="809" y="-45" on="0"/>
        <pt x="890" y="-114" on="0"/>
        <pt x="989" y="-154" on="0"/>
        <pt x="1050" y="-142" on="1"/>
      </contour>
    </TTGlyph>
    <TTGlyph name="Nacute" xMin="45" yMin="-14" xMax="796" yMax="902">
      <component glyphName="N" x="0" y="0" flags="0x204"/>
      <component glyphName="acute" x="218" y="18" flags="0x4"/>
    </TTGlyph>
    <TTGlyph name="Nacute.001" xMin="-188" yMin="-171" xMax="1054" yMax="902">
      <contour>
        <pt x="419" y="771" on="1"/>
        <pt x="451" y="806" on="0"/>
        <pt x="514" y="871" on="0"/>
        <pt x="546" y="902" on="1"/>
        <pt x="557" y="890" on="0"/>
        <pt x="579" y="864" on="0"/>
        <pt x="587" y="849" on="1"/>
        <pt x="546" y="826" on="0"/>
        <pt x="466" y="784" on="0"/>
        <pt x="426" y="764" on="1"/>
      </contour>
      <contour>
        <pt x="1054" y="-152" on="1"/>
        <pt x="994" y="-171" on="0"/>
        <pt x="893" y="-161" on="0"/>
        <pt x="806" y="-118" on="0"/>
        <pt x="732" y="-51" on="0"/>
        <pt x="698" y="-14" on="1"/>
        <pt x="171" y="570" on="1"/>
        <pt x="171" y="70" on="1"/>
        <pt x="172" y="45" on="0"/>
        <pt x="207" y="10" on="0"/>
        <pt x="232" y="10" on="1"/>
        <pt x="251" y="10" on="1"/>
        <pt x="251" y="0" on="1"/>
        <pt x="45" y="0" on="1"/>
        <pt x="45" y="10" on="1"/>
        <pt x="64" y="10" on="1"/>
        <pt x="89" y="10" on="0"/>
        <pt x="125" y="45" on="0"/>
        <pt x="125" y="71" on="1"/>
        <pt x="125" y="620" on="1"/>
        <pt x="110" y="638" on="0"/>
        <pt x="74" y="685" on="0"/>
        <pt x="31" y="734" on="0"/>
        <pt x="-21" y="777" on="0"/>
        <pt x="-80" y="806" on="0"/>
        <pt x="-147" y="815" on="0"/>
        <pt x="-184" y="804" on="1"/>
        <pt x="-188" y="814" on="1"/>
        <pt x="-128" y="839" on="0"/>
        <pt x="-27" y="830" on="0"/>
        <pt x="59" y="785" on="0"/>
        <pt x="133" y="713" on="0"/>
        <pt x="167" y="676" on="1"/>
        <pt x="671" y="116" on="1"/>
        <pt x="671" y="629" on="1"/>
        <pt x="670" y="655" on="0"/>
        <pt x="635" y="690" on="0"/>
        <pt x="609" y="690" on="1"/>
        <pt x="590" y="690" on="1"/>
        <pt x="590" y="700" on="1"/>
        <pt x="796" y="700" on="1"/>
        <pt x="796" y="690" on="1"/>
        <pt x="778" y="690" on="1"/>
        <pt x="752" y="690" on="0"/>
        <pt x="717" y="655" on="0"/>
        <pt x="716" y="630" on="1"/>
        <pt x="716" y="65" on="1"/>
        <pt x="743" y="35" on="0"/>
        <pt x="809" y="-45" on="0"/>
        <pt x="890" y="-114" on="0"/>
        <pt x="989" y="-154" on="0"/>
        <pt x="1050" y="-142" on="1"/>
      </contour>
    </TTGlyph>
    <TTGlyph name="Ncaron" xMin="45" yMin="-14" xMax="796" yMax="891">
      <component glyphName="N" x="0" y="0" flags="0x204"/>
      <component glyphName="caron" x="140" y="35" flags="0x4"/>
    </TTGlyph>
    <TTGlyph name="Ncaron.001" xMin="-188" yMin="-171" xMax="1054" yMax="891">
      <contour>
        <pt x="431" y="764" on="1"/>
        <pt x="421" y="764" on="1"/>
        <pt x="307" y="883" on="1"/>
        <pt x="313" y="891" on="1"/>
        <pt x="426" y="825" on="1"/>
        <pt x="531" y="891" on="1"/>
        <pt x="537" y="883" on="1"/>
      </contour>
      <contour>
        <pt x="1050" y="-142" on="1"/>
        <pt x="989" y="-154" on="0"/>
        <pt x="890" y="-114" on="0"/>
        <pt x="809" y="-45" on="0"/>
        <pt x="743" y="35" on="0"/>
        <pt x="716" y="65" on="1"/>
        <pt x="716" y="630" on="1"/>
        <pt x="717" y="655" on="0"/>
        <pt x="752" y="690" on="0"/>
        <pt x="778" y="690" on="1"/>
        <pt x="796" y="690" on="1"/>
        <pt x="796" y="700" on="1"/>
        <pt x="590" y="700" on="1"/>
        <pt x="590" y="690" on="1"/>
        <pt x="609" y="690" on="1"/>
        <pt x="635" y="690" on="0"/>
        <pt x="670" y="655" on="0"/>
        <pt x="671" y="629" on="1"/>
        <pt x="671" y="116" on="1"/>
        <pt x="167" y="676" on="1"/>
        <pt x="133" y="713" on="0"/>
        <pt x="59" y="785" on="0"/>
        <pt x="-27" y="830" on="0"/>
        <pt x="-128" y="839" on="0"/>
        <pt x="-188" y="814" on="1"/>
        <pt x="-184" y="804" on="1"/>
        <pt x="-147" y="815" on="0"/>
        <pt x="-80" y="806" on="0"/>
        <pt x="-21" y="777" on="0"/>
        <pt x="31" y="734" on="0"/>
        <pt x="74" y="685" on="0"/>
        <pt x="110" y="638" on="0"/>
        <pt x="125" y="620" on="1"/>
        <pt x="125" y="71" on="1"/>
        <pt x="125" y="45" on="0"/>
        <pt x="89" y="10" on="0"/>
        <pt x="64" y="10" on="1"/>
        <pt x="45" y="10" on="1"/>
        <pt x="45" y="0" on="1"/>
        <pt x="251" y="0" on="1"/>
        <pt x="251" y="10" on="1"/>
        <pt x="232" y="10" on="1"/>
        <pt x="207" y="10" on="0"/>
        <pt x="172" y="45" on="0"/>
        <pt x="171" y="70" on="1"/>
        <pt x="171" y="570" on="1"/>
        <pt x="698" y="-14" on="1"/>
        <pt x="732" y="-51" on="0"/>
        <pt x="806" y="-118" on="0"/>
        <pt x="893" y="-161" on="0"/>
        <pt x="994" y="-171" on="0"/>
        <pt x="1054" y="-152" on="1"/>
      </contour>
    </TTGlyph>
    <TTGlyph name="Ntilde" xMin="45" yMin="-14" xMax="796" yMax="852">
      <component glyphName="N" x="0" y="0" flags="0x204"/>
      <component glyphName="tilde" x="149" y="64" flags="0x4"/>
    </TTGlyph>
    <TTGlyph name="Ntilde.001" xMin="-188" yMin="-171" xMax="1054" yMax="852">
      <contour>
        <pt x="562" y="843" on="1"/>
        <pt x="557" y="806" on="0"/>
        <pt x="522" y="764" on="0"/>
        <pt x="496" y="764" on="1"/>
        <pt x="480" y="764" on="0"/>
        <pt x="447" y="778" on="0"/>
        <pt x="416" y="794" on="0"/>
        <pt x="388" y="808" on="0"/>
        <pt x="376" y="808" on="1"/>
        <pt x="339" y="808" on="0"/>
        <pt x="321" y="767" on="1"/>
        <pt x="311" y="767" on="1"/>
        <pt x="317" y="807" on="0"/>
        <pt x="351" y="852" on="0"/>
        <pt x="376" y="852" on="1"/>
        <pt x="393" y="852" on="0"/>
        <pt x="425" y="839" on="0"/>
        <pt x="455" y="822" on="0"/>
        <pt x="483" y="809" on="0"/>
        <pt x="496" y="809" on="1"/>
        <pt x="537" y="809" on="0"/>
        <pt x="552" y="843" on="1"/>
      </contour>
      <contour>
        <pt x="1050" y="-142" on="1"/>
        <pt x="989" y="-154" on="0"/>
        <pt x="890" y="-114" on="0"/>
        <pt x="809" y="-45" on="0"/>
        <pt x="743" y="35" on="0"/>
        <pt x="716" y="65" on="1"/>
        <pt x="716" y="630" on="1"/>
        <pt x="717" y="655" on="0"/>
        <pt x="752" y="690" on="0"/>
        <pt x="778" y="690" on="1"/>
        <pt x="796" y="690" on="1"/>
        <pt x="796" y="700" on="1"/>
        <pt x="590" y="700" on="1"/>
        <pt x="590" y="690" on="1"/>
        <pt x="609" y="690" on="1"/>
        <pt x="635" y="690" on="0"/>
        <pt x="670" y="655" on="0"/>
        <pt x="671" y="629" on="1"/>
        <pt x="671" y="116" on="1"/>
        <pt x="167" y="676" on="1"/>
        <pt x="133" y="713" on="0"/>
        <pt x="59" y="785" on="0"/>
        <pt x="-27" y="830" on="0"/>
        <pt x="-128" y="839" on="0"/>
        <pt x="-188" y="814" on="1"/>
        <pt x="-184" y="804" on="1"/>
        <pt x="-147" y="815" on="0"/>
        <pt x="-80" y="806" on="0"/>
        <pt x="-21" y="777" on="0"/>
        <pt x="31" y="734" on="0"/>
        <pt x="74" y="685" on="0"/>
        <pt x="110" y="638" on="0"/>
        <pt x="125" y="620" on="1"/>
        <pt x="125" y="71" on="1"/>
        <pt x="125" y="45" on="0"/>
        <pt x="89" y="10" on="0"/>
        <pt x="64" y="10" on="1"/>
        <pt x="45" y="10" on="1"/>
        <pt x="45" y="0" on="1"/>
        <pt x="251" y="0" on="1"/>
        <pt x="251" y="10" on="1"/>
        <pt x="232" y="10" on="1"/>
        <pt x="207" y="10" on="0"/>
        <pt x="172" y="45" on="0"/>
        <pt x="171" y="70" on="1"/>
        <pt x="171" y="570" on="1"/>
        <pt x="698" y="-14" on="1"/>
        <pt x="732" y="-51" on="0"/>
        <pt x="806" y="-118" on="0"/>
        <pt x="893" y="-161" on="0"/>
        <pt x="994" y="-171" on="0"/>
        <pt x="1054" y="-152" on="1"/>
      </contour>
    </TTGlyph>
    <TTGlyph name="O" xMin="70" yMin="-14" xMax="789" yMax="714">
      <contour>
        <pt x="429" y="714" on="1"/>
        <pt x="509" y="714" on="0"/>
        <pt x="641" y="662" on="0"/>
        <pt x="736" y="566" on="0"/>
        <pt x="789" y="432" on="0"/>
        <pt x="789" y="350" on="1"/>
        <pt x="789" y="268" on="0"/>
        <pt x="736" y="134" on="0"/>
        <pt x="641" y="38" on="0"/>
        <pt x="509" y="-14" on="0"/>
        <pt x="429" y="-14" on="1"/>
        <pt x="349" y="-14" on="0"/>
        <pt x="217" y="38" on="0"/>
        <pt x="123" y="134" on="0"/>
        <pt x="70" y="268" on="0"/>
        <pt x="70" y="350" on="1"/>
        <pt x="70" y="432" on="0"/>
        <pt x="123" y="566" on="0"/>
        <pt x="217" y="662" on="0"/>
        <pt x="349" y="714" on="0"/>
      </contour>
      <contour>
        <pt x="429" y="16" on="1"/>
        <pt x="493" y="16" on="0"/>
        <pt x="597" y="64" on="0"/>
        <pt x="671" y="152" on="0"/>
        <pt x="712" y="275" on="0"/>
        <pt x="712" y="350" on="1"/>
        <pt x="712" y="425" on="0"/>
        <pt x="671" y="548" on="0"/>
        <pt x="597" y="636" on="0"/>
        <pt x="493" y="684" on="0"/>
        <pt x="429" y="684" on="1"/>
        <pt x="366" y="684" on="0"/>
        <pt x="262" y="636" on="0"/>
        <pt x="188" y="548" on="0"/>
        <pt x="147" y="425" on="0"/>
        <pt x="147" y="350" on="1"/>
        <pt x="147" y="275" on="0"/>
        <pt x="188" y="152" on="0"/>
        <pt x="262" y="64" on="0"/>
        <pt x="366" y="16" on="0"/>
      </contour>
    </TTGlyph>
    <TTGlyph name="O.001" xMin="60" yMin="-14" xMax="869" yMax="714">
      <contour>
        <pt x="277" y="467" on="1"/>
        <pt x="270" y="501" on="0"/>
        <pt x="287" y="587" on="0"/>
        <pt x="343" y="662" on="0"/>
        <pt x="445" y="714" on="0"/>
        <pt x="523" y="714" on="1"/>
        <pt x="601" y="714" on="0"/>
        <pt x="729" y="659" on="0"/>
        <pt x="819" y="564" on="0"/>
        <pt x="869" y="435" on="0"/>
        <pt x="869" y="361" on="1"/>
        <pt x="869" y="277" on="0"/>
        <pt x="808" y="139" on="0"/>
        <pt x="701" y="40" on="0"/>
        <pt x="553" y="-14" on="0"/>
        <pt x="466" y="-14" on="1"/>
        <pt x="380" y="-14" on="0"/>
        <pt x="231" y="40" on="0"/>
        <pt x="122" y="138" on="0"/>
        <pt x="60" y="276" on="0"/>
        <pt x="60" y="360" on="1"/>
        <pt x="60" y="467" on="0"/>
        <pt x="159" y="632" on="0"/>
        <pt x="253" y="680" on="1"/>
        <pt x="259" y="671" on="1"/>
        <pt x="224" y="648" on="0"/>
        <pt x="177" y="579" on="0"/>
        <pt x="149" y="499" on="0"/>
        <pt x="137" y="414" on="0"/>
        <pt x="137" y="375" on="1"/>
        <pt x="137" y="288" on="0"/>
        <pt x="187" y="154" on="0"/>
        <pt x="276" y="63" on="0"/>
        <pt x="395" y="16" on="0"/>
        <pt x="464" y="16" on="1"/>
        <pt x="536" y="16" on="0"/>
        <pt x="656" y="66" on="0"/>
        <pt x="743" y="157" on="0"/>
        <pt x="792" y="285" on="0"/>
        <pt x="792" y="363" on="1"/>
        <pt x="792" y="426" on="0"/>
        <pt x="757" y="542" on="0"/>
        <pt x="688" y="631" on="0"/>
        <pt x="584" y="684" on="0"/>
        <pt x="515" y="684" on="1"/>
        <pt x="453" y="684" on="0"/>
        <pt x="362" y="642" on="0"/>
        <pt x="305" y="579" on="0"/>
        <pt x="281" y="503" on="0"/>
        <pt x="287" y="469" on="1"/>
      </contour>
    </TTGlyph>
</ttFont>
